<svg xmlns="http://www.w3.org/2000/svg" xmlns:xlink="http://www.w3.org/1999/xlink" viewBox="0 0 227 223"><defs><style>.cls-1,.cls-3{fill:none;}.cls-2{isolation:isolate;}.cls-3{stroke:#6b672b;stroke-miterlimit:10;stroke-width:3px;}.cls-4{fill:#6b672b;}.cls-5{font-size:17px;}.cls-10,.cls-15,.cls-5,.cls-6,.cls-8{fill:#fff;}.cls-5,.cls-6{font-family:BebasNeue, Bebas Neue;}.cls-6{font-size:18px;}.cls-7{fill:#a1cd3a;}.cls-8{opacity:0.15;mix-blend-mode:lighten;}.cls-9{fill:#859a3b;}.cls-10{font-size:55px;font-family:MarketFreshInlineBold, Market Fresh Inline Bold;}.cls-11{letter-spacing:-0.02em;}.cls-12{letter-spacing:0em;}.cls-13{clip-path:url(#clip-path);}.cls-14{opacity:0.4;}</style><clipPath id="clip-path"><rect class="cls-1" x="-22.31" y="3.03" width="741.24" height="741.24"/></clipPath></defs><title>WRT170717</title><g class="cls-2"><g id="Layer_2" data-name="Layer 2"><circle class="cls-3" cx="113.87" cy="109.12" r="90.99"/><circle class="cls-4" cx="113.87" cy="109.12" r="84.66"/><text class="cls-5" transform="translate(85.2 182.18) rotate(20.16)">e</text><text class="cls-5" transform="translate(92.63 184.82) rotate(14.03)">s</text><text class="cls-5" transform="matrix(0.99, 0.14, -0.14, 0.99, 100.37, 186.66)">t</text><text class="cls-5" transform="translate(107.76 187.58) rotate(3.63)"> </text><text class="cls-5" transform="translate(111.81 187.86) rotate(-0.97)">2</text><text class="cls-5" transform="matrix(0.99, -0.13, 0.13, 0.99, 120.16, 187.63)">0</text><text class="cls-5" transform="translate(128.49 186.46) rotate(-13.8)">1</text><text class="cls-5" transform="translate(136.61 184.37) rotate(-20.29)">0</text><text class="cls-6" transform="translate(74.74 61.59) rotate(-37.37)">g</text><text class="cls-6" transform="matrix(0.87, -0.49, 0.49, 0.87, 81.12, 56.8)">r</text><text class="cls-6" transform="translate(88.25 52.81) rotate(-21.87)">o</text><text class="cls-6" transform="translate(95.69 49.77) rotate(-12.71)">w</text><text class="cls-6" transform="translate(106.59 47.61) rotate(-5.57)"> </text><text class="cls-6" transform="translate(110.41 47.13) rotate(0.93)">b</text><text class="cls-6" transform="translate(118.67 47.29) rotate(7.67)">e</text><text class="cls-6" transform="translate(126.2 48.37) rotate(14.87)">t</text><text class="cls-6" transform="translate(133.33 50.32) rotate(21.98)">t</text><text class="cls-6" transform="matrix(0.87, 0.49, -0.49, 0.87, 140.16, 53.15)">e</text><text class="cls-6" transform="translate(146.76 56.88) rotate(36.71)">r</text><path class="cls-7" d="M166.85,86.51a57.61,57.61,0,0,0-106,0Z"/><path class="cls-7" d="M61.27,132.56c9,19.57,29.15,34.15,52.6,34.15s43.63-14.59,52.6-34.15Z"/><path class="cls-8" d="M112.68,18.13a91,91,0,0,0,0,182Z"/><path class="cls-4" d="M110.44,76.26c2.28-4.46,7.48-9.67,11.61-11.07a27.18,27.18,0,0,0-9.87,12.56c3.37,2.23,7.91,1.89,12.87-3.08,5.73-5.73,2.88-15.36,2.88-15.36s-9.63-2.86-15.36,2.88C107,67.76,107.25,72.81,110.44,76.26Z"/><path class="cls-9" d="M107.06,79.61c-1.29-2.53-4.25-5.5-6.6-6.29a15.44,15.44,0,0,1,5.61,7.14c-1.91,1.27-4.49,1.07-7.32-1.75C95.5,75.46,97.12,70,97.12,70s5.47-1.62,8.73,1.63S108.88,77.66,107.06,79.61Z"/><text class="cls-10" transform="translate(57.83 129.53)">W<tspan class="cls-11" x="49.61" y="0">R</tspan><tspan class="cls-12" x="81.84" y="0">T</tspan></text><g class="cls-13"><g class="cls-14"><path class="cls-15" d="M169.5,17.88a4.72,4.72,0,0,0,.06-1.43c-1.32.15-1.8-.87-2.14-1.66-.21-.5-.47-1.13-.9-1.29a.88.88,0,0,1-.65-.81,1,1,0,0,1,.65-.78,25.65,25.65,0,0,0-1.45-3,3.53,3.53,0,0,0-.5,0,1.06,1.06,0,0,1-1.12-.85.92.92,0,0,1,.8-.85c-.35,0-.66-.08-.93-.12a6.72,6.72,0,0,0-.8-.1,2.48,2.48,0,0,1-.63.61l-.11.08a1.35,1.35,0,0,1,.83.31.7.7,0,0,1,.1,1,21.78,21.78,0,0,0-1.45,2.07l-.38.58a7.18,7.18,0,0,1,1.06.92,3.62,3.62,0,0,0,1.9,1.23,1,1,0,0,1,.86.84v.82l.23.07a3.39,3.39,0,0,1,1.92,1,.8.8,0,0,1,.13.28,9.51,9.51,0,0,1,.14,1.16,2.77,2.77,0,0,0,.65,2,4.72,4.72,0,0,1,1.17-.36l.47-.1A6.25,6.25,0,0,1,169.5,17.88Z"/><path class="cls-15" d="M169.32,167.61a2.82,2.82,0,0,0,0,.29l.3,0,0-.06a.59.59,0,0,0,.11-.27,4.16,4.16,0,0,1-.52-.23C169.29,167.44,169.3,167.52,169.32,167.61Z"/><path class="cls-15" d="M173.28,210a2.28,2.28,0,0,0,2.08,1h0a1.91,1.91,0,0,0,2-1.85c-.8-.34-1.69-.66-2.73-1C173.1,209,173.17,209.68,173.28,210Z"/><path class="cls-15" d="M180.08,115.31a3.25,3.25,0,0,0,.42-.88,1.47,1.47,0,0,0-2.17-.14,1.62,1.62,0,0,0-.62,1.28,3.65,3.65,0,0,0,2,.64A2.57,2.57,0,0,1,180.08,115.31Z"/><path class="cls-15" d="M178.06,168.49a6.11,6.11,0,0,1-.23,1.37,2.39,2.39,0,0,1,1.6-.36C179,168.82,178.66,168.5,178.06,168.49Z"/><path class="cls-15" d="M168.16,28a2.28,2.28,0,0,0-1.7.78.49.49,0,0,0,0,.67,3,3,0,0,0,1.15.26,1.17,1.17,0,0,0,1.25-.8.85.85,0,0,0-.23-.77A.74.74,0,0,0,168.16,28Z"/><path class="cls-15" d="M175.08,222.82a1.3,1.3,0,0,1,.56-1.13,3.23,3.23,0,0,0-1.46-.27,1.65,1.65,0,0,1-.5,0,.8.8,0,0,1-.2.27.91.91,0,0,0-.07,1A2.85,2.85,0,0,0,175.08,222.82Z"/><path class="cls-15" d="M150.26,201.4l.1-.1a1,1,0,0,1-.47-.44c-.06-.13-.33-.22-.69-.32a4.34,4.34,0,0,1-.82-.31,1.22,1.22,0,0,0-1,1.41,1.32,1.32,0,0,0,1.37,1l0,.54h0v-.54c.42,0,.6-.17,1-.71A5.2,5.2,0,0,1,150.26,201.4Z"/><path class="cls-15" d="M199.41,120.39a.81.81,0,0,1,.27-.42.62.62,0,0,0,.18-.22,1.51,1.51,0,0,1-.27-.05,1.24,1.24,0,0,1-.45-.22,3.82,3.82,0,0,1-.29.58l.08,0Z"/><path class="cls-15" d="M205.19,221.83a1.28,1.28,0,0,1-.43.27l-.13.06c0,.09,0,.18,0,.27a8.78,8.78,0,0,0-.19,1.62.84.84,0,0,1-.48.69,3.48,3.48,0,0,1,.71.57,3.19,3.19,0,0,0,.47.4,12.13,12.13,0,0,1,1.23-2.13,7.91,7.91,0,0,0,1.07-1.9,7.26,7.26,0,0,0-1.66.13A1.5,1.5,0,0,1,205.19,221.83Z"/><path class="cls-15" d="M207.65,215.12a1,1,0,0,0-.15-.14c0,.48,0,1,.24,1.19a.45.45,0,0,0,.17.06.89.89,0,0,0,0-.15.7.7,0,0,1,.08-.26.74.74,0,0,1-.13-.25A1.28,1.28,0,0,0,207.65,215.12Z"/><path class="cls-15" d="M203.29,83.56H203a1.35,1.35,0,0,0,.49.29l0-.05A2.08,2.08,0,0,1,203.29,83.56Z"/><path class="cls-15" d="M181.84,165.7a4.63,4.63,0,0,1,1.28-.14,2.68,2.68,0,0,0,.26-1c0-.19.05-.38.09-.56a1.43,1.43,0,0,1-.28-.08,1.27,1.27,0,0,1-.26-.14,3.73,3.73,0,0,1-.65.6c-.68.54-1,.84-.59,1.37Z"/><path class="cls-15" d="M191.36,25.55c.11-.16.23-.33.37-.5-.27-.53-.53-.65-.57-.66a1.09,1.09,0,0,1-.48-.34,2,2,0,0,0-.43.25,2.1,2.1,0,0,0-.92,1.51c0,.44.29.7.86.78a1.15,1.15,0,0,1,.62-.42C191,26.13,191.19,25.78,191.36,25.55Z"/><path class="cls-15" d="M190.63,211.44a.84.84,0,0,0-.18.77.91.91,0,0,0,1-.2.71.71,0,0,0,0-.77C190.87,211.24,190.7,211.38,190.63,211.44Z"/><path class="cls-15" d="M185.48,111.2a1.93,1.93,0,0,1-.19.22,1,1,0,0,0-.16.21.79.79,0,0,1,.35,1h.75a.91.91,0,0,1,.35-.37h0a.66.66,0,0,1,.07-.66,1,1,0,0,1-.38-.41Z"/><path class="cls-15" d="M210.49,38c0-.19,0-.37,0-.57a1.61,1.61,0,0,1-.25-.15l0,0a1.55,1.55,0,0,1-.31.06h0a2.28,2.28,0,0,1-.12,1.15c0,.14-.14.48-.09.55a1.22,1.22,0,0,0,.57.11A2,2,0,0,0,210.49,38Z"/><path class="cls-15" d="M114.2,50.49a1.3,1.3,0,0,0,.78-.17c.09-.06.33-.25.36-1a1,1,0,0,0-1.49-.08.91.91,0,0,0,0,1A1.67,1.67,0,0,1,114.2,50.49Z"/><path class="cls-15" d="M112,201.56a.76.76,0,0,1-.35-.76.24.24,0,0,1,0-.09l-.06.06a4.13,4.13,0,0,1-2.22,1.41c0,.28-.12.59-.19.89a5.71,5.71,0,0,0-.18.84,5.12,5.12,0,0,1,1.1.47,6.57,6.57,0,0,0,1.29.54c.94-.1,1.22-.58,1.5-1.8a4.86,4.86,0,0,1,.28-.94l-.18-.09A6.22,6.22,0,0,1,112,201.56Z"/><path class="cls-15" d="M80,217.3a1.15,1.15,0,0,1-.47-.26,2,2,0,0,0-1.31,1.61,9.1,9.1,0,0,1,1.35.52,6.59,6.59,0,0,0,1,.4,3.6,3.6,0,0,0-.29-.51A1.7,1.7,0,0,1,80,217.3Z"/><path class="cls-15" d="M88.13,42.55a2.29,2.29,0,0,0-1.79.08.57.57,0,0,0-.19.49,1,1,0,0,1,.34.36.5.5,0,0,0,0,.1,3.69,3.69,0,0,0,1.59-.18Z"/><path class="cls-15" d="M88.74,221.82c0,.09,0,.2,0,.3a1.62,1.62,0,0,0,.12-1,1.7,1.7,0,0,0-.59-1l-.13.2a1,1,0,0,0-.1.14,1.31,1.31,0,0,1,.4.18.74.74,0,0,1,.35.65C88.76,221.45,88.75,221.66,88.74,221.82Z"/><path class="cls-15" d="M144.55,16.51c-1.85.17-1.95,1.43-1.95,1.7a1.74,1.74,0,0,0,.54,1.25,1.84,1.84,0,0,0,.94.48,1.23,1.23,0,0,1,.81-.43h0a.92.92,0,0,0,.61-.48,2.16,2.16,0,0,0-.08-2.05A1.46,1.46,0,0,1,144.55,16.51Z"/><path class="cls-15" d="M137.48,177.8a1.13,1.13,0,0,1-.25-.07,2.16,2.16,0,0,1-.69,1.31,5.55,5.55,0,0,1,1.19-.26,1.39,1.39,0,0,0-.17-.59A.75.75,0,0,1,137.48,177.8Z"/><path class="cls-15" d="M132.95,195.09a1.13,1.13,0,0,1-.28.22.52.52,0,0,1,.08.26.64.64,0,0,0,.24.42,2.48,2.48,0,0,0,.57.07,1.13,1.13,0,0,0,.74-.22,1.07,1.07,0,0,0,.33-.94A1.38,1.38,0,0,0,132.95,195.09Z"/><path class="cls-15" d="M136.83,154.55a.45.45,0,0,0,0-.37.77.77,0,0,1,.48-1.13l.09,0h0a1.19,1.19,0,0,1-.31-.29l-.24,0a3.85,3.85,0,0,1-.5.81,1.88,1.88,0,0,0-.52,1.29,3.23,3.23,0,0,1,.49.23A.74.74,0,0,0,136.83,154.55Z"/><path class="cls-15" d="M119.7,41.47a1.34,1.34,0,0,1-.44-.11,1.33,1.33,0,0,1-.38.17A1.78,1.78,0,0,0,117.6,43c0,.3,0,1.27,1.52,1.41h.19a2.28,2.28,0,0,0,1.68-.71,1.43,1.43,0,0,0,.12-1.73A3.75,3.75,0,0,0,119.7,41.47Z"/><path class="cls-15" d="M128.93,167.78h.25a2.79,2.79,0,0,1,.71.09.77.77,0,0,1,.17-.31,4.52,4.52,0,0,0-2.53-3c-.75,0-.92.31-1,.41a1,1,0,0,0,0,.85l0,.08a2.77,2.77,0,0,0,.65.89h.06a2.13,2.13,0,0,1,1.25.4A1.23,1.23,0,0,1,128.93,167.78Z"/><path class="cls-15" d="M220.71,191.34l.18.86.13,0Z"/><path class="cls-15" d="M224.64,186.48a1,1,0,0,0-.4-.24,1.18,1.18,0,0,1-.74.41l-.16,0a5.25,5.25,0,0,0,.16,1.08c0,.14.06.27.09.41a1,1,0,0,1,.38.3,1.21,1.21,0,0,0,1-1.18A1.14,1.14,0,0,0,224.64,186.48Z"/><path class="cls-15" d="M221.77,114.82a1.58,1.58,0,0,1-.51,0,1.31,1.31,0,0,1-.48-.23h-.13a1,1,0,0,1-.44.31l0,.1h0a1.8,1.8,0,0,0,1.09.76.89.89,0,0,0,.48-.5A.5.5,0,0,0,221.77,114.82Z"/><path class="cls-15" d="M223.7,215.42h-.33a1.25,1.25,0,0,0,.49.29l0-.05A1.69,1.69,0,0,1,223.7,215.42Z"/><path class="cls-15" d="M222.19,197.85h-.13c-.55,0-.68.18-.71.47a3.5,3.5,0,0,0,1.28,2.32l.06-.21c.23-.91.5-2,.09-2.4C222.74,198,222.61,197.86,222.19,197.85Z"/><path class="cls-15" d="M210.54,71a1.09,1.09,0,0,1,.4.28.77.77,0,0,1,.18-.21,1.1,1.1,0,0,1-.56-.38.79.79,0,0,0-.11-.12h0a.94.94,0,0,1-.27-.32,1.25,1.25,0,0,0-.34.47l.32.12Z"/><path class="cls-15" d="M212.6,146.35a2.57,2.57,0,0,0-.89.18c-.38.14-1,.48-.77,1.13a1.73,1.73,0,0,0,1.82,1,1.13,1.13,0,0,0,1.08-1.27A1.14,1.14,0,0,0,212.6,146.35Z"/><path class="cls-15" d="M210.77,214.59a1.14,1.14,0,0,0-.55.85.77.77,0,0,1-.08.27.74.74,0,0,1,.13.24,2.63,2.63,0,0,1,.58.28c.81-.07,1.23-.36,1.42-1a1.56,1.56,0,0,0-.63-.29A3.54,3.54,0,0,1,210.77,214.59Z"/><path class="cls-15" d="M210.74,172.9a.54.54,0,0,0,.08.45.7.7,0,0,0,.41.16,1.27,1.27,0,0,1,.33-.13,1,1,0,0,1,.36-.31.28.28,0,0,0-.06-.09,2,2,0,0,0-.45,0A5.27,5.27,0,0,1,210.74,172.9Z"/><path class="cls-15" d="M210.42,158.15a.72.72,0,0,0-.25-.06,2.8,2.8,0,0,1,0,.48,1.33,1.33,0,0,0,.05.67h.22a1.92,1.92,0,0,1,.72.16l.14.05a1.24,1.24,0,0,0,.41-.14c0-.66,0-1-.19-1.15A1.59,1.59,0,0,1,210.42,158.15Z"/><path class="cls-15" d="M216.57,188.05h0a2.21,2.21,0,0,1-.69.19c-.06.29.06.42.38.74h0a1.85,1.85,0,0,1,.58-.2,1.39,1.39,0,0,0-.13-.34A2.48,2.48,0,0,1,216.57,188.05Z"/><path class="cls-15" d="M218.44,174.6c0-.09,0-.38-.62-.92-.7.3-.93.54-.89.65s.56.36,1.09.36C218.27,174.69,218.42,174.64,218.44,174.6Z"/><path class="cls-15" d="M219.58,195.73a1.48,1.48,0,0,0,.27-.69,1.14,1.14,0,0,1-.89-.57,1,1,0,0,0-.39-.06.85.85,0,0,0-.48.11.32.32,0,0,0-.11.21c.12.1.23.22.34.33A1.64,1.64,0,0,0,219.58,195.73Z"/><path class="cls-15" d="M79.13,201.49A3.84,3.84,0,0,1,80,200a1.33,1.33,0,0,1,1-.39c-.53-.34-1-.83-.64-1.63a.83.83,0,0,0-1,.1A4.94,4.94,0,0,0,78,201.24a3.77,3.77,0,0,1,1.13.41A.47.47,0,0,1,79.13,201.49Z"/><path class="cls-15" d="M226.53,100.56a.92.92,0,0,1-.57.62l.21,0h.19a1.55,1.55,0,0,1,.49.08,3.6,3.6,0,0,0,1.16.23c.26,0,.65,0,.65-.65,0-.88-.82-1.9-1.25-1.9C227.3,98.89,226.81,99.17,226.53,100.56Z"/><path class="cls-15" d="M226.17,69.17a1.67,1.67,0,0,1,.33,0,1.48,1.48,0,0,1,.7.17,2.05,2.05,0,0,1,.22.14,1.57,1.57,0,0,0,0-1.25,1.57,1.57,0,0,1-.37.06,3.78,3.78,0,0,1-.78-.09l-.2,0c-.23.51-.31.86-.14,1.13A1.59,1.59,0,0,1,226.17,69.17Z"/><path class="cls-15" d="M224.55,163.37l.14-.06a.34.34,0,0,0,.2-.31,1.17,1.17,0,0,0-.58-.83.68.68,0,0,1-.18.17.92.92,0,0,0-.13.39,1.31,1.31,0,0,1,.46.43A.84.84,0,0,1,224.55,163.37Z"/><path class="cls-15" d="M221.06,100.1a1.47,1.47,0,0,0-.44-1.21.56.56,0,0,0-.35-.1,1.06,1.06,0,0,0-.8.38,1.13,1.13,0,0,0,0,1.37A2.27,2.27,0,0,0,221.06,100.1Z"/><path class="cls-15" d="M219.69,160.86a3.57,3.57,0,0,0-.46-.06c0,.11.09.21.29.41l.18.19a1,1,0,0,0,.49-.12.71.71,0,0,1,.07-.2.58.58,0,0,1-.1-.16A2.68,2.68,0,0,1,219.69,160.86Z"/><path class="cls-15" d="M225.59,101.29h0a5.8,5.8,0,0,0-.58.17,1,1,0,0,1,.1.14A2.08,2.08,0,0,1,225.59,101.29Z"/><path class="cls-15" d="M219.55,207.77a1.14,1.14,0,0,0,.36.88.93.93,0,0,0,.73-.85c0-.22-.16-.48-.76-.52A.75.75,0,0,0,219.55,207.77Z"/><path class="cls-15" d="M78.66,191.36a2,2,0,0,1,0-.4,1.5,1.5,0,0,0-1.2.55,3.33,3.33,0,0,0,1.07.21A.45.45,0,0,0,78.66,191.36Z"/><path class="cls-15" d="M40.7,96.45h0a1.19,1.19,0,0,0,.8-.26.7.7,0,0,0,.19-.71,1.52,1.52,0,0,0-.76-.17s-1.14,0-1.21.6C39.81,96.24,40.19,96.45,40.7,96.45Z"/><path class="cls-15" d="M40.45,91.94a.42.42,0,0,0,0-.41.64.64,0,0,0-.61.32.25.25,0,0,0,.07.3A.51.51,0,0,0,40.45,91.94Z"/><path class="cls-15" d="M39.16,219.92a.77.77,0,0,0,.56.11,1.36,1.36,0,0,0,.82-1.49,1.72,1.72,0,0,0-.91-.26,1.22,1.22,0,0,0-.83.27,1.12,1.12,0,0,0-.32.95.78.78,0,0,1,0,.17,1.41,1.41,0,0,1,.59.2Z"/><path class="cls-15" d="M41.53,133.59a3,3,0,0,0-.19.83.73.73,0,0,0,.46-.12.77.77,0,0,0,.17-.65l-.29-.07-.13,0Z"/><path class="cls-15" d="M54.76,25.73l0,.08a1.52,1.52,0,0,0,.42-.08l.31-.09v-.37a2.83,2.83,0,0,0-.53-.05,1.93,1.93,0,0,0-.59.09,1,1,0,0,1,.26.28Z"/><path class="cls-15" d="M41.9,224.4c.52-.45.83-.74.75-1.17a1.6,1.6,0,0,1-.31-.07,1.51,1.51,0,0,1-.81-.65h-.06c-1.12,0-1.2.73-1.21.88,0,.43.31,1,1.27,1.16l.19.05A1,1,0,0,1,41.9,224.4Z"/><path class="cls-15" d="M40.82,68c-1.85.17-1.95,1.43-1.95,1.7a1.74,1.74,0,0,0,.54,1.25,1.87,1.87,0,0,0,.94.48,1.14,1.14,0,0,1,.58-.38,1.31,1.31,0,0,1,.28-.06.92.92,0,0,0,.62-.48,2.14,2.14,0,0,0-.09-2.05A1.46,1.46,0,0,1,40.82,68Z"/><path class="cls-15" d="M36.91,149.26h0l0,.87Z"/><path class="cls-15" d="M37.22,220.87a.67.67,0,0,1-.08-.45,1.08,1.08,0,0,1-.24,0,2.08,2.08,0,0,1-.69,1.34,5.55,5.55,0,0,1,1.19-.25A1.48,1.48,0,0,0,37.22,220.87Z"/><path class="cls-15" d="M36.51,183.44l.24-.09a3,3,0,0,0-.89-1.66l-.28.08c-.36.1-.42.14-.42.23A4.93,4.93,0,0,0,36.51,183.44Z"/><path class="cls-15" d="M40.17,18.21A1.32,1.32,0,0,0,41.42,17c0-.56-.31-1.18-1.38-1.39a4.14,4.14,0,0,1-.59.6c-.46.4-.8.7-.63,1.43A2.32,2.32,0,0,0,40.17,18.21Z"/><path class="cls-15" d="M38.06,208.16a.77.77,0,0,1,.34.22,4.75,4.75,0,0,0,1.41.22H40a1.06,1.06,0,0,1-.39-.32,3.53,3.53,0,0,0-2.33-1.58A1.81,1.81,0,0,0,38.06,208.16Z"/><path class="cls-15" d="M36.45,115.42l-.12-.21c-.25.11-.51.2-.77.29l-.38.14a1.06,1.06,0,0,0,.43.73,3.23,3.23,0,0,0,1.87.58A8.49,8.49,0,0,1,36.45,115.42Z"/><path class="cls-15" d="M54.15,51.52a.82.82,0,0,0-.2-.74.41.41,0,0,0-.24-.06.84.84,0,0,0-.63.26.66.66,0,0,0,0,.78A1.73,1.73,0,0,0,54.15,51.52Z"/><path class="cls-15" d="M48.34,15.51a2,2,0,0,0,.55-.09,4,4,0,0,1,1.5-1.34A5.24,5.24,0,0,1,49,13.43c-.21-.12-.42-.25-.65-.37a1.2,1.2,0,0,0-1.17,1.22A1.21,1.21,0,0,0,48.34,15.51Z"/><path class="cls-15" d="M49.37,11.38a.67.67,0,0,0,.52-.14,2.18,2.18,0,0,1,.8-.32,3.46,3.46,0,0,0-.27-.85,6.09,6.09,0,0,1-.24-.66A2.38,2.38,0,0,1,49,9.75a2.65,2.65,0,0,1-.6-.08,4.08,4.08,0,0,0-.68,0A7.55,7.55,0,0,0,49,11.06Z"/><path class="cls-15" d="M15.26,190.34a1.73,1.73,0,0,0-.82-.81c-.72.28-1.2.6-1.12,1.38a1.77,1.77,0,0,0,.82.15,6.65,6.65,0,0,0,1.07-.11A.65.65,0,0,0,15.26,190.34Z"/><path class="cls-15" d="M47.42,137.53h.08a1.74,1.74,0,0,1,.32,0,1.25,1.25,0,0,1,.26-.12c1.17-.4,1.24-1.58,1.21-2.75,0-.18,0-1,0-1.65v-.45a.85.85,0,0,1-.29-.43,1.47,1.47,0,0,0-.54-.21c-.06.4.13.56.43.81a.74.74,0,0,1,.24.92,1.19,1.19,0,0,1-1,.56,1.9,1.9,0,0,0-1.86,1.38A1.64,1.64,0,0,0,47.42,137.53Z"/><path class="cls-15" d="M50.63,7.52h0c.17-.08.38-.16.61-.24A2.57,2.57,0,0,0,51.87,7a1.39,1.39,0,0,0-.4-1.29.9.9,0,0,0-.57-.2,1.08,1.08,0,0,0-1,.72c-.1.28,0,.45.36.82A3.45,3.45,0,0,1,50.63,7.52Z"/><path class="cls-15" d="M51.14,19.76a.61.61,0,0,0-.13.61,1.3,1.3,0,0,0,1.69-.13.59.59,0,0,0-.24-.41A1.45,1.45,0,0,0,51.14,19.76Z"/><path class="cls-15" d="M43.51,21.29a.43.43,0,0,0,.13-.28h-.13a.49.49,0,0,0-.42.19.18.18,0,0,0,0,.21A.83.83,0,0,0,43.51,21.29Z"/><path class="cls-15" d="M43.17,102.36a1.48,1.48,0,0,1,1-.18c.25-.36.62-.9.47-1.18,0,0-.08-.14-.42-.24h0a1.21,1.21,0,0,1-.85-.22c-.32.33-.29.79-.18,1.54C43.15,102.16,43.16,102.26,43.17,102.36Z"/><path class="cls-15" d="M39.42,200.78a2,2,0,0,0,.81,1.75,4.56,4.56,0,0,0,2.86.73c.49-.41,1-.77,1.58-1.16.32-.23.66-.45,1-.68a2.77,2.77,0,0,1-.87-2.12,5.19,5.19,0,0,0-2.4-.58C41.9,198.72,39.56,198.81,39.42,200.78Z"/><path class="cls-15" d="M45.13,156.16a1.84,1.84,0,0,0,.79-.25,9.86,9.86,0,0,1,1-.39,2.17,2.17,0,0,0-.47-.33,2,2,0,0,1-1-1c-1.09.18-1.23.46-1.16,1.75A2.67,2.67,0,0,0,45.13,156.16Z"/><path class="cls-15" d="M45,96.06a.59.59,0,0,1,0,.15l.13,0a1.69,1.69,0,0,0,0-.42l-.1,0A.79.79,0,0,1,45,96,.57.57,0,0,1,45,96.06Z"/><path class="cls-15" d="M44.41,93.81l0,0,.21-.16-.13-.25a1.51,1.51,0,0,1-.58,0,1.27,1.27,0,0,1-.16.22l.18.09A1.32,1.32,0,0,0,44.41,93.81Z"/><path class="cls-15" d="M20.22,170.23a1.3,1.3,0,0,0-.24,1.2,1.64,1.64,0,0,0,.9-.39,2.3,2.3,0,0,0,.7-1.73A2.88,2.88,0,0,0,20.22,170.23Z"/><path class="cls-15" d="M23.87,48.57A.49.49,0,0,0,24,48c-.24,0-.52,0-.52.22S23.54,48.5,23.87,48.57Z"/><path class="cls-15" d="M21,194.32s0,0,0,.08a3.19,3.19,0,0,0,.84-.33A1.53,1.53,0,0,0,21,194.32Z"/><path class="cls-15" d="M22.25,106.66a.43.43,0,0,0-.14-.48h-.47c-.18.3-.26.46-.21.65C21.76,106.86,22.14,106.86,22.25,106.66Z"/><path class="cls-15" d="M22.92,30.9a.31.31,0,0,0-.17-.2l-.13.15a.74.74,0,0,0-.18.23l.1,0S22.65,31.12,22.92,30.9Z"/><path class="cls-15" d="M24.3,63.67h-.16a2.55,2.55,0,0,0-1.85.61.48.48,0,0,0-.07.11c.36-.15.74-.27,1.11-.39S24,63.79,24.3,63.67Z"/><path class="cls-15" d="M23.28,78.1a.38.38,0,0,0,.3.41.75.75,0,0,0,.69-.61c0-.25-.14-.47-.46-.57A.93.93,0,0,0,23.28,78.1Z"/><path class="cls-15" d="M21,120a3.78,3.78,0,0,0,1.51-.18.9.9,0,0,1,.25-1,.69.69,0,0,0,.2-.67.84.84,0,0,0-.82-.52,1.91,1.91,0,0,0-1.54.88A1.11,1.11,0,0,0,21,120Z"/><path class="cls-15" d="M20.52,17.27l-.92-.16a2.22,2.22,0,0,0,0,.41l.1,0C20,17.46,20.28,17.36,20.52,17.27Z"/><path class="cls-15" d="M19.79,109l-.29.17-.21.12a.72.72,0,0,1,.09.27,1.34,1.34,0,0,0,.51-.11A.67.67,0,0,1,19.79,109Z"/><path class="cls-15" d="M35.79,94.64a3.94,3.94,0,0,0,.53,0h.19l.15-.07a2.87,2.87,0,0,0,.46-.26c.14-.09.31-.2.52-.31a5.61,5.61,0,0,1,0-.88c0-.41,0-.6-.14-.78a1.52,1.52,0,0,0-1.2-.68,2.26,2.26,0,0,0-2,1.8C34.21,93.73,34.14,94.48,35.79,94.64Z"/><path class="cls-15" d="M19.53,70.88a8.69,8.69,0,0,1,1.61-.13.69.69,0,0,0,0-.55.42.42,0,0,0-.12-.14l-.68.27a3.2,3.2,0,0,0-1.16.58l0,0Z"/><path class="cls-15" d="M18.65,80.77l.11.09a2.74,2.74,0,0,0,1.91-.4,1.22,1.22,0,0,0-.42-1,1.3,1.3,0,0,0-1.64.28.78.78,0,0,0,0,.84A.91.91,0,0,1,18.65,80.77Z"/><path class="cls-15" d="M31.42,112.5a.31.31,0,0,0-.17-.19.81.81,0,0,1-.21.39l.12,0a.68.68,0,0,0,.26-.17Z"/><path class="cls-15" d="M28.37,140.17a2.31,2.31,0,0,1-.46.23,2,2,0,0,1,0,.27.23.23,0,0,0,0,0,4,4,0,0,0,.72-.33l.17-.09,0,0a1.38,1.38,0,0,1-.14-.21A.93.93,0,0,0,28.37,140.17Z"/><path class="cls-15" d="M30.14,131.65l-.15-.09a1.21,1.21,0,0,1-.69.39c-.14,0-.56.11-.58.51a.65.65,0,0,0,.47.64,1.18,1.18,0,0,1,.64.38,1.09,1.09,0,0,0,.67-1A1,1,0,0,0,30.14,131.65Z"/><path class="cls-15" d="M31.29,39.84l.29.43a1.94,1.94,0,0,0,1.79-.53.93.93,0,0,0,0-1.16c-.09-.12-.37-.47-1.3-.47a1.22,1.22,0,0,1-1.22-.71,1,1,0,0,0-.35-.46l-.25-.25h-1a2,2,0,0,1-.19.59,1.22,1.22,0,0,0-.15.52A4,4,0,0,1,31.29,39.84Z"/><path class="cls-15" d="M32.47,8.73a1.7,1.7,0,0,0,1.51,0,1,1,0,0,0,.31-.92,1.58,1.58,0,0,0-.75-.17,1.43,1.43,0,0,0-1,.33,1.1,1.1,0,0,1-.32.22.8.8,0,0,1,.13.31A.67.67,0,0,0,32.47,8.73Z"/><path class="cls-15" d="M30.79,17v0a2.12,2.12,0,0,1,.38.11,1.61,1.61,0,0,0,.3-1,2,2,0,0,0-.75.13,3.12,3.12,0,0,1,.06.58C30.78,16.88,30.78,16.93,30.79,17Z"/><path class="cls-15" d="M25.71,7.35a.31.31,0,0,0,0-.11.37.37,0,0,0-.13-.17,1.18,1.18,0,0,1-.36.23.33.33,0,0,0,0,.16A1.56,1.56,0,0,1,25.71,7.35Z"/><path class="cls-15" d="M29.48,112.95a3.1,3.1,0,0,0-3.47.85,1.83,1.83,0,0,0,0,2.33,3.19,3.19,0,0,0,3.9-.39,2,2,0,0,0,.42-2,.68.68,0,0,1,.19-.72A1.57,1.57,0,0,1,29.48,112.95Z"/><path class="cls-15" d="M27,108.77a1.52,1.52,0,0,0,.62.51,2.42,2.42,0,0,0,1.51-.46,1.78,1.78,0,0,0,.38-1.64,1.78,1.78,0,0,0-1.17-.53,4.52,4.52,0,0,0-2.38,1.29l0,0A2.62,2.62,0,0,1,27,108.77Z"/><path class="cls-15" d="M27.25,138a1.64,1.64,0,0,0,1-.32,2,2,0,0,0,.64-1.8,4.21,4.21,0,0,0-2-.43,6.38,6.38,0,0,0-2.11.34,1.63,1.63,0,0,1-.32.09A3,3,0,0,0,27.25,138Z"/><path class="cls-15" d="M28.14,74a.87.87,0,0,0,.21-1,.82.82,0,0,0-.81-.56,1.71,1.71,0,0,0-1.48.92c-.16.43.08.82.74,1.15A2,2,0,0,0,28.14,74Z"/><path class="cls-15" d="M29.4,81.47a1.1,1.1,0,0,1,.47-.35l0,0a1.07,1.07,0,0,1-1-.78v-.08a1.22,1.22,0,0,0-.19.62.53.53,0,0,0,.21.46A1.17,1.17,0,0,0,29.4,81.47Z"/><path class="cls-15" d="M47.07,19.68c.15-.19.16-.37.11-.45s-.06-.09-.29-.12a.49.49,0,0,0,0,.48A.33.33,0,0,0,47.07,19.68Z"/><path class="cls-15" d="M59.06,209.63a.92.92,0,0,0,.2-.78l-.84-.12-.61-.09a1.91,1.91,0,0,0,.35,1.14A1.33,1.33,0,0,0,59.06,209.63Z"/><path class="cls-15" d="M61.44,201.15h-.21a2,2,0,0,0-1.9.85,1.22,1.22,0,0,1-.91.48c-.55.05-1.83.24-1.8.77s1.1,1.24,1.85,1.24a.52.52,0,0,0,.38-.11c.1-.1.33-.41.18-1.27-.08-.44.3-.85.88-1C61,201.94,61.33,201.56,61.44,201.15Z"/><path class="cls-15" d="M58.7,112.74l.08-.13,0-.1a.55.55,0,0,0-.52-.09.45.45,0,0,0-.11.39,1.68,1.68,0,0,0,.53.06Z"/><path class="cls-15" d="M58.58,216.88a4,4,0,0,0,1.22-.17,1.68,1.68,0,0,0-.34-1l0-.08a1.89,1.89,0,0,0-1.4.94l-.29.35C58,216.92,58.29,216.9,58.58,216.88Z"/><path class="cls-15" d="M58.52,25a.38.38,0,0,0-.39-.21.35.35,0,0,0,.11.22.55.55,0,0,0,.27.1A.13.13,0,0,0,58.52,25Z"/><path class="cls-15" d="M59.63,195.64a5,5,0,0,1-.75.26c-.6.17-.75.26-.77.45a5.76,5.76,0,0,1,1.6,1.45,4.09,4.09,0,0,0,1,1l.07-.09c-1.31-.56-1.26-1.64-1.22-2.52C59.63,196,59.63,195.81,59.63,195.64Z"/><path class="cls-15" d="M65.17,80.39a.87.87,0,0,0-.22-.77.78.78,0,0,0-.52-.14,2.29,2.29,0,0,0-1.7.78.49.49,0,0,0,0,.67,3.05,3.05,0,0,0,1.15.26A1.17,1.17,0,0,0,65.17,80.39Z"/><path class="cls-15" d="M60.89,112.68a.68.68,0,0,1,.09.23,1.35,1.35,0,0,0,.49.8,2,2,0,0,0,2,.16,1.56,1.56,0,0,0-.47-1.4,1.25,1.25,0,0,0-.81-.27A2.25,2.25,0,0,0,60.89,112.68Z"/><path class="cls-15" d="M56.53,97.09a1.45,1.45,0,0,0-.19,1.72,1.89,1.89,0,0,0,2.74-.21,1.54,1.54,0,0,0,.23-1.82A2.18,2.18,0,0,0,56.53,97.09Z"/><path class="cls-15" d="M63.13,189.48l1.32.08a1,1,0,0,1-.17-.18l-.1-.14c-.2-.28-.56-.77-.8-.77a1.08,1.08,0,0,0-.46.17,1.17,1.17,0,0,0,.14.66Z"/><path class="cls-15" d="M62.53,125.45l-.12,0a.55.55,0,0,0,0,.85,1,1,0,0,0,.72-.33.72.72,0,0,1-.22-.34A1.59,1.59,0,0,1,62.53,125.45Z"/><path class="cls-15" d="M72.17,33a1.41,1.41,0,0,1,.65.16.6.6,0,0,1,0-.16,1.25,1.25,0,0,0-.21-1.14,1,1,0,0,0-.88,0c0,.08,0,.16,0,.24a2.27,2.27,0,0,0,.07.83A1.68,1.68,0,0,0,72.17,33Z"/><path class="cls-15" d="M72.64,48.09a1.58,1.58,0,0,0-.07-1.65,1.1,1.1,0,0,0-1.07-.13,1.48,1.48,0,0,1-.36.06,1.08,1.08,0,0,1-.28.21l-.25.14v1A2.91,2.91,0,0,0,72.64,48.09Z"/><path class="cls-15" d="M75.78,129.43l-.1.08.32.15.21.1a1.55,1.55,0,0,1,.23-.15,1.1,1.1,0,0,0-.3-.47A1.25,1.25,0,0,1,75.78,129.43Z"/><path class="cls-15" d="M73.9,197.46a2.76,2.76,0,0,1-.21.31,2.88,2.88,0,0,1,.58-.09A2.57,2.57,0,0,0,73.9,197.46Z"/><path class="cls-15" d="M72.16,209.35A1.42,1.42,0,0,0,71,208.06a1.75,1.75,0,0,0-1.19.84,3.59,3.59,0,0,1,.64,1.28,4.08,4.08,0,0,0,.4.94A1.56,1.56,0,0,0,72.16,209.35Z"/><path class="cls-15" d="M75.73,127.09c.06-.27.12-.46.16-.6.1-.32.12-.38-.11-.77a1.06,1.06,0,0,1-.19-.13h-.13a.75.75,0,0,0-.72.76C74.74,126.51,74.82,127,75.73,127.09Z"/><path class="cls-15" d="M70.87,222c-.37.14-.49.2-.53.29.27.48.67,1,1.29.84,0-.16,0-.33,0-.5a1.85,1.85,0,0,0-.12-.89A3.53,3.53,0,0,1,70.87,222Z"/><path class="cls-15" d="M72,50.76a3.73,3.73,0,0,0-.8,0,.79.79,0,0,0-.05.3.87.87,0,0,0,0,.28,1.28,1.28,0,0,0,.7-.19A.43.43,0,0,0,72,50.76Z"/><path class="cls-15" d="M63.32,48a2.21,2.21,0,0,0,1.56.77A2,2,0,0,0,65.41,47a6.09,6.09,0,0,1-2.27-.12c-.87-.15-1.7-.28-2,0l.06.09A3.47,3.47,0,0,1,63.32,48Z"/><path class="cls-15" d="M57.69,62.31c-.2.27-.4.54-.56.81a7,7,0,0,1,1.09.94,3.65,3.65,0,0,0,1.9,1.22,1,1,0,0,1,.86.84v.82l.23.06a3.43,3.43,0,0,1,1.92,1,.7.7,0,0,1,.13.28,8.61,8.61,0,0,1,.14,1.16,2.75,2.75,0,0,0,.65,2,4.43,4.43,0,0,1,1.18-.36l.46-.1a6.42,6.42,0,0,1,.09-1.6,4.73,4.73,0,0,0,.06-1.43c-1.34.15-1.81-.86-2.14-1.66-.21-.5-.47-1.13-.9-1.29a.89.89,0,0,1-.66-.78.93.93,0,0,1,.59-.79,5,5,0,0,1-.35-1,4.82,4.82,0,0,0-.39-1,9.42,9.42,0,0,1-1.87-.23,8.29,8.29,0,0,0-1.56-.2A7.74,7.74,0,0,1,57.69,62.31Z"/><path class="cls-15" d="M69,203.73c0,.14.06.25.29.35a.82.82,0,0,0,.72-.54.48.48,0,0,0-.37-.24A.73.73,0,0,0,69,203.73Z"/><path class="cls-15" d="M70.4,54.28a.71.71,0,0,0,0-.42,3.49,3.49,0,0,0-.71.83.69.69,0,0,1-.14.2.68.68,0,0,1,.07.17.43.43,0,0,0,.07.16A1.3,1.3,0,0,0,70.4,54.28Z"/><path class="cls-15" d="M52.29,26.1a.38.38,0,0,0,.12-.25,1.38,1.38,0,0,0-.41,0,.87.87,0,0,1,.17.36Z"/><path class="cls-15" d="M46,194.33a1.54,1.54,0,0,0-1,.44,1,1,0,0,0-.35,1.07A2.37,2.37,0,0,0,46,197.16c1.5-.28,1.64-1,1.58-1.45A1.71,1.71,0,0,0,46,194.33Z"/><polygon class="cls-15" points="51.37 180.9 51.37 180.03 51.32 180.03 51.37 180.9"/><path class="cls-15" d="M54.06,166.81c2-1,1.42-3.59,1-4.94a3.4,3.4,0,0,0-2.56,2.7A1.84,1.84,0,0,0,54.06,166.81Z"/><path class="cls-15" d="M48.47,139l-.17.09a1.15,1.15,0,0,0-.8,1.07,1.87,1.87,0,0,0,1.21,1.68,2.25,2.25,0,0,0,1.21-.94,3,3,0,0,1,.57-.67l-.29-.26A2.74,2.74,0,0,0,48.47,139Z"/><path class="cls-15" d="M49.83,194a.35.35,0,0,0-.12.27.47.47,0,0,0,.18.33c0-.07,0-.13,0-.19s0-.22,0-.26l-.07-.09Z"/><path class="cls-15" d="M54.16,216.21a1.23,1.23,0,0,1,.37.2,5.21,5.21,0,0,1,.07-1.07c0-.16,0-.31.06-.47a1.87,1.87,0,0,0-1.08.5,2.58,2.58,0,0,1-.75.49,2.21,2.21,0,0,0,.61.16A6.88,6.88,0,0,1,54.16,216.21Z"/><path class="cls-15" d="M54.42,176.37a.9.9,0,0,0-.3.73,1.5,1.5,0,0,0,.71.18.89.89,0,0,0,.63-.21.73.73,0,0,0,.13-.76A1,1,0,0,0,54.42,176.37Z"/><path class="cls-15" d="M54.27,185.48a.93.93,0,0,1,.55-.55,1.3,1.3,0,0,1,.29-.09,2.32,2.32,0,0,0-1-1.51,4,4,0,0,0-1.71-.44,2.31,2.31,0,0,0-2.32,2.34A1.73,1.73,0,0,0,52,187a5.28,5.28,0,0,0,1.49-.25A2.78,2.78,0,0,0,54.27,185.48Z"/><path class="cls-15" d="M58.06,17.53h0a8.61,8.61,0,0,0,.92-.06,1.94,1.94,0,0,0-.67-1.65,1.86,1.86,0,0,0-2.44.09,1.51,1.51,0,0,0,.56,1.24A2.76,2.76,0,0,0,58.06,17.53Z"/><path class="cls-15" d="M53.19,200.94c.38-.05.57-.2.62-.5a1.62,1.62,0,0,0-.38-.33C53,200.62,53,200.81,53.19,200.94Z"/><path class="cls-15" d="M51.36,28.94a1.08,1.08,0,0,0-.59.11c0,.46.21.71,1,.72.24-.31.31-.46.16-.74A1.91,1.91,0,0,0,51.36,28.94Z"/><path class="cls-15" d="M54.8,217.23a.85.85,0,0,1-.31.39,2.19,2.19,0,0,0-1,1.63,1.15,1.15,0,0,0,.66,1,2.43,2.43,0,0,0,1-.09,1.62,1.62,0,0,1,.43-.06,1.36,1.36,0,0,1,.95.35.69.69,0,0,1,0,1.05,1.65,1.65,0,0,0-.48,1.43c0,.14.18.88.88.88a2,2,0,0,0,.82-.23,1.27,1.27,0,0,1,.3-.1.67.67,0,0,1,0-.38,1.33,1.33,0,0,0,0-1.34.72.72,0,0,1,.22-1,1.53,1.53,0,0,1,1.31-.19l.26.09a1.72,1.72,0,0,0,.39.09,1.6,1.6,0,0,0-.7-.29c-.52-.15-1.34-.38-1.5-1.06a1.56,1.56,0,0,1-.85-.12.88.88,0,0,1-.58-.73v-.75s0-.06,0-.09l-.18.07a1.46,1.46,0,0,1-1.41-.25A1.88,1.88,0,0,1,54.8,217.23Z"/><path class="cls-15" d="M52.66,179.35a3.85,3.85,0,0,1-.71-.84,4.21,4.21,0,0,0-.41-.53,6.09,6.09,0,0,1-.1.76c-.12.67-.15,1,.11,1.29C52.18,180,52.52,179.79,52.66,179.35Z"/><path class="cls-15" d="M51.38,95a5.42,5.42,0,0,0,.82.06.79.79,0,0,1-.08-.48h-.85A1,1,0,0,1,51.38,95Z"/><path class="cls-15" d="M54.66,8.74c0-.08,0-.17,0-.23a1.66,1.66,0,0,0,0-.28h-.23a.33.33,0,0,0,0,.29A.77.77,0,0,0,54.66,8.74Z"/><path class="cls-15" d="M52.65,154.71c-.06-.21-.16-.41-.38-.41a2.17,2.17,0,0,0-1,.38C51.73,154.72,52.21,154.72,52.65,154.71Z"/><path class="cls-15" d="M51.31,78.59a.52.52,0,0,0,.25,0v-.31Z"/><path class="cls-15" d="M50.55,76.15a1.65,1.65,0,0,0,.76.33l.24.07a1.3,1.3,0,0,1,.28,0h.11l.38,0a1.16,1.16,0,0,1,1.3.73l0,.12a.55.55,0,0,1,0,.16.62.62,0,0,1,.12.14c.09.12.18.23.27.34a2.82,2.82,0,0,1,.58.94H55l.11-.09c.21-.16.35-.27.4-.42A4.12,4.12,0,0,0,53.72,77a.85.85,0,0,1-.65-.92l0-.13a6,6,0,0,1,.36-1.26,3.19,3.19,0,0,0-1.89-.86,1.47,1.47,0,0,0-1.43,1.46A1.16,1.16,0,0,0,50.55,76.15Z"/><path class="cls-15" d="M50.53,67.14a1,1,0,0,0,1.29.17.84.84,0,0,1,.52-.72l.12-.07,0-.11s-.05,0-.09,0a1,1,0,0,1-.37-.34l-.52,0a2.25,2.25,0,0,0-1.06.2A.82.82,0,0,0,50.53,67.14Z"/><path class="cls-15" d="M29,159.42a.77.77,0,0,1-.46-.87A.89.89,0,0,1,29,158a1.91,1.91,0,0,0-1.72-.91,2.81,2.81,0,0,0-2.23,1.06,1.37,1.37,0,0,0,.2,1.77h3.21a2.63,2.63,0,0,1,.45-.43Z"/><path class="cls-15" d="M27.7,186.11a2.71,2.71,0,0,0-.25-.43l-.06,0a2,2,0,0,1-1,.22h-.29a2.42,2.42,0,0,0,.76,1.45.88.88,0,0,0,.92.12.66.66,0,0,1-.06-.19.72.72,0,0,1,.26-.64l.11-.1a.92.92,0,0,1-.36-.35Z"/><path class="cls-15" d="M26.58,205.69a2.57,2.57,0,0,0-.66-1.49,4.67,4.67,0,0,0-2.2-.62c-2.24,0-3.75,2.15-4.11,4.28l1,.47a9.53,9.53,0,0,0,4.26,1.27l.63,0a3.24,3.24,0,0,0,1-1.67,5.51,5.51,0,0,1,.7-1.51A.92.92,0,0,1,26.58,205.69Z"/><path class="cls-15" d="M25,197.36l0,.07c-.09.16-.15.26-.12.39l.11-.08.21-.15A1.09,1.09,0,0,0,25,197.36Z"/><path class="cls-15" d="M26.2,177.45a1.26,1.26,0,0,0,.33-.06,1.94,1.94,0,0,0,.14-1l-.5.12a5.57,5.57,0,0,0-.88.25,3.08,3.08,0,0,1,.51.4C26,177.43,26.1,177.45,26.2,177.45Z"/><path class="cls-15" d="M20.75,213.14l-.06.1a1,1,0,0,1-.5.43,1.35,1.35,0,0,1,.4.18.8.8,0,0,1,.39.67c0,.21,0,.83.2,1a.31.31,0,0,0,.19.07l.07-.19c.31-.78.63-1.57.27-2A1.6,1.6,0,0,0,20.75,213.14Z"/><path class="cls-15" d="M2.85,197.35a2.32,2.32,0,0,0-1.1,1.5c.38-.17.74-.32,1.11-.46A1.73,1.73,0,0,0,2.85,197.35Z"/><path class="cls-15" d="M2.7,183.57a6.22,6.22,0,0,1-.83-.47,11.39,11.39,0,0,1-.08,2.26c.24,0,.46,0,.68,0a1.86,1.86,0,0,0,1.25-.27C3.95,184.17,3.45,183.93,2.7,183.57Z"/><path class="cls-15" d="M5.34,79.32a7.27,7.27,0,0,1-1.8-.74,4.13,4.13,0,0,0-1.16-.48s-.17.08-.3.44A4.8,4.8,0,0,1,3.4,79.68a3,3,0,0,0,1.45,1.08A2.07,2.07,0,0,0,5.34,79.32Z"/><path class="cls-15" d="M7.62,219.05A10.5,10.5,0,0,1,7.56,218a2.44,2.44,0,0,0-.35-1.56l-.13.06c-1.34.62-2.48,1.15-2.75,2.61a8,8,0,0,0,2,.37A1.8,1.8,0,0,0,7.62,219.05Z"/><path class="cls-15" d="M68.33,179.24a.61.61,0,0,0,.06-.14,3.19,3.19,0,0,1-1.7-.76,2.85,2.85,0,0,0-.72-.44.66.66,0,0,1,0,.34.68.68,0,0,1-.22.34l.06.1a.47.47,0,0,1,0,.09.94.94,0,0,0,.26-.06,1.41,1.41,0,0,1,1.54.37.76.76,0,0,1-.4,1.16l-.62.26c-.9.35-1.43.57-1,1.56h0a2.11,2.11,0,0,1,1.13.34l.06,0c.12-.21.27-.42.41-.62a2.63,2.63,0,0,0,.7-1.8A.77.77,0,0,1,68.33,179.24Z"/><path class="cls-15" d="M68.05,199.41c-.31.25-.49.4-.55.64a1.54,1.54,0,0,0,1-.07,1.93,1.93,0,0,0-.35-.68Z"/><path class="cls-15" d="M69.48,44.6h.25a1.45,1.45,0,0,1,.63.17.68.68,0,0,0,.15-.48,1.08,1.08,0,0,0-1.34-.94c-.47.31-.65.72-.47,1.11a1,1,0,0,0,.24.31A1.44,1.44,0,0,1,69.48,44.6Z"/><path class="cls-15" d="M76.28,75.12c0,.35.38.44.59.47a.55.55,0,0,0,.35-.09.88.88,0,0,0,.16-.73,1,1,0,0,0-.48-.16A.63.63,0,0,0,76.28,75.12Z"/><path class="cls-15" d="M77.63,187.67a1.33,1.33,0,0,0,.24-.47,1.94,1.94,0,0,0-.47,0,.94.94,0,0,0,.11.24Z"/><path class="cls-15" d="M32.9,217.54c0,.71.44,1,1,1.51l.3.25a2.17,2.17,0,0,0,.65-.31.76.76,0,0,1,.15-.09.68.68,0,0,1,.08-.13.67.67,0,0,0,.14-.55C35.09,217.49,34,217.11,32.9,217.54Z"/><path class="cls-15" d="M1.64,211.65a1.14,1.14,0,0,1-1.13-.73.67.67,0,0,0-.68-.6,1,1,0,0,0-.75.34.85.85,0,0,0-.12.89h0a1.51,1.51,0,0,1,.44-.06,1.46,1.46,0,0,1,.66.15.83.83,0,0,1,.52.72,1.2,1.2,0,0,0,.41,1,2.7,2.7,0,0,0,1.6.39A1.29,1.29,0,0,0,3,212.25C2.77,211.86,2.32,211.66,1.64,211.65Z"/><path class="cls-15" d="M7.16,175.92a3.43,3.43,0,0,0-.09.78,7.82,7.82,0,0,1,2,.42,1.35,1.35,0,0,1,.29.13h.08c.76-.73,1.05-1.51.74-2s-.91-.51-1.41-.51a5.1,5.1,0,0,0-.74.06,1.13,1.13,0,0,1-.31.22,3.26,3.26,0,0,1-.47.19A2.86,2.86,0,0,1,7.16,175.92Z"/><path class="cls-15" d="M74.21,181.72l.1.08h0c.17-.1.23-.14.25-.22a1.54,1.54,0,0,0-.3-.06A1.3,1.3,0,0,1,74.21,181.72Z"/><path class="cls-15" d="M7.49,161.68a1.36,1.36,0,0,0,.66,1.55,2.37,2.37,0,0,1,1.16-.56,2,2,0,0,0,.54-.19,1.31,1.31,0,0,1,.09-1.43,2.51,2.51,0,0,0-1.12-.31A1.34,1.34,0,0,0,7.49,161.68Z"/><path class="cls-15" d="M11.46,193.1h0a3.12,3.12,0,0,1-1.13,1,1.7,1.7,0,0,1,.26.62,1.35,1.35,0,0,0,.16.39,3.24,3.24,0,0,0,.53,0c.56,0,.72-.16.8-.31C12.3,194.36,11.9,193.53,11.46,193.1Z"/><path class="cls-15" d="M10.11,100.77a.9.9,0,0,0,0,1,1.85,1.85,0,0,1,.4.15,1.16,1.16,0,0,0,.78-.17c.08-.06.33-.25.36-1A1,1,0,0,0,10.11,100.77Z"/><path class="cls-15" d="M11.51,56.36a.63.63,0,0,0,.2-.59l-.17-.08a1.12,1.12,0,0,1-.51-.33l0,0a.93.93,0,0,0-.39.73c0,.22.1.47.53.58A1,1,0,0,1,11.51,56.36Z"/><path class="cls-15" d="M4.8,202.09a1.49,1.49,0,0,0,.48,1,1.66,1.66,0,0,0,.74.41,1,1,0,0,1,.44-.33c.4-.81.51-1.11.17-1.51l-.33-.06a1.23,1.23,0,0,1-.8-.42A.83.83,0,0,0,4.8,202.09Z"/><path class="cls-15" d="M7,209.92a.3.3,0,0,0,0-.23.54.54,0,0,0-.21.61A.55.55,0,0,0,7,209.92Z"/><path class="cls-15" d="M11.28,213.61a.42.42,0,0,0,.29.11.77.77,0,0,0,.07-.35,1.31,1.31,0,0,0-.41-.06A.34.34,0,0,0,11.28,213.61Z"/><path class="cls-15" d="M4.91,85.49a1.89,1.89,0,0,0-.12,1.4H5.5a1.26,1.26,0,0,0-.13-1.21A.74.74,0,0,0,4.91,85.49Z"/><path class="cls-15" d="M5.29,17.08,5.58,17c-.14-.11-.26-.22-.36-.32s-.34-.31-.44-.31a.72.72,0,0,0-.22,0,2.19,2.19,0,0,0,.21.9A1.35,1.35,0,0,1,5.29,17.08Z"/><path class="cls-15" d="M12.25,17.36c.61-1.72.76-2.37-.29-3a.78.78,0,0,1-.43-.77.25.25,0,0,1,0,0c-.3.21-.63.39-.95.58-1.15.65-2.06,1.17-1.82,2.65A4.11,4.11,0,0,0,12.25,17.36Z"/><path class="cls-15" d="M7.15,152.46c.35-.11.45-.15.48-.21-.13-.24-.45-.37-1.06-.56l-.48-.16a.59.59,0,0,0-.09.28,1.62,1.62,0,0,0,.37,1A3,3,0,0,1,7.15,152.46Z"/><path class="cls-15" d="M8.05,5.46A.92.92,0,0,0,9,4.58a.91.91,0,0,0-.91-.94,1.53,1.53,0,0,0-.84.8,1,1,0,0,0,.26.92A1.91,1.91,0,0,0,8.05,5.46Z"/><path class="cls-15" d="M19.08,174.2a.43.43,0,0,0-.2-.14,1.11,1.11,0,0,1-.74.5.37.37,0,0,0,.11.24A1.27,1.27,0,0,0,19,175,.77.77,0,0,0,19.08,174.2Z"/><path class="cls-15" d="M18.16,132.69a1.58,1.58,0,0,1,.75-.22c.15-.34.13-.56,0-.67a.55.55,0,0,0-.4-.13.89.89,0,0,0-.73.31c-.11.18,0,.45.29.73Z"/><path class="cls-15" d="M11.23,204.91l-.14-.06L11,205a1,1,0,0,0-.25.75,3.76,3.76,0,0,0,.77,0,2,2,0,0,1,.36-.39C11.84,205.19,11.67,205.09,11.23,204.91Z"/><path class="cls-15" d="M17.13,199.18a1.48,1.48,0,0,0-.38,1.2,2.72,2.72,0,0,0,1.31.56c.48-.18,1-.49.82-.95C18.68,199.32,17.58,198.84,17.13,199.18Z"/><path class="cls-15" d="M19.15,213.73a1.1,1.1,0,0,1-.6-.4,1.3,1.3,0,0,0-1.12-.47,3,3,0,0,0-1.2.27,3,3,0,0,1,.47.62,2.14,2.14,0,0,0,.33.45,2.63,2.63,0,0,0,1.59-.26C18.8,213.86,19,213.79,19.15,213.73Z"/><path class="cls-15" d="M16,93a1.49,1.49,0,0,1-.44-.11,1.34,1.34,0,0,1-.38.17,1.77,1.77,0,0,0-1.29,1.48c0,.3,0,1.27,1.52,1.41a2.24,2.24,0,0,0,1.86-.7,1.43,1.43,0,0,0,.12-1.73A3.76,3.76,0,0,0,16,93Z"/><path class="cls-15" d="M16.13,81.45l.35.11.16-.1,0,0a1.94,1.94,0,0,0-.53-.23,4.93,4.93,0,0,1-.5-.2,1,1,0,0,1-.49-.42l-.25-.06a2.93,2.93,0,0,0-.93-.11,1,1,0,0,0-.31.72,5.83,5.83,0,0,1,.7,0A5.68,5.68,0,0,1,16.13,81.45Z"/><path class="cls-15" d="M16.89,83.47l-.15.41c-.07.19-.14.37-.2.56a1.72,1.72,0,0,0,1,.19,2.44,2.44,0,0,0,0-.76s0-.09,0-.12a2.41,2.41,0,0,1-.61-.25Z"/><path class="cls-15" d="M14.26,49.85h-.05l.05.87Z"/><path class="cls-15" d="M13.11,121.4a.66.66,0,0,0,.38-.1.27.27,0,0,0,.09-.21.66.66,0,0,0-.64-.41.73.73,0,0,1-.26.64A1.09,1.09,0,0,0,13.11,121.4Z"/><path class="cls-15" d="M17.12,63.77a2.63,2.63,0,0,0,0-1.76,4.32,4.32,0,0,1-1.52-.57A5.47,5.47,0,0,1,15,62.6c-.15.23-.3.47-.41.68l.18.09A2.9,2.9,0,0,0,17.12,63.77Z"/><path class="cls-15" d="M16.84,5.06a.85.85,0,0,0-.17-1,1.74,1.74,0,0,0-.85.2l-.22.09a1.13,1.13,0,0,0,.32,1A.69.69,0,0,0,16.84,5.06Z"/><path class="cls-15" d="M-.1,113.64a.72.72,0,0,1,.07-.32,3.44,3.44,0,0,0-.12-3.8c-.83-.93-2.5-1.08-4.59-.47a2.31,2.31,0,0,0-.3,3.07,3.66,3.66,0,0,0,3,1.84,2.76,2.76,0,0,0,1.1-.22A1.53,1.53,0,0,1-.1,113.64Z"/><path class="cls-15" d="M2,23.88c.2-.19.38-.46.23-.71a.8.8,0,0,0-.68-.35.65.65,0,0,0-.63.47,4.45,4.45,0,0,1,.41.27A1.62,1.62,0,0,0,2,23.88Z"/><path class="cls-15" d="M-2.26,102.41a2.05,2.05,0,0,0,1.3.32l.22,0a1.36,1.36,0,0,1,1,.37.8.8,0,0,1,.15.22A3.84,3.84,0,0,0,1,103a2.88,2.88,0,0,1,.79-.28.82.82,0,0,1-.13-.25,1.49,1.49,0,0,1-1.07.09,1,1,0,0,1-.7-.64,2.2,2.2,0,0,0-.52-.8H-2.2c-.19.3-.17.46-.11.9C-2.29,102.17-2.28,102.28-2.26,102.41Z"/><path class="cls-15" d="M-1,92.38l.19.11a1.53,1.53,0,0,0,.68.26l.16-.15A1.3,1.3,0,0,1-.57,92,1.75,1.75,0,0,0-1,92.38Z"/><path class="cls-15" d="M1.12,69.85v0c.25-.1.3-.13.3-.21l-.2-.09A.67.67,0,0,1,1.12,69.85Z"/><path class="cls-15" d="M-.31,19l.12-.16.45-.66a1.05,1.05,0,0,0-1.08.59C-.8,18.88-.72,18.94-.31,19Z"/><path class="cls-15" d="M100,206.14a4.81,4.81,0,0,1,.32-.4,2.37,2.37,0,0,0,.3-.37,1.7,1.7,0,0,0-.86.22.57.57,0,0,0-.22.33l.26.12Z"/><path class="cls-15" d="M158.23,204.57a4,4,0,0,1,1.08-.18,2,2,0,0,0-.67-1.46,1.9,1.9,0,0,0-2.32,0,4.62,4.62,0,0,1,.27.83,1.83,1.83,0,0,0,.41,1A3.22,3.22,0,0,0,158.23,204.57Z"/><path class="cls-15" d="M158.85,212.25a.34.34,0,0,0,0-.26.36.36,0,0,0-.16-.08l-.22.1a.2.2,0,0,0,.06.14A.72.72,0,0,0,158.85,212.25Z"/><path class="cls-15" d="M155.1,212.81c.11.16.16.24.22.27a1.28,1.28,0,0,1,.41-.2l.13,0v-.47a1.94,1.94,0,0,0-1,.12l.09.09Z"/><path class="cls-15" d="M154.82,195.34a1.79,1.79,0,0,0,0,.55l.26.06a2.19,2.19,0,0,0,0-.61Z"/><path class="cls-15" d="M162.52,61.13l-.05-.1a.55.55,0,0,0-.51-.09.44.44,0,0,0-.12.39,1.65,1.65,0,0,0,.52.06.62.62,0,0,0,.08-.12Z"/><path class="cls-15" d="M155.05,25l.24.06a1.26,1.26,0,0,1,.27,0l.49,0a1.17,1.17,0,0,1,1.3.73l0,.12a.58.58,0,0,1,0,.15.62.62,0,0,1,.12.14,4.33,4.33,0,0,0,.27.35,2.77,2.77,0,0,1,.58.94h.35l.11-.08c.22-.17.35-.28.4-.43a4.05,4.05,0,0,0-1.8-1.47.85.85,0,0,1-.66-.92l0-.14a5.89,5.89,0,0,1,.36-1.26,3.16,3.16,0,0,0-1.89-.86,1.47,1.47,0,0,0-1.43,1.46,1.16,1.16,0,0,0,.41.9A1.66,1.66,0,0,0,155.05,25Z"/><path class="cls-15" d="M152,87.65a1.16,1.16,0,0,0-.79,1.08,1.86,1.86,0,0,0,1.21,1.68,2.29,2.29,0,0,0,1.21-.94,3.18,3.18,0,0,1,.57-.67l-.28-.27a2.77,2.77,0,0,0-1.75-1Z"/><path class="cls-15" d="M155.56,15.83a.82.82,0,0,1,.51-.72l.12-.07a.67.67,0,0,1,0-.11s-.06,0-.09,0a1,1,0,0,1-.37-.34l-.52,0a2.28,2.28,0,0,0-1.06.2.82.82,0,0,0,.14.88A1.06,1.06,0,0,0,155.56,15.83Z"/><path class="cls-15" d="M160.32,181.34a1.41,1.41,0,0,1-.43.17.71.71,0,0,1,0,.36,1.17,1.17,0,0,0,.23,1.09,2.27,2.27,0,0,0,2.49.94c.44-.37,1.06-1.08.6-1.84A2.41,2.41,0,0,0,160.32,181.34Z"/><path class="cls-15" d="M163.25,121.5a1.51,1.51,0,0,1-.68-.17,1.41,1.41,0,0,1-1-.25l-.12-.08a1.24,1.24,0,0,0-1.05,1.57c.17.73.79,1.32,1.19,1.32a.54.54,0,0,0,.35-.17,1.37,1.37,0,0,1,.82-.33l.6,0a2.88,2.88,0,0,1,0-1A1.34,1.34,0,0,0,163.25,121.5Z"/><path class="cls-15" d="M160.41,100.11l.52.25a1.32,1.32,0,0,0,.43-1.68,1.77,1.77,0,0,0-1.45-.93c-.58,0-1,.51-1.13,1.39A6.43,6.43,0,0,0,160.41,100.11Z"/><path class="cls-15" d="M166.1,173.47a1,1,0,0,0-1-.6,1.47,1.47,0,0,0-.89.29.92.92,0,0,0-.37.79c0,.2.06.24.49.44a5.15,5.15,0,0,1,.6.31,2.36,2.36,0,0,1,.81-.56C166.19,173.92,166.26,173.88,166.1,173.47Z"/><path class="cls-15" d="M160.88,107.7c0-.06,0-.12,0-.18a2.22,2.22,0,0,0-.06-.36,1.14,1.14,0,0,1-.25.09l-.09,0a.79.79,0,0,1-.29.49l-.18.12,0,.07.31-.09A3.88,3.88,0,0,1,160.88,107.7Z"/><path class="cls-15" d="M154.37,177.41l.17.16a2.57,2.57,0,0,0,.95-.1,1.52,1.52,0,0,1,.43-.06,1.38,1.38,0,0,1,.95.35.7.7,0,0,1,0,1.06,1.64,1.64,0,0,0-.48,1.43.93.93,0,0,0,.9.86,1.9,1.9,0,0,0,.8-.2,1.56,1.56,0,0,1,.3-.1.61.61,0,0,1,0-.38,1.35,1.35,0,0,0,0-1.34.71.71,0,0,1,.21-1,1.48,1.48,0,0,1,1.31-.2l.27.09a1.63,1.63,0,0,0,.48.09s0,0,0-.05a.71.71,0,0,1,.13-1.06,1.49,1.49,0,0,1,1.42-.18,2.14,2.14,0,0,0,.36.11,1.64,1.64,0,0,0-.15-.19,1.52,1.52,0,0,1-.18-.22h-.43c-.58,0-.75.07-.81.12a1.23,1.23,0,0,1-1.23.67,1.35,1.35,0,0,1-.95-.39c-.57-.07-1.11-.15-1.6-.22a13.81,13.81,0,0,0-3.61-.23A2,2,0,0,0,154.37,177.41Z"/><path class="cls-15" d="M156,97.48l-.34-.08-.12,0h-.27a1.74,1.74,0,0,0,0,1.07l.45.06c.17,0,.1,0,.41,0a2.18,2.18,0,0,0,.06-.79c0-.06,0-.11,0-.16Z"/><path class="cls-15" d="M154.82,174.22l.11-.14a1.89,1.89,0,0,1-.56-.36c-.07.39-.08.61.08.83A.7.7,0,0,0,154.82,174.22Z"/><path class="cls-15" d="M152.15,207a.85.85,0,0,0-.2.33l.1,0a1.11,1.11,0,0,1,.45.3.73.73,0,0,0,.3-.52.38.38,0,0,0-.18-.32,1.21,1.21,0,0,0-.29-.12.75.75,0,0,1-.1.17Z"/><path class="cls-15" d="M155.11,43.47a5.44,5.44,0,0,0,.82.06.79.79,0,0,1-.08-.48H155A1,1,0,0,1,155.11,43.47Z"/><path class="cls-15" d="M152.31,216.13a1.53,1.53,0,0,0-1.16.11.41.41,0,0,0-.1.39,1.75,1.75,0,0,0,1.08.26C152.38,216.57,152.46,216.42,152.31,216.13Z"/><path class="cls-15" d="M156.21,106.17a1.1,1.1,0,0,1,.49.27,1.58,1.58,0,0,1,.29-.1,2,2,0,0,1,.19-.58,1.48,1.48,0,0,0,.14-.4,1.66,1.66,0,0,0-.81.27A.84.84,0,0,0,156.21,106.17Z"/><path class="cls-15" d="M155.56,94.25a.82.82,0,0,0-.17.86.89.89,0,0,0,.44.54,1.19,1.19,0,0,0,.55-1C156.36,94.49,156.31,94.26,155.56,94.25Z"/><path class="cls-15" d="M157,173.91a2.73,2.73,0,0,1,.47.26l.1.06c0-.14,0-.28,0-.39a1.62,1.62,0,0,1-.37-.07A.93.93,0,0,1,157,173.91Z"/><path class="cls-15" d="M151.15,86h.09a1.6,1.6,0,0,1,.32,0,1.34,1.34,0,0,1,.26-.13c1.17-.4,1.24-1.58,1.21-2.75,0-.18,0-1,0-1.66V81a.8.8,0,0,1-.29-.43,1.53,1.53,0,0,0-.54-.21c-.06.4.13.56.43.81a.73.73,0,0,1,.23.92,1.17,1.17,0,0,1-1,.56A1.91,1.91,0,0,0,150,84.08,1.64,1.64,0,0,0,151.15,86Z"/><path class="cls-15" d="M155.05,27.1a.51.51,0,0,0,.25,0v-.31C155.22,26.94,155.13,27,155.05,27.1Z"/><path class="cls-15" d="M158.77,128.08a1.62,1.62,0,0,0-1,.32.54.54,0,0,0-.18.32.74.74,0,0,1-.16.35.4.4,0,0,0,.3.21,1,1,0,0,1,.77.58.69.69,0,0,1-.18.76h0l.52.19c0-.09,0-.18,0-.27a.82.82,0,0,1,.55-.85,1.74,1.74,0,0,1,.47-.53c.18-.15.26-.23.28-.36A1.36,1.36,0,0,0,158.77,128.08Z"/><path class="cls-15" d="M144.18,40.45a.42.42,0,0,0,0-.41.63.63,0,0,0-.6.32.26.26,0,0,0,.07.31A.54.54,0,0,0,144.18,40.45Z"/><path class="cls-15" d="M144,167.26h0l0,.87Z"/><path class="cls-15" d="M144,208.13a1.49,1.49,0,0,0-.33-.05,1.39,1.39,0,0,1-.13.25,1.14,1.14,0,0,0-.1.19.84.84,0,0,0,.45-.09A.41.41,0,0,0,144,208.13Z"/><path class="cls-15" d="M145.7,82.16l-.3-.07-.12,0,0,0a3,3,0,0,0-.19.82c.32,0,.42-.1.45-.13A.74.74,0,0,0,145.7,82.16Z"/><path class="cls-15" d="M144.07,156.56c.78-.14,1-.29,1-.55a.83.83,0,0,0-.72-.6,1,1,0,0,0-.88.53C143.41,156.24,143.76,156.44,144.07,156.56Z"/><path class="cls-15" d="M142.33,146a3.92,3.92,0,0,1-.59,1.82c-.3.58-.46.94-.35,1.27h.22a2.81,2.81,0,0,1,.74.14,1.75,1.75,0,0,0,.8.11,1.31,1.31,0,0,0,.64-1.22,3,3,0,0,0-1.17-2.2A1.57,1.57,0,0,1,142.33,146Z"/><path class="cls-15" d="M140.18,63.93l-.12-.21c-.25.11-.51.2-.77.3l-.38.14a1.07,1.07,0,0,0,.43.73,3.24,3.24,0,0,0,1.87.58A8.32,8.32,0,0,1,140.18,63.93Z"/><path class="cls-15" d="M139.53,43.16a3.15,3.15,0,0,0,.53,0h.19l.15-.07a2.78,2.78,0,0,0,.46-.26c.14-.09.31-.2.52-.31a5.76,5.76,0,0,1,0-.88c0-.4,0-.59-.14-.78a1.52,1.52,0,0,0-1.2-.68,2.26,2.26,0,0,0-2,1.8C137.95,42.24,137.88,43,139.53,43.16Z"/><path class="cls-15" d="M138.86,170.63a.76.76,0,0,0,.16-.74,1.44,1.44,0,0,0-.66-.83,1.2,1.2,0,0,0-.48,1.2C137.94,170.41,138.09,170.66,138.86,170.63Z"/><path class="cls-15" d="M138.58,175.75A1.36,1.36,0,0,1,139,177a1.32,1.32,0,0,1,.3.09l.13.06a1.61,1.61,0,0,0,.8.18c.08-.11.16-.2.24-.3a1.42,1.42,0,0,0,.48-.91c0-.46.51-.83,1.13-.85a.32.32,0,0,0,.18,0,1.48,1.48,0,0,1,.87-.19,1.41,1.41,0,0,1,.56.16h0a.85.85,0,0,1-.59-.7c0-.07,0-.14,0-.19a.73.73,0,0,1,.31-.72l0,0a6,6,0,0,0-2.52-1.85l-.49.2a1.25,1.25,0,0,1-.29.1,1.05,1.05,0,0,1-.23.16c-.78.42-2.46,1.54-2.18,3.24A1.58,1.58,0,0,1,138.58,175.75Z"/><path class="cls-15" d="M140.15,99.41c.36-.24.75-.6.6-.92s-1.08-.74-2.62-.71A2.29,2.29,0,0,0,140.15,99.41Z"/><path class="cls-15" d="M140.76,105.72a.71.71,0,0,1,.12.18.72.72,0,0,0,.32-.34l0-.09a.89.89,0,0,1-.59-.71.65.65,0,0,1,0-.3,1.2,1.2,0,0,0-.94.57c0,.06-.06.17.18.3A1.29,1.29,0,0,1,140.76,105.72Z"/><path class="cls-15" d="M142.73,183.09h-.06l0,.07c-.2.39-.24.48,0,.68h.06a1.18,1.18,0,0,0,.41-.09l.33-.1C143.38,183.33,143.14,183.2,142.73,183.09Z"/><path class="cls-15" d="M149.68,198.48a.66.66,0,0,0,.54-.13A2.2,2.2,0,0,1,151,198a3.68,3.68,0,0,0-.27-.85c-.08-.2-.17-.39-.23-.61a2.6,2.6,0,0,1-1.66.29,5.5,5.5,0,0,0-.71,0A10.61,10.61,0,0,0,149.68,198.48Z"/><path class="cls-15" d="M135.15,61h0a.3.3,0,0,0-.18-.19.77.77,0,0,1-.21.39l.12,0A.65.65,0,0,0,135.15,61Z"/><path class="cls-15" d="M147.32,206.79a.36.36,0,0,0,.31-.33,1.38,1.38,0,0,0-.29-.1l-.09,0a.36.36,0,0,0-.06.19A.39.39,0,0,0,147.32,206.79Z"/><path class="cls-15" d="M148.14,42.32l0,0a1.37,1.37,0,0,1,.21-.16l-.13-.25a1.46,1.46,0,0,1-.58,0,1.11,1.11,0,0,1-.16.23l.19.09A1.24,1.24,0,0,0,148.14,42.32Z"/><path class="cls-15" d="M142.93,114.48c0-.14.07-.28.11-.41.31-1.11.26-1.38-.47-1.58-.23.09-.36.32-.55.76-.06.12-.1.24-.16.34a5,5,0,0,1,.38.38A1.55,1.55,0,0,0,142.93,114.48Z"/><path class="cls-15" d="M148.69,44.58a.69.69,0,0,1,0,.15l.13,0a1.82,1.82,0,0,0,0-.42l-.1,0a.56.56,0,0,1,0,.16A.51.51,0,0,1,148.69,44.58Z"/><path class="cls-15" d="M147.89,160.41a1.65,1.65,0,0,1-.48.18v.06a2.72,2.72,0,0,0,0,.79,1.48,1.48,0,0,0,1.25-.42.27.27,0,0,0,0-.18A1.25,1.25,0,0,1,147.89,160.41Z"/><path class="cls-15" d="M150,96.65l.13,0a1.28,1.28,0,0,1,.12-.52,1.73,1.73,0,0,1-.38,0,.45.45,0,0,0,0,.44A.79.79,0,0,1,150,96.65Z"/><path class="cls-15" d="M141.63,205a1,1,0,0,0,.36-1c-.07-.38-.33-.51-1.08-.79-.2-.07-.43-.16-.65-.27a5.8,5.8,0,0,1-.57.6,2.49,2.49,0,0,0-.75,1,1.87,1.87,0,0,0,2.69.47Z"/><path class="cls-15" d="M140.67,133.51a1.72,1.72,0,0,1-.14,1.35c0,.1-.08.2-.11.29.42.09.76.17,1,.24a7.31,7.31,0,0,0,1.66.26,1.87,1.87,0,0,0,.44-2.17,1.94,1.94,0,0,0-1.49-.69,2.76,2.76,0,0,1-1.26.69Z"/><path class="cls-15" d="M141.87,181.87l.19,0a.88.88,0,0,1,.18-.2c.52-.45.82-.74.75-1.17a1.89,1.89,0,0,1-.32-.07,1.51,1.51,0,0,1-.81-.64h0c-1.13,0-1.21.73-1.22.88C140.58,181.14,140.91,181.7,141.87,181.87Z"/><path class="cls-15" d="M150.54,194.17a2.94,2.94,0,0,1,.4.53l.17-.07a3.41,3.41,0,0,0,1.11-.53A1.07,1.07,0,0,0,152,193a1.62,1.62,0,0,0-1.77,0A1,1,0,0,0,150.54,194.17Z"/><path class="cls-15" d="M144.44,45a1.2,1.2,0,0,0,.8-.26.71.71,0,0,0,.18-.71,1.5,1.5,0,0,0-.76-.17s-1.14,0-1.21.6C143.55,44.76,143.92,45,144.44,45Z"/><path class="cls-15" d="M146.91,50.87a1.53,1.53,0,0,1,1-.17c.25-.36.62-.9.48-1.18,0,0-.08-.15-.42-.25h0A1.2,1.2,0,0,1,147,49c-.32.33-.29.79-.17,1.53C146.88,50.68,146.9,50.78,146.91,50.87Z"/><path class="cls-15" d="M194,29.51c-.47.47.17,2,.54,2.9l.18,0a2.5,2.5,0,0,1,.81-1.31,1.09,1.09,0,0,0,.38-1.4,5.14,5.14,0,0,0-1.45-.29C194.15,29.38,194.06,29.47,194,29.51Z"/><path class="cls-15" d="M195.79,45.34a.51.51,0,0,0-.07.13,1.86,1.86,0,0,1,.43.56.63.63,0,0,1,.07.19c.36-.06.68-.17.69-.39a.86.86,0,0,0-.42-.6,2,2,0,0,0-.35-.2A1,1,0,0,1,195.79,45.34Z"/><path class="cls-15" d="M194.18,32.48l0,.87v-.87Z"/><path class="cls-15" d="M193.46,204.09c.06.18.19.4.74.43h.14c.59,0,.71-.23.76-.32a1.82,1.82,0,0,0-.72-1.82A1.8,1.8,0,0,0,193.46,204.09Z"/><path class="cls-15" d="M198.1,116.94a1.46,1.46,0,0,1,.75.2.85.85,0,0,1,.42.58l.22-.08c-.19-.5-.51-.64-1-.85a4.18,4.18,0,0,1-.63-.31.66.66,0,0,1,.13.39v.07Z"/><path class="cls-15" d="M199.24,36.46a9.67,9.67,0,0,1-.47-1.09c-.24-.05-.44-.11-.62-.16a1.47,1.47,0,0,0-.62-.1C197.57,35.53,198.12,35.88,199.24,36.46Z"/><path class="cls-15" d="M152.29,167c-.16,0-.3-.08-.42-.12a1.42,1.42,0,0,0-.29-.07c-.08.34-.18.67-.28,1a10.55,10.55,0,0,0-.47,2.07l.27.13a1,1,0,0,0,.39.14.92.92,0,0,0,.19-.25,1.55,1.55,0,0,1,.55-.59,1.86,1.86,0,0,1,0-1.5A1.71,1.71,0,0,0,152.29,167Z"/><path class="cls-15" d="M188.47,171.45a.88.88,0,0,0,.32-.64,1.42,1.42,0,0,1-.73-.3l-.11.06-.38.12-.2.06a.64.64,0,0,0,.21.53,1.46,1.46,0,0,0,.85.18Z"/><path class="cls-15" d="M190.07,57.28c.21-.56,0-1-.68-1.35-1.05-.14-1.38,0-1.7,1.2a3,3,0,0,1-.25.69,1.3,1.3,0,0,0,1,.56A1.85,1.85,0,0,0,190.07,57.28Z"/><path class="cls-15" d="M186.32,4.84c.79,0,1-.19,1-.2s-.09-.46-.17-.62-.1-.2-.14-.28a.75.75,0,0,1,0-.14,1,1,0,0,1-.89.79H186a1.2,1.2,0,0,0,.19.25Z"/><path class="cls-15" d="M188.54,11.86a2.36,2.36,0,0,0,1.1-.32,2.43,2.43,0,0,0-.69-2.1.84.84,0,0,1-.16-.66,4.77,4.77,0,0,1,.73-1.22l.1-.14-.15-.06a.91.91,0,0,1-.57-.63l0-.15a.51.51,0,0,0,0-.17,2.56,2.56,0,0,0-.37,0c-.36,0-.53.24-.75,1.06,0,.17-.09.33-.14.47a1.26,1.26,0,0,1-1.41.63.55.55,0,0,0-.43.08C186.21,10.26,187.28,11.86,188.54,11.86Z"/><path class="cls-15" d="M194.18,17.33a4.54,4.54,0,0,1-.61-1.76,11.13,11.13,0,0,0-1.08-.41,11.4,11.4,0,0,1-1.25-.48,6.11,6.11,0,0,0,2.91,4.5C194.81,18.71,194.67,18.28,194.18,17.33Z"/><path class="cls-15" d="M212.92,97.23a1.61,1.61,0,0,1,.72-.08.72.72,0,0,1,0-.15,2.87,2.87,0,0,0-.75-.66,1.68,1.68,0,0,1,0,.61C212.93,97.06,212.92,97.16,212.92,97.23Z"/><path class="cls-15" d="M212,95a2.71,2.71,0,0,0,.14-.31l-.17,0a1,1,0,0,0-.33.62.91.91,0,0,1,.28.14A.68.68,0,0,1,212,95Z"/><path class="cls-15" d="M206.24,3.27a1.51,1.51,0,0,0-.48-1.11,1.66,1.66,0,0,0-.79-.4V4.82A1.61,1.61,0,0,0,206.24,3.27Z"/><path class="cls-15" d="M213.25,38a.81.81,0,0,0,.06-.34l-.06,0a.3.3,0,0,0-.16.25.39.39,0,0,0,.11.25A1.42,1.42,0,0,1,213.25,38Z"/><path class="cls-15" d="M219,38.79a1.83,1.83,0,0,0-.11-.26l0,.07a.84.84,0,0,0-.16.33l.27-.13Z"/><path class="cls-15" d="M217.49,155.54a4.76,4.76,0,0,1,.73.13,2.36,2.36,0,0,0,.81.1,3.92,3.92,0,0,1,.38-.34c.38-.32.61-.51.53-1a2,2,0,0,0-1.53-1.06,2.25,2.25,0,0,0-.85.2,1.55,1.55,0,0,0-.15,1.34A4,4,0,0,1,217.49,155.54Z"/><path class="cls-15" d="M218.59,165.14a1.93,1.93,0,0,1,.25.17c.14.1.15.1.2.1a1.25,1.25,0,0,0-.1-.84C218.78,164.61,218.65,164.72,218.59,165.14Z"/><path class="cls-15" d="M184.56,63.82A3.38,3.38,0,0,0,185,65a.61.61,0,0,0,.39-.14,2.15,2.15,0,0,1,.57-.26v-.86a1.1,1.1,0,0,0-.92,0Z"/><path class="cls-15" d="M75.5,72.36a1.83,1.83,0,0,0,0-1.51,1.54,1.54,0,0,0-1.72.07,1.34,1.34,0,0,0-.36,1.34A2.21,2.21,0,0,0,75.5,72.36Z"/><path class="cls-15" d="M200,222.83a1.77,1.77,0,0,0,.49.07,1.25,1.25,0,0,0,1.08-.56.87.87,0,0,0-.11-1.11,3.64,3.64,0,0,0-.52,0,1.08,1.08,0,0,0-.91.31A1.23,1.23,0,0,0,200,222.83Z"/><path class="cls-15" d="M202.34,191.36l.23,0a.77.77,0,0,0,.39-.28.94.94,0,0,1,.16-.17.71.71,0,0,1-.06-.23l0-.1a.86.86,0,0,0-.73-.68h0a1.51,1.51,0,0,0-.57.77l0,0a1.37,1.37,0,0,1,.48.49A.84.84,0,0,0,202.34,191.36Z"/><path class="cls-15" d="M205.71,108.71a1.28,1.28,0,0,1,.39-.2c0-.08,0-.17.07-.25a1.64,1.64,0,0,0,.09-.47,1.28,1.28,0,0,1-.45.06A1.39,1.39,0,0,0,205.71,108.71Z"/><path class="cls-15" d="M202.79,160.78l0-.1a1.47,1.47,0,0,1,.11-.42,1,1,0,0,1-.39-.39,1.68,1.68,0,0,1-.33,0,2,2,0,0,1-.19.24c-.16.2-.28.33-.22.6a3.21,3.21,0,0,0,.63,0Z"/><path class="cls-15" d="M205.34,24.15l-1-.14v1.18a6.39,6.39,0,0,0,1.94-.9Z"/><path class="cls-15" d="M197.32,8.33c.12-.62-.05-.84-.11-.89a.3.3,0,0,0-.22-.07A1.25,1.25,0,0,0,196,8c0,.09-.14.33.32.62A6.94,6.94,0,0,0,197.32,8.33Z"/><path class="cls-15" d="M161.37,47.84a1.94,1.94,0,0,0,1.45-.72,1.53,1.53,0,0,0,.23-1.81,2.17,2.17,0,0,0-2.78.3,1.44,1.44,0,0,0-.19,1.72A2.09,2.09,0,0,0,161.37,47.84Z"/><path class="cls-15" d="M171.87,180.43A2.1,2.1,0,0,0,171,180,1,1,0,0,0,171.87,180.43Z"/><path class="cls-15" d="M166.77,61a1.26,1.26,0,0,0-.82-.27,2.21,2.21,0,0,0-1.33.48.82.82,0,0,1,.09.23,1.33,1.33,0,0,0,.5.8,2,2,0,0,0,2,.16A1.56,1.56,0,0,0,166.77,61Z"/><path class="cls-15" d="M172.74,220.2l.1,0,.1,0a.72.72,0,0,1,.13-.2c.2-.22.26-.41.17-.57a1,1,0,0,0-.82-.34.52.52,0,0,0-.37.11c-.09.11-.1.36.11.75A1.7,1.7,0,0,1,172.74,220.2Z"/><path class="cls-15" d="M174.66,181.82a.34.34,0,0,0-.24.07.87.87,0,0,0-.14.77,7,7,0,0,0,1,.26c.2-.18.35-.4.23-.64A1,1,0,0,0,174.66,181.82Z"/><path class="cls-15" d="M166.14,73.92a.55.55,0,0,0,0,.85,1,1,0,0,0,.71-.33.7.7,0,0,1-.22-.34,1.45,1.45,0,0,1-.36-.14Z"/><path class="cls-15" d="M174.16,122.18a1,1,0,0,0,.78-.23c.18-.24,0-.71-.38-1.29a1.48,1.48,0,0,1-.3-.05,1.1,1.1,0,0,1-.53.36c-.79.28-1.11.55-1.08.69S173.4,122.18,174.16,122.18Z"/><path class="cls-15" d="M173.35,93a1.07,1.07,0,0,1,.21.18h.18a1.48,1.48,0,0,1,1,0h.17A.81.81,0,0,1,175,93a1.08,1.08,0,0,1,.37-.25,2.74,2.74,0,0,1-.49-.48,1.56,1.56,0,0,1-.46.12,7.28,7.28,0,0,1-.89,0l-.36,0,0,.07A.69.69,0,0,1,173.35,93Z"/><path class="cls-15" d="M184.67,36.45a.8.8,0,0,0,.4-.77,2.82,2.82,0,0,0-.84,0,.83.83,0,0,0,.17.68A.43.43,0,0,0,184.67,36.45Z"/><path class="cls-15" d="M162.74,153a5.34,5.34,0,0,1-3.34,1.22,5.06,5.06,0,0,1,.36,1.38,2.59,2.59,0,0,0,.57,1.57.71.71,0,0,1,.25.85,4.39,4.39,0,0,0-.41,1.6,2.54,2.54,0,0,1,.77.54l.15.14a.93.93,0,0,1,.31-.3,1.5,1.5,0,0,1,1-.2,3.07,3.07,0,0,0,1.8-.45,6.22,6.22,0,0,1,2.12-.69h0a.68.68,0,0,1-.13-.73,1,1,0,0,1,.67-.54l.11,0,.24-.09a1.57,1.57,0,0,0,0-.48,1.08,1.08,0,0,1-.59-.43.7.7,0,0,1-.1-.52.85.85,0,0,1-.51-.77.83.83,0,0,1,.35-.59,1.7,1.7,0,0,0-.32-.5,3,3,0,0,1-.3-.42l-.38,0a2.88,2.88,0,0,1-1.3-.33A2.16,2.16,0,0,0,162.74,153Z"/><polygon class="cls-15" points="180.8 188.43 180.81 187.56 180.8 187.56 180.8 188.25 180.8 188.43"/><path class="cls-15" d="M180.83,186.13c-.39-.7-1.25-1.12-1.63-.82-.12.1-.39.42-.36,1.29a2.7,2.7,0,0,1,1,.57,1.36,1.36,0,0,0,.7.37A1.09,1.09,0,0,0,180.83,186.13Z"/><path class="cls-15" d="M180,23.64c0,.35.38.44.59.47a.54.54,0,0,0,.35-.09.88.88,0,0,0,.17-.73,1,1,0,0,0-.48-.15A.63.63,0,0,0,180,23.64Z"/><path class="cls-15" d="M183.4,22a2.93,2.93,0,0,0,.55-.05.64.64,0,0,0-.13-.25,1.4,1.4,0,0,1-.44.2c0,.06,0,.1,0,.1Z"/><path class="cls-15" d="M179.23,20.88a1.84,1.84,0,0,0,0-1.51,1.54,1.54,0,0,0-1.73.07,1.36,1.36,0,0,0-.36,1.34A2.23,2.23,0,0,0,179.23,20.88Z"/><path class="cls-15" d="M179.48,86.29h0a1.89,1.89,0,0,0,.82-.21l.22-.09a1.39,1.39,0,0,0-.16-.71,1.66,1.66,0,0,1-.73-.26.4.4,0,0,0-.05.14.89.89,0,0,1-.52.59c0,.17.09.26.25.41Z"/><path class="cls-15" d="M179.41,78l.32.15.21.1a1.16,1.16,0,0,1,.22-.15,1.13,1.13,0,0,0-.3-.47,1.48,1.48,0,0,1-.35.3Z"/><path class="cls-15" d="M180.39,13.85c-.06-.27-.09-.54-.13-.82a3.46,3.46,0,0,0-.41-1.52A1.41,1.41,0,0,0,179.3,13,1.19,1.19,0,0,0,180.39,13.85Z"/><path class="cls-15" d="M179.81,152.09a2.43,2.43,0,0,0,.31-.2l0,0a1,1,0,0,1-.39-.35,1.2,1.2,0,0,1-.41.22h0l.13.08A1.66,1.66,0,0,1,179.81,152.09Z"/><path class="cls-15" d="M179.33,74.1h-.13a.75.75,0,0,0-.72.77c0,.17.07.71,1,.75.06-.27.12-.46.16-.6.1-.33.12-.38-.11-.78A.94.94,0,0,1,179.33,74.1Z"/><path class="cls-15" d="M100,35.49c.63,0,1.38-.33,1.44-.64s-.49-.54-1.37-.79c-.7,1-.5,1.28-.48,1.32S99.89,35.49,100,35.49Z"/><path class="cls-15" d="M101.66,62.47a2.77,2.77,0,0,0,1.1-.23,1.55,1.55,0,0,1,.88-.09.66.66,0,0,1,.07-.32,3.45,3.45,0,0,0-.12-3.8c-.83-.93-2.5-1.08-4.59-.47a2.31,2.31,0,0,0-.3,3.07A3.65,3.65,0,0,0,101.66,62.47Z"/><path class="cls-15" d="M98.89,65.25a.82.82,0,0,0,.7-.14.79.79,0,0,0,.22-.7.84.84,0,0,0-.72.12A.8.8,0,0,0,98.89,65.25Z"/><path class="cls-15" d="M103.33,23.53c0-.09,0-.2.06-.29a.93.93,0,0,1,.5-.56,1.53,1.53,0,0,1,.9-.13,2.33,2.33,0,0,0,1.39-.79l.36-.32a4.31,4.31,0,0,0-1.79-.45,1.18,1.18,0,0,0-.76.21.84.84,0,0,0-.09.79c.11.41-.19.82-.71,1a.69.69,0,0,0-.58.7,3.61,3.61,0,0,0,.68,0A.83.83,0,0,0,103.33,23.53Z"/><path class="cls-15" d="M96.62,84a3.56,3.56,0,0,1,1.63,1.45h1.23c.27-.35.12-.75-.25-1.52-.1-.2-.2-.42-.29-.63a.69.69,0,0,1,0-.12,1.32,1.32,0,0,1,0-.56,1.52,1.52,0,0,0,0-.32,2.52,2.52,0,0,0-1.82-.7c-.87,0-1.49.38-1.61,1S95.82,83.52,96.62,84Z"/><path class="cls-15" d="M101.43,50.58c0,.1,0,.22,0,.34a2,2,0,0,0,1.29.32l.22,0a1.33,1.33,0,0,1,1,.37.74.74,0,0,1,.16.22,4.13,4.13,0,0,0,.66-.27,2.9,2.9,0,0,1,.79-.28.7.7,0,0,1-.13-.25,1.48,1.48,0,0,1-1.07.09,1,1,0,0,1-.7-.63,2.07,2.07,0,0,0-.52-.8h-1.6C101.35,50,101.37,50.14,101.43,50.58Z"/><path class="cls-15" d="M102.77,40.9,103,41a1.52,1.52,0,0,0,.68.27.74.74,0,0,1,.15-.15,1.31,1.31,0,0,1-.64-.65A1.65,1.65,0,0,0,102.77,40.9Z"/><path class="cls-15" d="M92.48,97.71c.36-.06.69-.17.69-.39a.87.87,0,0,0-.42-.6,2,2,0,0,0-.35-.2.91.91,0,0,1-.35.3A.66.66,0,0,0,92,97a1.9,1.9,0,0,1,.43.56A.82.82,0,0,1,92.48,97.71Z"/><path class="cls-15" d="M90.27,154.2a1.15,1.15,0,0,0-1.1-.71A2.61,2.61,0,0,0,87,154.78a1.23,1.23,0,0,0,.59,1.66,2,2,0,0,0,1.06,0,1.69,1.69,0,0,1,1,.15.91.91,0,0,1,.51.63l0,.57a3.43,3.43,0,0,0,.58,2.18,7.89,7.89,0,0,1,1.68-.34l.8-.12a1.8,1.8,0,0,1,.64-.12,1.42,1.42,0,0,1,.38,0,1.07,1.07,0,0,1,.77.56.91.91,0,0,0,.2.31,2.86,2.86,0,0,0,2.66.4,4,4,0,0,1-.83-1c-.43-.67-.69-.9-1.36-.9a1.37,1.37,0,0,1-.91-.32.71.71,0,0,1-.24-.73,2.77,2.77,0,0,0-.47-2.63,2.27,2.27,0,0,0-2.36-.42,1.58,1.58,0,0,1-.91,0A1,1,0,0,1,90.27,154.2Z"/><path class="cls-15" d="M105.8,27a4.78,4.78,0,0,1,1.34,1.16,2.94,2.94,0,0,0,1.45,1.08,2,2,0,0,0,.48-1.43,7,7,0,0,1-1.82-.77,4.47,4.47,0,0,0-1.23-.52S105.88,26.66,105.8,27Z"/><path class="cls-15" d="M94.12,17.39A1.44,1.44,0,0,0,95,17c.17-.67-.15-.92-.59-1.25a4.68,4.68,0,0,1-.53-.45,1.12,1.12,0,0,0-.61,1.32A1,1,0,0,0,94.12,17.39Z"/><path class="cls-15" d="M97.35,134.31a3.42,3.42,0,0,1,.9,0,.89.89,0,0,1-.18-.28A.84.84,0,0,0,97.35,134.31Z"/><path class="cls-15" d="M102.17,211c.29-.13.64-.35.54-.63a.87.87,0,0,0-.77-.45.69.69,0,0,0-.63.44,2,2,0,0,1,.47.38C102,210.93,102,211,102.17,211Z"/><path class="cls-15" d="M219.83,172.08a1.06,1.06,0,0,1,0-.14,2.75,2.75,0,0,1-.05-.27c-.06-.36-.13-.58-.23-.64a1.28,1.28,0,0,1-.37-.14,1.92,1.92,0,0,0,.1.26.93.93,0,0,1,.08.84A1.57,1.57,0,0,0,219.83,172.08Z"/><path class="cls-15" d="M100.68,174.87l0,0h0a1.56,1.56,0,0,1-.48,0,1.91,1.91,0,0,1-1.63,1.44c-.29.74.2,1,1.2,1.45a3.83,3.83,0,0,1,1.86,1.33,2.16,2.16,0,0,0,1-2.19,1.74,1.74,0,0,0-1.06-.25,5.54,5.54,0,0,1-.75-.07c-.53-.1-.9-.45-.89-.85A.93.93,0,0,1,100.68,174.87Z"/><path class="cls-15" d="M103.19,139.79a9.35,9.35,0,0,0,.66,3.36c2.38-.22,3.8-.87,4.36-2a4.61,4.61,0,0,0-3.38-2.07A2.27,2.27,0,0,0,103.19,139.79Z"/><path class="cls-15" d="M104.89,203.58a2,2,0,0,0,.32,1.09,3.7,3.7,0,0,1,.81-.48,3.91,3.91,0,0,1-.46-.36C105.21,203.53,105.23,203.51,104.89,203.58Z"/><path class="cls-15" d="M105.12,85.39h0l-.05-.07a1.17,1.17,0,0,1-.22-.29.31.31,0,0,0-.26.21.84.84,0,0,0,0,.1.67.67,0,0,1,0,.16,1.44,1.44,0,0,1,.38-.09Z"/><path class="cls-15" d="M107.16,146.14a1.22,1.22,0,0,0-.26-.83,2.06,2.06,0,0,0-2.17,1.09h0a3.2,3.2,0,0,0,2.13.56A1.16,1.16,0,0,0,107.16,146.14Z"/><path class="cls-15" d="M108.68,93.58c-.17.19-.15.52,0,.92l.21,0h0a3.43,3.43,0,0,0,1.5-.45,1.43,1.43,0,0,0-1.23-.67A.71.71,0,0,0,108.68,93.58Z"/><path class="cls-15" d="M109.71,134.72a3.29,3.29,0,0,0,0-1.17l-.17,0c-.57.52-.66.8-.44,1.06A1.49,1.49,0,0,1,109.71,134.72Z"/><path class="cls-15" d="M104.44,159.2l-.3,0a3.14,3.14,0,0,0-.38,1.34,3.82,3.82,0,0,0,1,.18c.44,0,.55-.15.59-.2.18-.24.14-.72-.22-1.26A2.64,2.64,0,0,1,104.44,159.2Z"/><path class="cls-15" d="M108.64,34a1.93,1.93,0,0,0-.12,1.41h.72a1.27,1.27,0,0,0-.13-1.21A.76.76,0,0,0,108.64,34Z"/><path class="cls-15" d="M79.67,73.46a2.54,2.54,0,0,0,.55-.05.58.58,0,0,0-.13-.25,1.55,1.55,0,0,1-.44.2.25.25,0,0,0,0,.11Z"/><path class="cls-15" d="M79.69,182.42a1.86,1.86,0,0,0,.76,1.23,2.3,2.3,0,0,0,2.11.29c.44-1.12.43-2,0-2.43a1.94,1.94,0,0,0-1.41-.44,6,6,0,0,0-2.47.59,1.42,1.42,0,0,1,.38.08A.94.94,0,0,1,79.69,182.42Z"/><path class="cls-15" d="M80.94,87.94a.81.81,0,0,0,.4-.78,2.87,2.87,0,0,0-.84,0,.83.83,0,0,0,.17.68A.46.46,0,0,0,80.94,87.94Z"/><path class="cls-15" d="M80.82,115.3a3.38,3.38,0,0,0,.4,1.15.58.58,0,0,0,.39-.13,2.24,2.24,0,0,1,.57-.26v-.86a1.1,1.1,0,0,0-.92,0Z"/><path class="cls-15" d="M83.2,41.27a.88.88,0,0,0,.83-.41,1.12,1.12,0,0,0-.18-1.28,2.34,2.34,0,0,0-.39,0c-.69,0-.88.36-.94.66A1,1,0,0,0,83.2,41.27Z"/><path class="cls-15" d="M75,23.84a2.11,2.11,0,0,0,1.35-.4,1.53,1.53,0,0,0,.45-1.52.4.4,0,0,1,0-.1,5.44,5.44,0,0,1-1.53-.45A4.19,4.19,0,0,0,74.16,21c-1.06.67-1.5,1.34-1.24,1.89A2.43,2.43,0,0,0,75,23.84Z"/><path class="cls-15" d="M82.72,60.21c-.15-.42.14-.86.68-1a1.29,1.29,0,0,0,.9-.89,2,2,0,0,0-.89-2.14H83a2.29,2.29,0,0,0-1.55.38,1.56,1.56,0,0,0-.41,1.42,10.45,10.45,0,0,0,1.7,2.49A1.11,1.11,0,0,0,82.72,60.21Z"/><path class="cls-15" d="M73.91,38a5,5,0,0,1,.3.4,1.14,1.14,0,0,0,1.42.64,1.28,1.28,0,0,0,.16-1.38A2.23,2.23,0,0,0,73.91,38Z"/><path class="cls-15" d="M73,218c-.27,0-.65.25-.67.46s.28.21.49.25l.08-.06a2,2,0,0,1,.24-.17A.63.63,0,0,0,73,218Z"/><path class="cls-15" d="M75,35.1a4.17,4.17,0,0,1,.22-.38c-.16-.09-.31-.19-.44-.28a1.9,1.9,0,0,0-.87-.41,1.48,1.48,0,0,1-.56-.17.69.69,0,0,1-.06.34,1.14,1.14,0,0,0,.42,1.65C74.3,35.92,74.54,35.85,75,35.1Z"/><path class="cls-15" d="M77,177.74a.5.5,0,0,0,0-.43,2,2,0,0,0-1-.7,3.52,3.52,0,0,1-.39.42C75.76,177.48,76.15,177.71,77,177.74Z"/><path class="cls-15" d="M95.46,191.59a1.41,1.41,0,0,1,.89.3,2.29,2.29,0,0,1,.42.5l.1.15a7,7,0,0,0-.18-.79,3.82,3.82,0,0,1-.19-1.5l-.11.05a1.53,1.53,0,0,1-.9.07,1.19,1.19,0,0,1-.71-.42,2,2,0,0,0-.5-.5,1.76,1.76,0,0,1-1.19.47,4.12,4.12,0,0,0-.17.72,3.2,3.2,0,0,1-.42,1.27,9,9,0,0,0,2.56-.27A1.54,1.54,0,0,1,95.46,191.59Z"/><path class="cls-15" d="M75.94,136.51a.32.32,0,0,0-.05.14.9.9,0,0,1-.52.59c0,.17.1.27.25.41l.13.13a1.75,1.75,0,0,0,.86-.2l.22-.09a1.4,1.4,0,0,0-.16-.71A1.57,1.57,0,0,1,75.94,136.51Z"/><path class="cls-15" d="M75.8,193.25a1.19,1.19,0,0,1,.12-.16.34.34,0,0,0-.31-.24.28.28,0,0,0-.08.3S75.56,193.24,75.8,193.25Z"/><path class="cls-15" d="M87.88,46.82l-.18.14c-.1.07-.13.1-.14.14a1.57,1.57,0,0,0,.48,0A.73.73,0,0,0,87.88,46.82Z"/><path class="cls-15" d="M88.27,73.78a.66.66,0,0,1,.12.44,1.93,1.93,0,0,1,.32,0,3.39,3.39,0,0,0,2.39-.4,8,8,0,0,0-2.81-2.08A1.71,1.71,0,0,0,88.27,73.78Z"/><path class="cls-15" d="M88,165.88l-.07.08a6.16,6.16,0,0,0-.45.54,2.65,2.65,0,0,1,.41.36,2.72,2.72,0,0,1,.53-.71A2.76,2.76,0,0,1,88,165.88Z"/><path class="cls-15" d="M90.61,24.73a1.54,1.54,0,0,1,.62.05,1.38,1.38,0,0,0-.12-.71H90.9a.67.67,0,0,0-.75.63.51.51,0,0,0,0,.16A1.32,1.32,0,0,1,90.61,24.73Z"/><path class="cls-15" d="M91,203.26a.86.86,0,0,0-.19-.65.23.23,0,0,0-.16-.05c-.3,0-.7.26-.74.47s.21.28.6.38A1.37,1.37,0,0,1,91,203.26Z"/><path class="cls-15" d="M86.75,184.89a2.19,2.19,0,0,0,1.82.47c.32-.48.22-.8.07-1a1.31,1.31,0,0,0-1.58-.22A.9.9,0,0,0,86.75,184.89Z"/><path class="cls-15" d="M83.42,199.5c.34-.19.35-.41,0-1.14l0-.07a.78.78,0,0,0-.25.26,1.28,1.28,0,0,1,.2.38.67.67,0,0,1-.09.59Z"/><path class="cls-15" d="M80.22,207.58l.06,0a2.42,2.42,0,0,0,.3-.6,2,2,0,0,1,1.21-1.34,3.14,3.14,0,0,1,0-.81,1.17,1.17,0,0,0-.16-.94.67.67,0,0,1-.13-.68l0-.1a1.38,1.38,0,0,1-.83-.3,2,2,0,0,0-.52-.23l-.14-.05,0,.08a2.78,2.78,0,0,1-.37,2.94.74.74,0,0,1,.19.14,1.22,1.22,0,0,1,.29,1.24C80.16,207.18,80.11,207.49,80.22,207.58Z"/><path class="cls-15" d="M83.72,109.31a1.28,1.28,0,0,0,1,.57,1.86,1.86,0,0,0,1.59-1.1c.21-.56,0-1-.67-1.36-1.06-.14-1.39,0-1.7,1.2A3.56,3.56,0,0,1,83.72,109.31Z"/><path class="cls-15" d="M85.34,37l0,0L85,36.84a1.21,1.21,0,0,0-.26.47A.9.9,0,0,0,85.34,37Z"/><polygon class="cls-15" points="125.81 194.92 125.8 194.92 125.8 195.78 125.81 194.92"/><path class="cls-15" d="M127.34,6.3A1.31,1.31,0,0,0,127.65,5l-.24,0c-.32,0-.58.07-.82,1l0,.12a.87.87,0,0,1-.35.45,1.21,1.21,0,0,1,.21.3A1.91,1.91,0,0,0,127.34,6.3Z"/><path class="cls-15" d="M124.71,68.5a4,4,0,0,0,1.51-.18.91.91,0,0,1,.25-1,.68.68,0,0,0,.2-.67.84.84,0,0,0-.82-.52,1.92,1.92,0,0,0-1.54.88A1.11,1.11,0,0,0,124.71,68.5Z"/><path class="cls-15" d="M125.86,54.7h-.47c-.18.3-.26.46-.21.65.32,0,.7,0,.82-.17A.43.43,0,0,0,125.86,54.7Z"/><path class="cls-15" d="M127,26.61a.39.39,0,0,0,.29.41.76.76,0,0,0,.7-.61c0-.26-.15-.47-.46-.58A.93.93,0,0,0,127,26.61Z"/><path class="cls-15" d="M127.85,141.3h0a2.37,2.37,0,0,0,.09.68l0,.16a1.22,1.22,0,0,0,.16-.72Z"/><path class="cls-15" d="M127.9,156.09a1.41,1.41,0,0,1-.66-.18,2.12,2.12,0,0,1-.47.3c-.22.13-.32.18-.32.35s.25.18.62.31a2.81,2.81,0,0,1,1,.54,3.31,3.31,0,0,1-.17-.93C127.94,156.35,127.92,156.22,127.9,156.09Z"/><path class="cls-15" d="M123.42,105.63a1.38,1.38,0,0,0,.45.22.78.78,0,0,1,.2-.26c.73-.67.33-1.48-.12-2a.82.82,0,0,1-.13-.21,1.26,1.26,0,0,0-.95,1.22A1.33,1.33,0,0,0,123.42,105.63Z"/><path class="cls-15" d="M123.53,57.49l-.29.17-.22.12a.69.69,0,0,1,.1.27,1.45,1.45,0,0,0,.51-.11A.66.66,0,0,1,123.53,57.49Z"/><path class="cls-15" d="M131,86.51a1.62,1.62,0,0,0,1-.32,2,2,0,0,0,.64-1.79,4.19,4.19,0,0,0-2-.43,6.39,6.39,0,0,0-2.11.34l-.32.09A3,3,0,0,0,131,86.51Z"/><path class="cls-15" d="M123.81,173.9a1.43,1.43,0,0,1-.63.21c.26.1.52.19.78.27A1.72,1.72,0,0,1,123.81,173.9Z"/><path class="cls-15" d="M131.5,204.37a1.86,1.86,0,0,0,.3-1.11.33.33,0,0,0-.2-.07,2.23,2.23,0,0,0-.55.13,4,4,0,0,1,.08.64v.17a.67.67,0,0,1,0,.19Z"/><path class="cls-15" d="M129.88,111.28a.85.85,0,0,0-.24-.13l-.08,0h-.08a1.59,1.59,0,0,0-.77.12v1.21l.14.08a3,3,0,0,0,1.72.57h.07A2.48,2.48,0,0,0,129.88,111.28Z"/><path class="cls-15" d="M132.4,114.86a5.78,5.78,0,0,1-.77-.33c-.56,1-.69,1.83-.32,2.27a1.48,1.48,0,0,0,1.07.43,3.49,3.49,0,0,1,.43-1.06,2.92,2.92,0,0,0,.36-.91A2.22,2.22,0,0,0,132.4,114.86Z"/><path class="cls-15" d="M133.73,80.08a1.2,1.2,0,0,1-.7.39c-.13,0-.55.12-.57.52a.66.66,0,0,0,.48.64,1.19,1.19,0,0,1,.64.38,1.09,1.09,0,0,0,.67-1,1,1,0,0,0-.37-.81Z"/><path class="cls-15" d="M132.82,118.11l.05-.87h-.06v.87Z"/><path class="cls-15" d="M123,217.87c-.18.26-.23.39-.2.47s.27,0,.4-.38l-.16-.07Z"/><polygon class="cls-15" points="131.24 57.8 131.23 57.8 131.23 58.67 131.24 57.8"/><path class="cls-15" d="M130.71,57.29a1.49,1.49,0,0,0,.62.51,2.43,2.43,0,0,0,1.51-.46,1.79,1.79,0,0,0,.39-1.65,1.78,1.78,0,0,0-1.17-.53,4.52,4.52,0,0,0-2.38,1.29l0,0A2.57,2.57,0,0,1,130.71,57.29Z"/><path class="cls-15" d="M131.38,169c.14.19.25.38.35.55a5.76,5.76,0,0,0,.56.82l.16-.1a4,4,0,0,1-.65-1.36A3.06,3.06,0,0,1,131.38,169Z"/><path class="cls-15" d="M131.88,22.54a.87.87,0,0,0,.21-1,.82.82,0,0,0-.81-.55,1.7,1.7,0,0,0-1.47.92c-.17.43.08.82.74,1.15A2,2,0,0,0,131.88,22.54Z"/><path class="cls-15" d="M133.62,64.26a2,2,0,0,0,.42-2,.69.69,0,0,1,.19-.72,1.55,1.55,0,0,1-1-.06,3.1,3.1,0,0,0-3.47.85,1.83,1.83,0,0,0,0,2.33A3.2,3.2,0,0,0,133.62,64.26Z"/><path class="cls-15" d="M133.14,30a1.11,1.11,0,0,1,.47-.34l0-.05a1.06,1.06,0,0,1-1-.78.3.3,0,0,0,0-.08,1.23,1.23,0,0,0-.19.62.53.53,0,0,0,.21.46A1.19,1.19,0,0,0,133.14,30Z"/><path class="cls-15" d="M132.41,88.9l.18-.09,0,0a1,1,0,0,1-.14-.21,1,1,0,0,0-.32.13,2.3,2.3,0,0,1-.46.22,2.06,2.06,0,0,1,0,.28.16.16,0,0,1,0,0A4,4,0,0,0,132.41,88.9Z"/><path class="cls-15" d="M123.27,19.4a8.19,8.19,0,0,1,1.61-.13.74.74,0,0,0,0-.55.44.44,0,0,0-.12-.15c-.22.1-.45.18-.67.26a3.29,3.29,0,0,0-1.17.58l0,0Z"/><path class="cls-15" d="M117.44,158.27a2.34,2.34,0,0,0,.21,2.18,4.24,4.24,0,0,0,2.32,1.36,2.44,2.44,0,0,1,.72-1.85,5.46,5.46,0,0,0,.5-.72,5.21,5.21,0,0,0-2-.6A12.57,12.57,0,0,1,117.44,158.27Z"/><path class="cls-15" d="M118,104.94a2.73,2.73,0,0,0,1.64-.47.83.83,0,0,0,.16-.18h-3.39A1.78,1.78,0,0,0,118,104.94Z"/><path class="cls-15" d="M117.85,184.82a1.32,1.32,0,0,1,.39-.25c0-.19-.07-.26-.28-.41l-.15-.11a1.44,1.44,0,0,1-.38.35l0,.06C117.64,184.69,117.74,184.78,117.85,184.82Z"/><path class="cls-15" d="M117.23,69.82a.25.25,0,0,0,.1-.21.66.66,0,0,0-.64-.41.74.74,0,0,1-.26.64,1,1,0,0,0,.42.08A.61.61,0,0,0,117.23,69.82Z"/><path class="cls-15" d="M119.92,204.25a1,1,0,0,0,0,.18.88.88,0,0,0,0,.24c.3-.06.59-.13.86-.21C120.52,204.4,120.23,204.34,119.92,204.25Z"/><path class="cls-15" d="M110,181.85a1.71,1.71,0,0,0-.69-1.29,7.93,7.93,0,0,0-1.79.87,9.5,9.5,0,0,1,.91.41l.63.29a1.14,1.14,0,0,0,.66-.16Z"/><path class="cls-15" d="M110.52,168.56a2.53,2.53,0,0,1-1.49-1.08c-.48-.59-.84-1-1.49-1-.3.14-.42.47-.4,1a5.33,5.33,0,0,0,.61.28,2.6,2.6,0,0,1,1.56,1.16c.15,0,.27,0,.39-.05a2.87,2.87,0,0,1,.64-.06C110.4,168.74,110.46,168.65,110.52,168.56Z"/><path class="cls-15" d="M109.55,101.49c.23.63.46,1.2.8,1.27a1.17,1.17,0,0,1,.71.42c.62-.09.92-.4.92-.93a1.91,1.91,0,0,0-.79-1.44,1.61,1.61,0,0,0-.39-.22,1,1,0,0,1-.55.38A1.71,1.71,0,0,0,109.55,101.49Z"/><path class="cls-15" d="M117,85.16a5.44,5.44,0,0,0-1.76-.46l-.15,0a.86.86,0,0,0,0,.87.69.69,0,0,0,.37.32,1.54,1.54,0,0,1,.82-.09v0c.08-.1.18-.23.27-.32A1.23,1.23,0,0,1,117,85.16Z"/><path class="cls-15" d="M108.58,190.75a1.22,1.22,0,0,0-1,.83.94.94,0,0,0,.62,1h.14c.84,0,1-.54,1-.76A1,1,0,0,0,108.58,190.75Z"/><path class="cls-15" d="M115.94,191.44a1.13,1.13,0,0,0,.33.94.64.64,0,0,0,.88-.18.87.87,0,0,0-.12-1,3.73,3.73,0,0,0-.91.22Z"/><path class="cls-15" d="M122.38,29.28l.11.09a2.76,2.76,0,0,0,1.92-.41,1.22,1.22,0,0,0-.42-1,1.3,1.3,0,0,0-1.64.28.78.78,0,0,0,0,.84A.58.58,0,0,1,122.38,29.28Z"/><path class="cls-15" d="M121.89,81.2a1.69,1.69,0,0,1,.76-.22c.15-.34.13-.57,0-.67a.55.55,0,0,0-.4-.12.88.88,0,0,0-.73.31c-.11.18,0,.44.3.73Z"/><path class="cls-15" d="M120.62,32l-.15.41c-.07.19-.14.38-.2.56a1.74,1.74,0,0,0,1,.19,2.81,2.81,0,0,0,0-.76s0-.08,0-.12a2.29,2.29,0,0,1-.61-.24Z"/><path class="cls-15" d="M133.24,185.14a1.22,1.22,0,0,0,.68,1.19c.11-.31.23-.6.35-.88s.17-.39.25-.59a2.22,2.22,0,0,0-.73-.15A.48.48,0,0,0,133.24,185.14Z"/><path class="cls-15" d="M124.66,109.33v.83l0-.82Z"/><path class="cls-15" d="M126,194.25a2.08,2.08,0,0,1-.25.25c-.11.1-.18.16-.19.26l.22.08a1.06,1.06,0,0,1,.34-.25A1,1,0,0,0,126,194.25Z"/><path class="cls-15" d="M117.5,153.23a1.2,1.2,0,0,1-.68-.4.36.36,0,0,0-.28-.18c-.55.71-.64,1.13-.31,1.46a1.72,1.72,0,0,0,1.29-.26A.55.55,0,0,0,117.5,153.23Z"/><path class="cls-15" d="M122.2,169.42a1,1,0,0,0-.29.55c0,.1.11.26.35.53a4.91,4.91,0,0,1,.58.76.82.82,0,0,1,.06.15,1.65,1.65,0,0,0,.71-.25.56.56,0,0,0,.24-.48,2.16,2.16,0,0,0-1.27-1.57A1,1,0,0,1,122.2,169.42Z"/><path class="cls-15" d="M120.16,7.79a2.79,2.79,0,0,0,.63,0,1.21,1.21,0,0,1,.2-.3.67.67,0,0,0-.74-.55,1,1,0,0,0-.81.34c-.11.19,0,.4.18.55Z"/><path class="cls-15" d="M118.13,130.43h-.06a1.42,1.42,0,0,1-1.11.29l-.09.08-.53.41a1.41,1.41,0,0,1,.35.75c.07.35.12.48.35.53a1.12,1.12,0,0,0-.11-.38.75.75,0,0,1,.34-.93,1.47,1.47,0,0,1,.91-.22C118.19,130.76,118.19,130.5,118.13,130.43Z"/><path class="cls-15" d="M119.86,30l.35.11.16-.1,0,0a2,2,0,0,0-.54-.24,4.67,4.67,0,0,1-.51-.19,1,1,0,0,1-.49-.42l-.24-.05a2.82,2.82,0,0,0-.94-.11,1,1,0,0,0-.31.72,5.65,5.65,0,0,1,.69,0A5.56,5.56,0,0,1,119.86,30Z"/></g></g></g></g></svg>