<svg id="Layer_1" data-name="Layer 1" xmlns="http://www.w3.org/2000/svg" xmlns:xlink="http://www.w3.org/1999/xlink" viewBox="0 0 214 209"><defs><style>.cls-1{fill:none;}.cls-2,.cls-9{fill:#414142;}.cls-3,.cls-7,.cls-8{fill:#e8dbc6;}.cls-3{fill-rule:evenodd;}.cls-4,.cls-9{font-size:53.45px;font-family:MarketFreshInlineBold, Market Fresh Inline Bold;}.cls-10,.cls-4{fill:#c5c72f;}.cls-5{letter-spacing:-0.02em;}.cls-6{letter-spacing:0em;}.cls-7{font-size:17.82px;font-family:Oswald-DemiBold, Oswald;font-weight:700;}.cls-8{font-size:11px;font-family:Oswald-LightItalic, Oswald;letter-spacing:0.1em;}.cls-11{clip-path:url(#clip-path);}.cls-12{opacity:0.4;}.cls-13{fill:#fff;}</style><clipPath id="clip-path"><rect class="cls-1" x="-285.31" y="-4.97" width="741.24" height="741.24"/></clipPath></defs><title>WRT170717</title><circle class="cls-2" cx="104.89" cy="104.2" r="84.82"/><g id="_Group_" data-name="&lt;Group&gt;"><path id="_Compound_Path_" data-name="&lt;Compound Path&gt;" class="cls-3" d="M122.4,30.88a1,1,0,1,1,.71,1.24,1,1,0,0,1-.71-1.24Zm-19.82-2.35a1,1,0,1,1,1,1,1,1,0,0,1-1-1ZM29.79,98.69l137.3-31.81A74.05,74.05,0,0,0,29.79,98.69Zm10.3,44.67,137.3-31.81a74.05,74.05,0,0,1-137.3,31.81Zm63.5,41.21a79.45,79.45,0,1,0-79.3-79.45,79.37,79.37,0,0,0,79.3,79.45ZM140.94,38.29a1,1,0,1,1,.37,1.38,1,1,0,0,1-.37-1.38Zm16,13.39a1,1,0,1,1,1.43,0,1,1,0,0,1-1.43,0ZM28.77,85a1,1,0,1,1,.71,1.24A1,1,0,0,1,28.77,85Zm56-54.16a1,1,0,1,1-1.23-.71,1,1,0,0,1,1.23.71ZM36.51,66.32a1,1,0,1,1,.37,1.38,1,1,0,0,1-.37-1.38ZM48.82,50.25a1,1,0,1,1,0,1.43,1,1,0,0,1,0-1.43Zm16-12.33a1,1,0,1,1-.37,1.38,1,1,0,0,1,.37-1.38Zm104.06,105a1,1,0,1,0,1.38-.37,1,1,0,0,0-1.38.37Zm7.54-18.23a1,1,0,1,0,1.23-.71,1,1,0,0,0-1.23.71ZM156.93,160a1,1,0,1,0,0-1.43,1,1,0,0,0,0,1.43Zm-16,12a1,1,0,1,0,.37-1.38,1,1,0,0,0-.37,1.38Zm-18.54,7.41a1,1,0,1,0,.71-1.24,1,1,0,0,0-.71,1.24Zm-39.57-.52a1,1,0,1,0,1.23-.71,1,1,0,0,0-1.23.71Zm-18.34-7.89a1,1,0,1,0,1.38-.37,1,1,0,0,0-1.38.37ZM48.82,160a1,1,0,1,0,0-1.43,1,1,0,0,0,0,1.43Zm120.1-92.66a1,1,0,1,1,1.38.37,1,1,0,0,1-1.38-.37Zm7.54,18.23a1,1,0,1,1,1.23.71,1,1,0,0,1-1.23-.71ZM179,105.12a1,1,0,1,1,1,1,1,1,0,0,1-1-1Zm-152.89,0a1,1,0,1,1,1,1,1,1,0,0,1-1-1Zm76.44,76.59a1,1,0,1,1,1,1,1,1,0,0,1-1-1ZM36.51,143.92a1,1,0,1,1,1.38.37,1,1,0,0,1-1.38-.37Zm-7.74-18.72a1,1,0,1,1,1.23.71A1,1,0,0,1,28.77,125.21Z"/><path id="_Compound_Path_2" data-name="&lt;Compound Path&gt;" class="cls-3" d="M22,105.12a81.59,81.59,0,1,1,81.59,81.74A81.66,81.66,0,0,1,22,105.12Zm83.85,90.22a4.13,4.13,0,0,0,3.36,2.2c1.38,0,2.63-1,3.42-2.63a2.71,2.71,0,0,1,2.29-1.81,3,3,0,0,1,2.2,1.25,4.3,4.3,0,0,0,3.23,1.79c1.52,0,2.81-1.14,3.44-3.06.44-1.34,1.28-2.11,2.29-2.11a3.16,3.16,0,0,1,2.09,1,4.54,4.54,0,0,0,3,1.39c1.69,0,3-1.34,3.42-3.49.29-1.5,1.14-2.39,2.28-2.39a3.38,3.38,0,0,1,1.93.72,4.84,4.84,0,0,0,2.78,1c1.88,0,3.21-1.54,3.37-3.92.11-1.68,1-2.68,2.25-2.68a3.64,3.64,0,0,1,1.71.49c1.85,1,3.65.89,4.73-.26a4.43,4.43,0,0,0,1-3.38,3.11,3.11,0,0,1,.66-2.33,2.67,2.67,0,0,1,3-.33c1.87.73,3.59.45,4.54-.7a4.32,4.32,0,0,0,.69-3.64,3,3,0,0,1,.44-2.5,2.72,2.72,0,0,1,2.86-.61c1.86.47,3.47,0,4.31-1.11a4.26,4.26,0,0,0,.33-3.85,2.92,2.92,0,0,1,.2-2.63,2.78,2.78,0,0,1,2.69-.86c1.9.24,3.31-.32,4-1.48a4.13,4.13,0,0,0-.05-4,2.45,2.45,0,0,1,2.43-3.83,3.6,3.6,0,0,0,3.27-6,2.45,2.45,0,0,1,1.93-4.1,3.6,3.6,0,0,0,2.5-6.33,2.45,2.45,0,0,1,1.4-4.31,3.61,3.61,0,0,0,1.69-6.59,2.45,2.45,0,0,1,.85-4.45,3.6,3.6,0,0,0,.85-6.75,2.45,2.45,0,0,1,.28-4.53,3.6,3.6,0,0,0,0-6.8,2.45,2.45,0,0,1-.28-4.53,3.6,3.6,0,0,0-.85-6.75,2.45,2.45,0,0,1-.85-4.46,3.6,3.6,0,0,0-1.69-6.59,2.45,2.45,0,0,1-1.4-4.31,3.61,3.61,0,0,0-2.5-6.33,2.45,2.45,0,0,1-1.93-4.1,3.6,3.6,0,0,0-3.27-6,2.45,2.45,0,0,1-2.43-3.83,4.14,4.14,0,0,0,.05-4c-.74-1.16-2.16-1.71-4-1.48a2.79,2.79,0,0,1-2.69-.87,2.93,2.93,0,0,1-.2-2.63A4.25,4.25,0,0,0,171.2,42c-.85-1.16-2.45-1.58-4.31-1.11a2.72,2.72,0,0,1-2.86-.61,3,3,0,0,1-.44-2.5,4.33,4.33,0,0,0-.69-3.64c-1-1.15-2.68-1.43-4.54-.7a2.67,2.67,0,0,1-3-.33,3.1,3.1,0,0,1-.66-2.33,4.42,4.42,0,0,0-1-3.38c-1.08-1.15-2.88-1.27-4.73-.26a3.6,3.6,0,0,1-1.71.49c-1.3,0-2.14-1-2.25-2.68-.16-2.38-1.48-3.92-3.37-3.92a4.86,4.86,0,0,0-2.78,1,3.38,3.38,0,0,1-1.93.73c-1.14,0-2-.9-2.28-2.39-.42-2.16-1.73-3.5-3.42-3.5a4.56,4.56,0,0,0-3,1.39,3.15,3.15,0,0,1-2.09,1c-1,0-1.85-.77-2.3-2.1-.63-1.92-1.92-3.06-3.44-3.06a4.3,4.3,0,0,0-3.23,1.79,3,3,0,0,1-2.2,1.24,2.71,2.71,0,0,1-2.29-1.82c-.8-1.67-2-2.63-3.43-2.63a4.13,4.13,0,0,0-3.36,2.2c-1.26,2-3.27,2-4.52,0A4.13,4.13,0,0,0,98,12.7c-1.38,0-2.63,1-3.42,2.63a2.71,2.71,0,0,1-2.29,1.82,3,3,0,0,1-2.2-1.24,4.3,4.3,0,0,0-3.23-1.79c-1.52,0-2.81,1.15-3.44,3.06-.44,1.34-1.28,2.11-2.3,2.11a3.15,3.15,0,0,1-2.09-1,4.56,4.56,0,0,0-3-1.39c-1.69,0-3,1.34-3.42,3.5-.29,1.5-1.14,2.39-2.28,2.39a3.38,3.38,0,0,1-1.93-.73,4.85,4.85,0,0,0-2.78-1c-1.89,0-3.21,1.54-3.37,3.92-.11,1.68-1,2.68-2.26,2.68a3.65,3.65,0,0,1-1.71-.49c-1.85-1-3.65-.89-4.73.26a4.43,4.43,0,0,0-1,3.38,3.09,3.09,0,0,1-.67,2.33,2.66,2.66,0,0,1-3,.33c-1.87-.73-3.59-.45-4.54.7a4.3,4.3,0,0,0-.69,3.63,3,3,0,0,1-.44,2.5,2.72,2.72,0,0,1-2.86.61c-1.86-.47-3.47,0-4.31,1.11a4.24,4.24,0,0,0-.33,3.85,2.92,2.92,0,0,1-.2,2.63,2.79,2.79,0,0,1-2.69.87c-1.89-.24-3.31.32-4,1.48a4.14,4.14,0,0,0,.05,4,2.82,2.82,0,0,1,.08,2.73,2.82,2.82,0,0,1-2.5,1.1,4,4,0,0,0-3.75,1.82,4,4,0,0,0,.48,4.15,2.83,2.83,0,0,1,.42,2.7,2.82,2.82,0,0,1-2.34,1.4A4,4,0,0,0,17.65,71a4,4,0,0,0,1,4.05,2.45,2.45,0,0,1-1.4,4.31A3.61,3.61,0,0,0,15.56,86a2.45,2.45,0,0,1-.85,4.46,3.6,3.6,0,0,0-.85,6.75,2.45,2.45,0,0,1-.28,4.53,3.61,3.61,0,0,0,0,6.8,2.45,2.45,0,0,1,.28,4.53,3.6,3.6,0,0,0,.85,6.75,2.45,2.45,0,0,1,.85,4.45,3.61,3.61,0,0,0,1.69,6.59,2.45,2.45,0,0,1,1.4,4.31,4,4,0,0,0-1,4.06,4,4,0,0,0,3.49,2.27,2.82,2.82,0,0,1,2.35,1.4,2.83,2.83,0,0,1-.42,2.7,4,4,0,0,0-.48,4.14,4,4,0,0,0,3.75,1.82,2.83,2.83,0,0,1,2.5,1.1,2.84,2.84,0,0,1-.08,2.73,4.13,4.13,0,0,0-.05,4c.74,1.16,2.16,1.72,4,1.48a2.78,2.78,0,0,1,2.69.86,2.91,2.91,0,0,1,.2,2.63,4.25,4.25,0,0,0,.33,3.85c.85,1.16,2.45,1.58,4.31,1.11a2.72,2.72,0,0,1,2.86.61,3,3,0,0,1,.44,2.5,4.3,4.3,0,0,0,.69,3.64c1,1.15,2.68,1.43,4.54.7a2.67,2.67,0,0,1,3,.33,3.09,3.09,0,0,1,.67,2.33,4.44,4.44,0,0,0,1,3.38c1.09,1.15,2.88,1.27,4.73.26a3.61,3.61,0,0,1,1.71-.49c1.3,0,2.15,1,2.26,2.68.16,2.38,1.48,3.92,3.37,3.92a4.84,4.84,0,0,0,2.78-1,3.39,3.39,0,0,1,1.93-.72c1.14,0,2,.89,2.28,2.39.42,2.16,1.73,3.49,3.42,3.49a4.55,4.55,0,0,0,3-1.39,3.15,3.15,0,0,1,2.09-1c1,0,1.85.77,2.3,2.11.63,1.92,1.92,3.06,3.44,3.06a4.3,4.3,0,0,0,3.23-1.79,3,3,0,0,1,2.2-1.25,2.71,2.71,0,0,1,2.29,1.81c.79,1.67,2,2.63,3.42,2.63a4.13,4.13,0,0,0,3.36-2.2C102.58,193.37,104.59,193.37,105.85,195.34Z"/><text class="cls-4" transform="matrix(0.94, -0.21, 0, 1, 53.52, 137.09)">W<tspan class="cls-5" x="48.21" y="0">R</tspan><tspan class="cls-6" x="79.53" y="0">T</tspan></text><text class="cls-7" transform="matrix(0.97, -0.22, 0.02, 1, 46.27, 89.24)">EST 2010</text><text class="cls-8" transform="matrix(0.98, -0.22, 0.01, 1, 99.06, 144.95)">GROW BETTER</text><text class="cls-9" transform="matrix(0.94, -0.21, 0, 1, 50.81, 137.09)">W<tspan class="cls-5" x="48.21" y="0">R</tspan><tspan class="cls-6" x="79.53" y="0">T</tspan></text></g><path class="cls-10" d="M87.93,56.82S82.52,55,83.45,47.35c.83-6.79,7.07-7.32,7-11.29a6,6,0,0,1,1.89,5.68S84.9,46.41,87.93,56.82Z"/><path class="cls-10" d="M112.39,41.53C108.9,61.62,93.2,47.91,90.52,55.91c0,0-3.61-9.25,12.21-8.69,0,0-9.4-2.27-12.56,2.59,0,0-3.39,4.53,1.32,8.78,0,0-6.29-3.24-1.9-12.44C94.28,36.35,108.32,45.6,112.39,41.53Z"/><g class="cls-11"><g class="cls-12"><path class="cls-13" d="M192,136.27l-.18-.86-.12,0Z"/><path class="cls-13" d="M191.67,135.39a3.47,3.47,0,0,1,1.34-.59c.37-.09.57-.14.8-.75a1,1,0,0,1-.52-.6c-.16-.76-.54-.76-.67-.76a4.69,4.69,0,0,0-2.72,1.64,2.43,2.43,0,0,0-.6,1.06,1.09,1.09,0,0,0,.41-.23,1.41,1.41,0,0,1,1-.27,1.29,1.29,0,0,1,.88.39Z"/><path class="cls-13" d="M188.49,198a2.08,2.08,0,0,0-.79.09,5,5,0,0,1-.63.12,3.36,3.36,0,0,1-2.3,2.61,1.52,1.52,0,0,1-.9.05,5.54,5.54,0,0,0-1.23-.18c-.36,0-.46.08-.51.12-.32.26-.2,1.08-.09,1.8a5.58,5.58,0,0,1,.06,2.12,1.73,1.73,0,0,0,1,.19c.32-.37.24-.64-.14-1.2a.67.67,0,0,1,0-.73,1.14,1.14,0,0,1,.74-.49,5.1,5.1,0,0,0,2.7-1.92,1.41,1.41,0,0,1,1.33-.35,2.37,2.37,0,0,0,1.7-.34A2.07,2.07,0,0,0,188.49,198Z"/><path class="cls-13" d="M197.44,163.39a4,4,0,0,1,2.19-.51h.62a2.13,2.13,0,0,0,.8-.11,6.13,6.13,0,0,0-.8-.45c-.75-.38-1.66-.84-1.81-1.84a5.43,5.43,0,0,0-2.86.48C195.29,162.09,196,163,197.44,163.39Z"/><path class="cls-13" d="M198.09,167.66a1,1,0,0,1-.41-.35.76.76,0,0,0-.11.43l.24.1A1,1,0,0,0,198.09,167.66Z"/><path class="cls-13" d="M197,129.34c-.08-.3-.16-.61-.23-.94-.31-1.33-.75-3.15-1.64-3.15a2.24,2.24,0,0,0-1,.37c-.89,1.88.28,2.52,2.24,3.4Z"/><path class="cls-13" d="M191.75,176.63a1.23,1.23,0,0,1,.24.17,9.61,9.61,0,0,0,1.11-.27A2.63,2.63,0,0,0,191.75,176.63Z"/><path class="cls-13" d="M193.14,190.58a.47.47,0,0,1,.07.14.63.63,0,0,1,0,.42l.27.15a1.79,1.79,0,0,1,.42-.11,1.05,1.05,0,0,0-.31-.73A1.61,1.61,0,0,1,193.14,190.58Z"/><path class="cls-13" d="M193.78,167a2.53,2.53,0,0,0,0-.67,1,1,0,0,1-.26-.25.68.68,0,0,0-.24.11.52.52,0,0,0-.19.43,1.18,1.18,0,0,0,.62,1A4.54,4.54,0,0,1,193.78,167Z"/><path class="cls-13" d="M172.4,192.31a1.52,1.52,0,0,0-1.37-1.05,3.32,3.32,0,0,0-1.67.58,5.78,5.78,0,0,1,.27,2.28,3,3,0,0,0,.45,2.16h.12a3.22,3.22,0,0,1,1,.15A3.57,3.57,0,0,0,172.4,192.31Z"/><path class="cls-13" d="M168.35,201.13a.84.84,0,0,0-.32,1.13,1.48,1.48,0,0,0,1,.8.77.77,0,0,1,.31-.56,1.87,1.87,0,0,0,.73-1l0,0A2.47,2.47,0,0,0,168.35,201.13Z"/><path class="cls-13" d="M169.11,206.75a.72.72,0,0,1,.13.41.55.55,0,0,0,.28.05.88.88,0,0,0,.23,0,.63.63,0,0,1,0-.49c-.17,0-.37,0-.63,0Z"/><path class="cls-13" d="M197.09,173.08a.47.47,0,0,0,0,.47.77.77,0,0,0,.2.23l0-.06a.8.8,0,0,0,.22-.35,3.2,3.2,0,0,1-.31-.2A.32.32,0,0,0,197.09,173.08Z"/><path class="cls-13" d="M179,164.74a1.62,1.62,0,0,0-1.35,1.2.49.49,0,0,0,.33.6c.41-.17.81-.4,1.18-.6l.69-.37a1,1,0,0,0-.27-.25A1.59,1.59,0,0,1,179,164.74Z"/><path class="cls-13" d="M191.37,193.52l-.06.07-.08.1.12.08a3.08,3.08,0,0,0,1.52.64.29.29,0,0,0-.05-.13C192.72,194.11,192.4,193.82,191.37,193.52Z"/><path class="cls-13" d="M197.46,179.88a.48.48,0,0,0-.08.45,1.22,1.22,0,0,1,.34-.16c-.41-1.32.69-2.09,1.58-2.71a8.84,8.84,0,0,0,.74-.55,4.26,4.26,0,0,1-1.8-1.2c-.13-.13-.26-.26-.4-.37a1.54,1.54,0,0,1-.58.37,1.59,1.59,0,0,1-1.07,0,1.4,1.4,0,0,1-.33-.19c0,.14,0,.28,0,.43a.65.65,0,0,1-.08.35.74.74,0,0,1,.15.33,3.09,3.09,0,0,0,1.26,2.18A.72.72,0,0,1,197.46,179.88Z"/><path class="cls-13" d="M212.39,147.66a1.8,1.8,0,0,1-.38,0,.61.61,0,0,1,0,.26c0,.09,0,.19,0,.29l.29.1.14.05a1.83,1.83,0,0,0,.29-.16.69.69,0,0,1-.2-.47.47.47,0,0,1,0-.13Z"/><path class="cls-13" d="M213.22,138a1.48,1.48,0,0,1-.54.13,1.45,1.45,0,0,1-.43.2l-.35.09c-1.22.3-1.77.51-1.83,1.1h0a1,1,0,0,1,.23.17,6.53,6.53,0,0,1,1.11-.09,8.19,8.19,0,0,1,2.69.46l.08,0a1.34,1.34,0,0,1,.38-.11A2.24,2.24,0,0,0,213.22,138Z"/><path class="cls-13" d="M197.69,195.56h0c.18,0,.37-.16.54-.42-.57-.18-.88-.45-.92-.82l-.1,0a.65.65,0,0,0-.13.81A.82.82,0,0,0,197.69,195.56Z"/><path class="cls-13" d="M212.17,155.66a1.49,1.49,0,0,1-.94-.2.8.8,0,0,1-.41-.66,3.08,3.08,0,0,1,.35-1.33,2.36,2.36,0,0,0,.29-1.08,2.07,2.07,0,0,1-.66-.81,5.82,5.82,0,0,1-1.33-.13l-.29-.05c0,.11,0,.22,0,.33a.87.87,0,0,1-.45.6.69.69,0,0,1,.16.67,11.47,11.47,0,0,1-1,2.1l-.23.39.06,0a1,1,0,0,1,.49.65,4.3,4.3,0,0,0,1.38-.21,6.25,6.25,0,0,1,1.22-.26h.15a1.12,1.12,0,0,1,1.17.76c0,.29.29.41,1.18.62l.19,0c1-.32,1.23-.58,1-1.45A9.55,9.55,0,0,0,212.17,155.66Z"/><path class="cls-13" d="M212.78,160.3c0-.07-.16-.14-.42-.14a.46.46,0,0,1,0,.09h0a1.28,1.28,0,0,0,.42.09A.06.06,0,0,0,212.78,160.3Z"/><path class="cls-13" d="M181.76,175a2.23,2.23,0,0,0,.67-.13,1.58,1.58,0,0,1,1.22.12.7.7,0,0,0,.56-.75.91.91,0,0,0-.93-.89,7.35,7.35,0,0,0-2.16,1.24,1.4,1.4,0,0,1-1,.3H180a4.15,4.15,0,0,1,0,.42,2.53,2.53,0,0,1,.42.15l.19.08.07-.08A1.3,1.3,0,0,1,181.76,175Z"/><path class="cls-13" d="M91.65,202.77a.87.87,0,0,1-.49-.6,2.47,2.47,0,0,0-.2-.56l-.08-.18a2,2,0,0,0-.34.18l-.35.2v.93l.16.07a1.94,1.94,0,0,0,1.07.21A1,1,0,0,0,91.65,202.77Z"/><polygon class="cls-13" points="72.51 151.57 72.52 150.7 72.51 150.7 72.51 151.57"/><path class="cls-13" d="M108.8,47a1.08,1.08,0,0,1-.69-.38.6.6,0,0,1-.14-.45.64.64,0,0,1-.09-.29,2.26,2.26,0,0,0-1.15.26.6.6,0,0,0-.3.53,1.65,1.65,0,0,0,1.42,1.41c.38,0,.75-.37,1-1A.32.32,0,0,0,108.8,47Z"/><path class="cls-13" d="M111.41,182.43a.91.91,0,0,0-.28-1,2,2,0,0,0-2.35-.05c-.32.35-.32.92,0,1.62a3,3,0,0,0,1,.18C110.63,183.22,111.28,182.89,111.41,182.43Z"/><path class="cls-13" d="M74.33,169.12c0,.1,0,.27.11.57.42,0,.53-.08.6-.31l-.2-.1A1.22,1.22,0,0,0,74.33,169.12Z"/><path class="cls-13" d="M74.34,157.16l.17,0,.19,0,.13,0a3.93,3.93,0,0,1,0-.44c0-.52.12-1.4-.31-1.75a.83.83,0,0,0-.55-.17.82.82,0,0,0-.52.14,1.65,1.65,0,0,1-.69.16.91.91,0,0,1,.48.49A4.84,4.84,0,0,0,74.34,157.16Z"/><path class="cls-13" d="M130.59,182.75a6.34,6.34,0,0,1,.09,1,1.2,1.2,0,0,1,.31-.17,1.45,1.45,0,0,1,.45-.09,2.29,2.29,0,0,1,.37-.37l.2-.18A8.35,8.35,0,0,1,130.59,182.75Z"/><path class="cls-13" d="M127.42,188.95l-.25.27a5.12,5.12,0,0,1,1,.53,3.85,3.85,0,0,0,.89.47,1.43,1.43,0,0,0,1.15-.81,1.28,1.28,0,0,0-.59-1.45A2.44,2.44,0,0,0,127.42,188.95Z"/><path class="cls-13" d="M129.93,153.86a1.7,1.7,0,0,0-.18.87,1.27,1.27,0,0,1,.42-.22s0-.07,0-.11a1.39,1.39,0,0,0,.07-.58A1.85,1.85,0,0,1,129.93,153.86Z"/><path class="cls-13" d="M89.68,184.61a3.07,3.07,0,0,1-.79.27,1.82,1.82,0,0,0-.49.16,1.43,1.43,0,0,1-1.19.29,1.07,1.07,0,0,1-.88-.66,1.18,1.18,0,0,0-.31-.54,1.65,1.65,0,0,0-1.23-.37,1.35,1.35,0,0,1-1.25-.65,3.94,3.94,0,0,0-.25-.52H83l0,.11c.45,2.21,1,3.17,2.74,3a1.28,1.28,0,0,1,1.26.54,2.16,2.16,0,0,1,.23.9c0,.09,0,.18,0,.25a2.24,2.24,0,0,0,1.13-.33,5.37,5.37,0,0,1,1.64-.54,6.69,6.69,0,0,1-.05-.71A1.78,1.78,0,0,0,89.68,184.61Z"/><path class="cls-13" d="M14,181.27a1.15,1.15,0,0,1-1-.62.89.89,0,0,0-.9-.64A3.09,3.09,0,0,0,10,181a1.37,1.37,0,0,0-.43,1.39l.11,0a1.47,1.47,0,0,0,.61-.35l.21-.15a1.44,1.44,0,0,1,.81-.24,1.4,1.4,0,0,1,.44.06.93.93,0,0,1,.74.76c0,.57.31,1.17,1.91,1.41a1.42,1.42,0,0,0,.79-1.65A1.28,1.28,0,0,0,14,181.27Z"/><path class="cls-13" d="M16.18,160.33l-.39-.09a1.64,1.64,0,0,0-.13,1,1.5,1.5,0,0,0,.19.54,2.28,2.28,0,0,0,.58-1.38Z"/><path class="cls-13" d="M29.67,206.55a1.49,1.49,0,0,1,.62.16,1.31,1.31,0,0,1,.09-.3,6.54,6.54,0,0,1,.55-.82c.54-.7.84-1.15.57-1.83a1.74,1.74,0,0,0-.89-1,1.15,1.15,0,0,1-.35-.22,1.39,1.39,0,0,1-.45.15c-1.28.2-2.67,1.47-2.71,2.48C27.07,206,27.93,206.46,29.67,206.55Z"/><path class="cls-13" d="M-.6,158.29c.21.2.28.17.44.15a1.1,1.1,0,0,0,.67-.62c-.62-.27-1.08-.42-1.6-.59l-.69-.23a1.42,1.42,0,0,1-.81-.24h0a1.75,1.75,0,0,1-.77.16h-.31a3.54,3.54,0,0,1,.14,1.68,2.21,2.21,0,0,0,.18-.17A1.82,1.82,0,0,1-2,157.8,1.62,1.62,0,0,1-.6,158.29Z"/><path class="cls-13" d="M70.91,154.25a1.06,1.06,0,0,0-.11.71,1.37,1.37,0,0,0,.45,0,5.5,5.5,0,0,1,.85-.09h0a1,1,0,0,1-.19-.12A4,4,0,0,0,70.91,154.25Z"/><path class="cls-13" d="M71.41,167.1a.53.53,0,0,1,0-.14v-.33H71.2a.18.18,0,0,0,0,.07c0,.15.06.31.1.46Z"/><path class="cls-13" d="M71.43,180.25c.05-.5.16-1.66-.55-1.86-.54-.16-.85-.57-.74-1a2.82,2.82,0,0,0,.06-1.58H69l-.15.22a2.7,2.7,0,0,1-2.53,1.48,1.9,1.9,0,0,1-.7.85c-.31.25-.52.41-.45.83a20.24,20.24,0,0,1,2.52.73,22.61,22.61,0,0,0,2.92.83,1.32,1.32,0,0,1,.55.22l.32-.09a.64.64,0,0,1-.08-.36Z"/><path class="cls-13" d="M69.49,202.42a1.34,1.34,0,0,0-.77.19.41.41,0,0,0-.11.33A1.23,1.23,0,0,0,69,203h0a.67.67,0,0,0,.59-.27A.25.25,0,0,0,69.49,202.42Z"/><path class="cls-13" d="M29.91,198.5a2.53,2.53,0,0,1,.07,1.35c-.09.71-.08,1.08.27,1.26a1.17,1.17,0,0,1,.23.16,1.48,1.48,0,0,1,.69-.16h.66a1,1,0,0,0,.36-1.38A2.72,2.72,0,0,0,29.91,198.5Z"/><path class="cls-13" d="M32.88,146.49a2,2,0,0,1-.23.36.24.24,0,0,0,.09.15,1.66,1.66,0,0,0,1.06,0c.16-.67.06-1-.33-1.23A1.51,1.51,0,0,0,32.88,146.49Z"/><path class="cls-13" d="M46.52,200.31a.86.86,0,0,1-.24-.29,1.07,1.07,0,0,1-.6-.46,2.67,2.67,0,0,1-.81.53h0a5.39,5.39,0,0,1,0,.85s0,.09,0,.13a1.95,1.95,0,0,1,1.22.06C46.38,200.85,46.55,200.67,46.52,200.31Z"/><path class="cls-13" d="M42,55.15a2.06,2.06,0,0,0-.47-1.08c-.12-.17-.22-.34-.31-.5a1.72,1.72,0,0,0-1.57.58,1.13,1.13,0,0,0,.07,1.32A7.82,7.82,0,0,0,42,55.15Z"/><path class="cls-13" d="M39.21,70h.2l.6,0a2.46,2.46,0,0,1-.38-.38l-.17-.18A2.1,2.1,0,0,0,39.21,70Z"/><path class="cls-13" d="M38.14,181.08a1.25,1.25,0,0,0-.43,1.17.8.8,0,0,0,.41.11l.39,0,.48,0a5,5,0,0,1,.57-.81,3.61,3.61,0,0,0,.59-.93A3,3,0,0,0,38.14,181.08Z"/><path class="cls-13" d="M39.37,188.61a.89.89,0,0,0-.13.35,1.08,1.08,0,0,1,.45.32l.06,0s0,0,0-.12a1,1,0,0,0-.35-.59Z"/><path class="cls-13" d="M48.82,105.07h-.3c-1,0-1.32.33-1.5.59a2,2,0,0,0,.29,2.22,2,2,0,0,1,.4,0l.46,0a3.78,3.78,0,0,0,1,0A2.11,2.11,0,0,0,48.82,105.07Z"/><path class="cls-13" d="M49.06,202.07a.88.88,0,0,0,0-.26.54.54,0,0,0-.31.16.44.44,0,0,0-.08.4H49A.83.83,0,0,0,49.06,202.07Z"/><path class="cls-13" d="M44.43,38.08a.73.73,0,0,0-.24-.6l0,0a1,1,0,0,1-.32.25c-.08.21-.18.41-.27.61-.28.58-.45,1-.32,1.32l.14.14A2.07,2.07,0,0,0,44.43,38.08Z"/><path class="cls-13" d="M44.13,207.11a.69.69,0,0,1,.13-.52c.17-.24.16-.33,0-.44a1.79,1.79,0,0,0-1,.15l.3.29A3.84,3.84,0,0,0,44.13,207.11Z"/><path class="cls-13" d="M80,174.44v0a.55.55,0,0,0,.16.2,1.56,1.56,0,0,1,.79-.14.93.93,0,0,0,.06-.17A1.58,1.58,0,0,1,80,174.44Z"/><path class="cls-13" d="M45.93,182.3a3.31,3.31,0,0,0,.78.18,1.09,1.09,0,0,1,.22-.18l-.2-.15A5.07,5.07,0,0,1,45,182l-.46-.09a1.05,1.05,0,0,1-.21.16,2.64,2.64,0,0,1,.43,0A3.42,3.42,0,0,1,45.93,182.3Z"/><path class="cls-13" d="M43.39,64.56c.12-.3.27-.84,0-1.13a1.15,1.15,0,0,0-.74-.21c-.91,0-2,.48-2.09,1s.4.72,1.34,1a4.6,4.6,0,0,1,1-.36C43.3,64.73,43.35,64.69,43.39,64.56Z"/><path class="cls-13" d="M40.59,73.23c.06-.56,0-.77-.1-.92a.74.74,0,0,1-.19-.37,1.61,1.61,0,0,1-.57-.07,3.89,3.89,0,0,1-.27,1c-.21.54-.27.75.08,1l.54-.07c.13,0,.36,0,.48-.06S40.58,73.37,40.59,73.23Z"/><path class="cls-13" d="M42,186.82a.88.88,0,0,1,.19-.22,3.09,3.09,0,0,0-1.57-.67.27.27,0,0,0-.27.18,5,5,0,0,1,1.34.55Z"/><path class="cls-13" d="M69.41,165.2a1.69,1.69,0,0,1,.33-.05h.05a1.55,1.55,0,0,1,.45.07,3.24,3.24,0,0,1,.41-.44,1,1,0,0,1-.26-.25l-.08-.12a.72.72,0,0,0-.09-.13,1.17,1.17,0,0,1-.39-.13.7.7,0,0,0-.41.37A.76.76,0,0,0,69.41,165.2Z"/><path class="cls-13" d="M124.09,190.4a1.63,1.63,0,0,1,.61,0c0-.09,0-.19,0-.29l0-.33a.68.68,0,0,1,.17-.4.72.72,0,0,1-.15-.4,1.87,1.87,0,0,0-.62-1.46,4.37,4.37,0,0,0-.55,0c-1.52,0-1.64,1-1.64,1.36A1.66,1.66,0,0,0,124.09,190.4Z"/><path class="cls-13" d="M67.76,65.34a1.09,1.09,0,0,1,.48.37,1.2,1.2,0,0,0,.19-.15,2.13,2.13,0,0,1,.45-.33V64.9a.79.79,0,0,1,.38-.65,2.09,2.09,0,0,0-1.41-.2,2.19,2.19,0,0,0-.31.74C67.47,65.22,67.68,65.31,67.76,65.34Z"/><polygon class="cls-13" points="68.48 45.63 68.47 45.63 68.48 46.5 68.48 45.63"/><path class="cls-13" d="M76.42,106.07h0a.7.7,0,0,1,0-.23.5.5,0,0,0,0-.34.39.39,0,0,0-.46-.24.43.43,0,0,0-.13.48A.76.76,0,0,0,76.42,106.07Z"/><path class="cls-13" d="M75.26,126.52a2,2,0,0,0,.45-1.74,4,4,0,0,0-1-.36,1.06,1.06,0,0,1-1,.76,4.72,4.72,0,0,0,.39,1.81A2.11,2.11,0,0,0,75.26,126.52Z"/><path class="cls-13" d="M76.15,130.31a1.47,1.47,0,0,1,.47-.16,2.22,2.22,0,0,1,.59-.81,1.62,1.62,0,0,0,.4-.5,1.2,1.2,0,0,1-.35-.2.78.78,0,0,1-.29-.48c-.77.15-.84.52-.92,1.24a2.68,2.68,0,0,1-.21.9l.22.06Z"/><path class="cls-13" d="M47,168a1.55,1.55,0,0,0-1.89-.5A3.33,3.33,0,0,1,44,169.32c-.13.13-.25.26-.36.4a2.07,2.07,0,0,1,.51.39,1.79,1.79,0,0,0,.2.17,4,4,0,0,1,2.42-1A1,1,0,0,0,47,168Z"/><path class="cls-13" d="M50.94,148.44a1.92,1.92,0,0,0,.8-1.41.74.74,0,0,0-.69-.77,1.26,1.26,0,0,1-.84.42h-.07a1.89,1.89,0,0,0-.71,1.4,1.42,1.42,0,0,0,.43.22,1.14,1.14,0,0,1,.61.39A1.94,1.94,0,0,0,50.94,148.44Z"/><path class="cls-13" d="M54.82,199.87c-.92,0-1.61.14-1.74,1a1.61,1.61,0,0,1,.27.18c.16.12.16.1.23.1l.17-.14A6.1,6.1,0,0,0,54.88,200Z"/><path class="cls-13" d="M64.32,201.35a7.58,7.58,0,0,1-1.77.57c.3,1.41-1,2.33-2.07,3.08l-.29.2.38,0,.75,0a7.9,7.9,0,0,1,1,.06,3.09,3.09,0,0,1,2-1c.68-.12,1-.2,1.12-.55a1.86,1.86,0,0,0,.08-.86,1.59,1.59,0,0,1,.15-1,.91.91,0,0,1,.1-.12.64.64,0,0,1-.12-.31l0-.14a.62.62,0,0,1,.06-.42A8.13,8.13,0,0,0,64.32,201.35Z"/><path class="cls-13" d="M67,149a1.74,1.74,0,0,1,0-.32.29.29,0,0,1,0-.05l-.21-.05a2.39,2.39,0,0,1-.43.28h0a5.11,5.11,0,0,1,.6.15Z"/><path class="cls-13" d="M61.34,60.94a1.26,1.26,0,0,0,.26,1.68,6.2,6.2,0,0,0,2.53-.13,7.36,7.36,0,0,1,1.62-.21c-.13-.25-.26-.5-.41-.75a17.62,17.62,0,0,1-.88-1.73A3.49,3.49,0,0,0,61.34,60.94Z"/><path class="cls-13" d="M39.85,142.55h-.24l-.21.6a10.48,10.48,0,0,0-.49,1.68h0a2.24,2.24,0,0,0,.82.33,1.64,1.64,0,0,1,0-1.5A1.29,1.29,0,0,0,39.85,142.55Z"/><path class="cls-13" d="M61.6,6.87a1.23,1.23,0,0,1,.78.42A1.18,1.18,0,0,0,63,7a1.27,1.27,0,0,0,.36-.91,1.49,1.49,0,0,0-.89-1.39,1.17,1.17,0,0,1-.66.39,2.58,2.58,0,0,0-.79.36C61,6.77,61.38,6.83,61.6,6.87Z"/><path class="cls-13" d="M62.92,187.51l-.22.09a1.66,1.66,0,0,1,.29.07.9.9,0,0,1,.72.83s0,.05,0,.09l.37-.17c.41-.17.62-.26.61-.54a6.72,6.72,0,0,1-.65-.22A1.7,1.7,0,0,0,62.92,187.51Z"/><path class="cls-13" d="M55.07,25.74c-.2.33,0,.64.26.88h.19c.18,0,.23,0,.46-.26a1.83,1.83,0,0,1,.68-.5.66.66,0,0,0-.66-.6A1.13,1.13,0,0,0,55.07,25.74Z"/><path class="cls-13" d="M59.11,201.82a.78.78,0,0,0-.18-.89,2.13,2.13,0,0,0-1.24.3,1,1,0,0,0-.37.7A5.63,5.63,0,0,0,59.11,201.82Z"/><path class="cls-13" d="M54.55,4.52a1.45,1.45,0,0,1,.33-.15,1.9,1.9,0,0,1,.65-2,6.82,6.82,0,0,1-.94.38A1.27,1.27,0,0,1,54.66,4,1.23,1.23,0,0,0,54.55,4.52Z"/><path class="cls-13" d="M55.62,48.53c.36.17.68.35,1,.53l.38.22a1.56,1.56,0,0,0,.67-1,1.92,1.92,0,0,0-.39-1.56C55.9,46.7,55.68,47.1,55.62,48.53Z"/><path class="cls-13" d="M60.67,115.09a1.68,1.68,0,0,0,1,.25.88.88,0,0,1,.46-.5l.21-.09c-.1-.45-.61-.72-1.54-1a.66.66,0,0,1,0,.49A1.65,1.65,0,0,0,60.67,115.09Z"/><path class="cls-13" d="M60.28,89.83a.72.72,0,0,0,.4-.16.25.25,0,0,0,0-.18,2,2,0,0,0-1.06,0l0,0a.94.94,0,0,1,.37.37Z"/><path class="cls-13" d="M56.85,112.83a2.75,2.75,0,0,0,2.43.34l.23,0a.69.69,0,0,1-.15-.64,5.2,5.2,0,0,0-.25-2.57,10.21,10.21,0,0,0-3.23.67A2.77,2.77,0,0,0,56.85,112.83Z"/><path class="cls-13" d="M61.15,186.88v-.08a2.51,2.51,0,0,1-.19.67c-.19.5-.16.62,0,.7s.14,0,.3-.09a1.63,1.63,0,0,1,.58-.31,1.23,1.23,0,0,1,.29-.12l-.29-.07A.92.92,0,0,1,61.15,186.88Z"/><path class="cls-13" d="M45.72,161.57a1.17,1.17,0,0,0,.16.2,2.54,2.54,0,0,1,.18.21h.73a.67.67,0,0,0,.11-.62.82.82,0,0,0-.13-.28,1.28,1.28,0,0,1-.7.34A1.77,1.77,0,0,0,45.72,161.57Z"/><path class="cls-13" d="M57.2,100.2c0-.17,0-.29,0-.39a.72.72,0,0,0,0-.21h-.25a2.11,2.11,0,0,0-1.83.81,1.08,1.08,0,0,0-.15,1A9.91,9.91,0,0,1,57.2,100.2Z"/><path class="cls-13" d="M56.44,72a1.48,1.48,0,0,1,.52.13.9.9,0,0,0,.21-.56c0-.29-.16-.78-1.35-.78-.69.5-.51,1-.44,1.13a.82.82,0,0,0,.22.28A1.37,1.37,0,0,1,56.2,72h.25Z"/><path class="cls-13" d="M46.25,88.94l.09.87v-.86Z"/><path class="cls-13" d="M50,100a1.26,1.26,0,0,0,.2.29l.1.14h1.13c.06-.16.14-.31.23-.48.3-.6.41-.93.21-1.19a1.28,1.28,0,0,1-.52-.23.85.85,0,0,1-.32-.42c-.86,0-1.1.21-1.53,1.1l0,.09-.09.17A1,1,0,0,1,50,100Z"/><path class="cls-13" d="M53.48,179.47a.82.82,0,0,1-.18-.39.7.7,0,0,0-.25-.42,1.89,1.89,0,0,0-2,.07,1.06,1.06,0,0,0,.28,1,1.19,1.19,0,0,0,.78.25,1.48,1.48,0,0,0,1-.31A1.25,1.25,0,0,1,53.48,179.47Z"/><path class="cls-13" d="M60.54,185.84a1,1,0,0,1,.52.47c0-.16,0-.33-.06-.5a9.86,9.86,0,0,0-.44-2.15c-.15-.43.17-.88.74-1,.42-.11.5-.24.53-.3.17-.29,0-.8-.65-1.52-.69-.08-1,.07-1.11.21a1.88,1.88,0,0,0,.13,1.83c.21.42,0,.88-.59,1.08a4.2,4.2,0,0,1-2.41.36.78.78,0,0,1-.12.15,7.87,7.87,0,0,1,2.59,1C59.94,185.54,60.22,185.69,60.54,185.84Z"/><path class="cls-13" d="M60.33,130.77c0-.69-.78-1.45-1.69-2a1.2,1.2,0,0,1-.33.43,1.53,1.53,0,0,1-.54.3l0,0a1.75,1.75,0,0,1,.22,1.61,7.47,7.47,0,0,0,1.69.7A1.21,1.21,0,0,0,60.33,130.77Z"/><path class="cls-13" d="M58.76,170s-.06.17-.06.39H59a3.68,3.68,0,0,0,.59,0,.35.35,0,0,0,0-.16,1.4,1.4,0,0,1-.56-.23A.7.7,0,0,0,58.76,170Z"/><path class="cls-13" d="M56.72,181.63c0-.9-.58-1.25-1.65-1.65a.6.6,0,0,1,.06.22,3.07,3.07,0,0,0,.22.73,3.66,3.66,0,0,1,.26.86A1.9,1.9,0,0,0,56.72,181.63Z"/><path class="cls-13" d="M103.4,95.34l-.15.21a1.32,1.32,0,0,1,.73.32,1.43,1.43,0,0,1,1-.31,1.81,1.81,0,0,1,.45.09,2,2,0,0,0-.32-.56,1.94,1.94,0,0,1-.37-.71C104.1,94.43,103.84,94.71,103.4,95.34Z"/><polygon class="cls-13" points="104.3 162.19 104.34 163.06 104.34 162.19 104.3 162.19"/><path class="cls-13" d="M104.82,177.95c.85-.9.42-1.54-.09-2.27a2.24,2.24,0,0,1-.59-1.56,2.59,2.59,0,0,1-.63.07c-.71,1-1.33,2.75-.75,3.51C103.08,178.11,103.76,178.18,104.82,177.95Z"/><path class="cls-13" d="M104.25,132.22a3.82,3.82,0,0,1,.41-.22.93.93,0,0,0-.23-.67h0a1.35,1.35,0,0,1-.64-.24.71.71,0,0,0-.46.47.83.83,0,0,0,.32.91A1.39,1.39,0,0,0,104.25,132.22Z"/><path class="cls-13" d="M54.86,19.77c.18,0,.39-.17.55-.45a1.4,1.4,0,0,1-.89-.7l0-.08h0l-.15,0a.62.62,0,0,0-.13.76A.87.87,0,0,0,54.86,19.77Z"/><polygon class="cls-13" points="108.87 158.81 108.87 158.81 108.87 159.68 108.87 158.81"/><polygon class="cls-13" points="103.52 132.47 103.49 132.47 103.52 133.34 103.52 132.47"/><path class="cls-13" d="M101.92,161.65c.22.24.69.48,1.83.53a2.8,2.8,0,0,1,.4-.87,3.09,3.09,0,0,0,.43-.91,2.43,2.43,0,0,0-1.91-.49c-.26.26-.66.72-.59,1.09A.77.77,0,0,1,101.92,161.65Z"/><path class="cls-13" d="M103.76,123.73c-.17.27-.27.4-.16.62a.9.9,0,0,0,.57-.18l.06,0a.89.89,0,0,0-.39-.53Z"/><path class="cls-13" d="M102.8,120.28a1.08,1.08,0,0,0-.08,1,.66.66,0,0,0,.7.37,1.2,1.2,0,0,1,.43-.84,1.27,1.27,0,0,1-.44-.57A1.62,1.62,0,0,1,102.8,120.28Z"/><path class="cls-13" d="M109.06,111l.06,0,.11-.08a2.06,2.06,0,0,1,.75-.4v-.82a1.66,1.66,0,0,0-.57,0,6.31,6.31,0,0,1-.7,0A2,2,0,0,0,109.06,111Z"/><path class="cls-13" d="M119.43,50.86c0-.09,0-.19.08-.28a.94.94,0,0,0,.06-.56,1.53,1.53,0,0,0-.45.08l-.27.09A.79.79,0,0,0,119.43,50.86Z"/><path class="cls-13" d="M121.57,10l-.31-.84.18.86Z"/><path class="cls-13" d="M121.61,11.21l.16.05.25.09a.74.74,0,0,1,.34-.75l0,0-.16,0a1.1,1.1,0,0,1-.51-.27l-.15.27a1.71,1.71,0,0,0-.19.37A.82.82,0,0,1,121.61,11.21Z"/><path class="cls-13" d="M127.27,17a.57.57,0,0,0-.06-.35l0,0a2.14,2.14,0,0,0-.21.23l.05,0Z"/><path class="cls-13" d="M102.8,60.34a3.82,3.82,0,0,0,1.07,0,2.05,2.05,0,0,0-.11-2,1.81,1.81,0,0,0-1.15-.51,1.91,1.91,0,0,0-.5,2.46Z"/><path class="cls-13" d="M124.93,40.85a2.35,2.35,0,0,1,.58,1.3.68.68,0,0,1-.16.58,1.4,1.4,0,0,1,.35-.12c.17,0,.4-.06.55-.08a2.89,2.89,0,0,0,.58-.1,1.15,1.15,0,0,1,.55-.31,1,1,0,0,0-.1-.9,3.88,3.88,0,0,0-2.13-.54A1.48,1.48,0,0,1,124.93,40.85Z"/><path class="cls-13" d="M116,69.29a.76.76,0,0,1,.28.55c0,.78,1.16,1.84,1.92,2.54l.46.42a2.53,2.53,0,0,1,.31-.17,1.61,1.61,0,0,1,1-.09,1.11,1.11,0,0,1,.73.51c.25.49.43.7.69.78a1.48,1.48,0,0,0,.31-1.8c-.61-1.19-2.61-2.21-4.28-2.61a1.15,1.15,0,0,1-.7-.46.66.66,0,0,1,0-.69,2,2,0,0,0-.06-1.35,4.25,4.25,0,0,1-.16-.75,19.6,19.6,0,0,1-3.09-.18.85.85,0,0,0-.32.62c0,.61,1,1.29,1.88,1.88A12.32,12.32,0,0,1,116,69.29Z"/><path class="cls-13" d="M112.81,4.23a2.85,2.85,0,0,1-.3-.47,2.31,2.31,0,0,0-.22-.37h-.36a1.12,1.12,0,0,1-.7.48,1.54,1.54,0,0,1-.64,0v.4A4.91,4.91,0,0,0,112.81,4.23Z"/><path class="cls-13" d="M109.21,157.64c-.05,0-.07,0-.09,0a1.64,1.64,0,0,1,.31,1.15l.29,0,.56-.05a.87.87,0,0,1,.37-.41l0,0a.68.68,0,0,1,0-.54.8.8,0,0,1-.16-.33.91.91,0,0,1-.17-.18h-.73A.94.94,0,0,1,109.21,157.64Z"/><path class="cls-13" d="M115.51,60.5a.84.84,0,0,1-.51.74,3.81,3.81,0,0,1,.68.55,1.58,1.58,0,0,0,1.26.6l.39,0a2.49,2.49,0,0,0,1-1.26,1,1,0,0,1-.66-.5c0-.11-.26-.22-.4-.31l-.18-.1a.87.87,0,0,1-.41-.55,1.35,1.35,0,0,0-1,.38A.68.68,0,0,0,115.51,60.5Z"/><path class="cls-13" d="M116.18,22c.29-.41.51-.91.22-1.29a1.62,1.62,0,0,0-1.26-.45,1.42,1.42,0,0,0-1.16.41c-.2.31,0,.79.58,1.33Z"/><path class="cls-13" d="M97,185.87l0,0a1.43,1.43,0,0,1-.83-.26c-.12-.09-.27-.23-.37-.33l-.07-.07-.26.06a1.63,1.63,0,0,0,.38,1.07H96A1.22,1.22,0,0,0,97,185.87Z"/><path class="cls-13" d="M83.15,33.92a2.79,2.79,0,0,1,.57-.88,3.11,3.11,0,0,0,.38-.54,1.06,1.06,0,0,0-.78.21,1.24,1.24,0,0,0-.5.87l.08.08A3.35,3.35,0,0,0,83.15,33.92Z"/><path class="cls-13" d="M81.42,6.46A2.22,2.22,0,0,0,82.62,6a.68.68,0,0,1-.17-.81,1,1,0,0,0,.12-.57c-.52-.42-1.12-.41-2.19,0l.13.4C80.75,5.86,80.93,6.29,81.42,6.46Z"/><path class="cls-13" d="M93.08,195.55l.18-.06v-.18a3.35,3.35,0,0,0-.57,0h0l0,0a.68.68,0,0,1-.05.53A1.08,1.08,0,0,1,93.08,195.55Z"/><path class="cls-13" d="M88.77,167.5a.76.76,0,0,1,.14-.18h0a.94.94,0,0,1-.25-.19,1.56,1.56,0,0,0-.28.25l0,.05A1.18,1.18,0,0,1,88.77,167.5Z"/><path class="cls-13" d="M81.54,98.21h.16a1.87,1.87,0,0,1,.88.24,1.15,1.15,0,0,0,.76.16,1.86,1.86,0,0,0,.66-2,2,2,0,0,1-.41,0H83a1.09,1.09,0,0,1-1.15-.79c-.05-.44.35-.85.94-.94h.08c-.19-.31-.35-.62-.51-.93a4.61,4.61,0,0,0-1.8-2.22l-.66.41c-1.07.65-2,1.2-2.19,2.3A5,5,0,0,1,81.54,98.21Z"/><path class="cls-13" d="M83.75,86.59a1.12,1.12,0,0,1-.51-.29l-.18,0H83a2.51,2.51,0,0,1,.21.72,1.3,1.3,0,0,0,.2.6h.09a1.51,1.51,0,0,1,1-.78,3.49,3.49,0,0,0-.62-.22Z"/><path class="cls-13" d="M84.88,146.44c.51-.86.79-1.87.37-2.4a1.24,1.24,0,0,0-.86-.4A3.65,3.65,0,0,0,84.88,146.44Z"/><path class="cls-13" d="M82.61,96.21l.5-.24V95.9L82.5,96A.59.59,0,0,0,82.61,96.21Z"/><path class="cls-13" d="M78,189a1.52,1.52,0,0,1-.6-.13,2,2,0,0,0-.5-.18,1.07,1.07,0,0,1-.49.67c-.18.14-.19.14-.13.32s.38.36,1.06.54l.44.12a4.1,4.1,0,0,1,.17-.46C78.13,189.49,78.2,189.29,78,189Z"/><path class="cls-13" d="M82.29,118.61h0l-.07,0c-.47.28-.73.45-.78.8a.74.74,0,0,0,.66.3.68.68,0,0,0,.46-.13.07.07,0,0,0,0-.05.72.72,0,0,1-.28-.92A.09.09,0,0,0,82.29,118.61Z"/><path class="cls-13" d="M101.84,11a1,1,0,0,1-.29-.36.82.82,0,0,0-.56.22,3.78,3.78,0,0,0,.63.11Z"/><path class="cls-13" d="M87.1,202.28c.13-.87.15-1.21-.32-1.57l-.39,0a1.11,1.11,0,0,0-.81.22,1.23,1.23,0,0,0-.27,1.1c.59.07,1.13.16,1.66.25Z"/><path class="cls-13" d="M80.82,198.63a1.22,1.22,0,0,1,.36.23,6.1,6.1,0,0,1-.63-1.74c-.19,0-.25,0-.49.39a1.66,1.66,0,0,1-.62.69,1.54,1.54,0,0,1-1.32.07,2.85,2.85,0,0,1-.36.7,4.76,4.76,0,0,0,1.85-.31A1.56,1.56,0,0,1,80.82,198.63Z"/><path class="cls-13" d="M95.41,201.09a1.29,1.29,0,0,0,.94-.46c.39-.53.17-1.51-.66-2.91a4.07,4.07,0,0,0-1.47-.12c.09.46.13.89.17,1.28C94.49,200,94.58,200.62,95.41,201.09Z"/><path class="cls-13" d="M90.58,176.54c1.47,0,3.18-.88,3.54-1.59.11-.22.17-.5-.28-.83a5.62,5.62,0,0,0-1-.09,5.18,5.18,0,0,0-3.08.87,1,1,0,0,0-.42.87C89.38,176.1,89.56,176.54,90.58,176.54Z"/><path class="cls-13" d="M94.5,49.87a2.16,2.16,0,0,1-.32.12h0a1.81,1.81,0,0,0,.41.25l.11.05A1.74,1.74,0,0,1,94.5,49.87Z"/><path class="cls-13" d="M98.92,64.81a2.17,2.17,0,0,0,1.48.29,2.14,2.14,0,0,0,.21-2.94,1.37,1.37,0,0,0-1.09.22,3.94,3.94,0,0,1-1.13.53A2.25,2.25,0,0,0,98.92,64.81Z"/><path class="cls-13" d="M98.86,166.65a1.67,1.67,0,0,1-.59-.07,1.33,1.33,0,0,1-.87.34,1.5,1.5,0,0,0-.35,0,3.21,3.21,0,0,0,1.46,1.28l.13.07a1.71,1.71,0,0,0,.5-1.25A.53.53,0,0,0,98.86,166.65Z"/><path class="cls-13" d="M100.83,171.88a.93.93,0,0,1-.41-.47.78.78,0,0,0,.14.59Z"/><path class="cls-13" d="M79.55,104.32c-.19.85.33,1.36,1,2a2.37,2.37,0,0,0,.78-.09,4.33,4.33,0,0,1,.53-.11A2.72,2.72,0,0,0,79.55,104.32Z"/><path class="cls-13" d="M92.25,5.09a1.19,1.19,0,0,0-.37-1.32c-1-.05-1.15.31-1.21.45a1.1,1.1,0,0,0,.56,1.22C92,5.5,92.2,5.19,92.25,5.09Z"/><path class="cls-13" d="M93.9,42.86c.95-.22,1.83-.49,2.61-.73s1.56-.48,2.21-.6a.66.66,0,0,1,0-.25l0-.05a1.51,1.51,0,0,1-1.34,0,.85.85,0,0,1-.53-.71A5.24,5.24,0,0,1,95.85,39a4.74,4.74,0,0,0-.86-1.3h-.2c-1.56,0-2.51.52-2.81,1.54A3.29,3.29,0,0,0,93.9,42.86Z"/><path class="cls-13" d="M90.67,120.41l-.19.24-.09.11a1.6,1.6,0,0,0,.48-.13A.85.85,0,0,1,90.67,120.41Z"/><path class="cls-13" d="M98.86,138.3h-1a4.34,4.34,0,0,0-.54,0l.05.07a.71.71,0,0,1,.09.59.85.85,0,0,1,.21.18.8.8,0,0,1,.16,0h0a1.4,1.4,0,0,1,.6-.13,1.41,1.41,0,0,1,.29,0,1.11,1.11,0,0,1,.35.12,1.21,1.21,0,0,1,.36-.31A.94.94,0,0,1,98.86,138.3Z"/><path class="cls-13" d="M97,29.23a.4.4,0,0,0,.12.08h.06l-.29-.84.08.74Z"/><path class="cls-13" d="M98.16,55.9h-.11a1,1,0,0,1-.74.69,1.23,1.23,0,0,1-.22.66,1.13,1.13,0,0,0-.09.17l0,0a1.28,1.28,0,0,1,.83.31.69.69,0,0,1,.21.37,2.14,2.14,0,0,0,1.35-.83l-.09-.13a.69.69,0,0,1,.07-1A2.67,2.67,0,0,0,98.16,55.9Z"/><path class="cls-13" d="M68.89,91.94l.07,0c0-.07,0-.12,0-.17a1.11,1.11,0,0,1,.11-.47,1.09,1.09,0,0,1,.1-.15,1.25,1.25,0,0,1,.36-.27.69.69,0,0,1,0-.37,1,1,0,0,1-.31-.29,2.17,2.17,0,0,1-1.61-1.05c-.3-.42-.44-.57-.74-.61a3.05,3.05,0,0,0,.8,1.33A4.76,4.76,0,0,1,68.89,91.94Z"/><path class="cls-13" d="M4.62,17.18l.11,0c.18,0,.72-.2.67-.45a.9.9,0,0,0-.77-.49.23.23,0,0,0-.15,0,.79.79,0,0,0-.18.62,1.15,1.15,0,0,1,.37.26Z"/><path class="cls-13" d="M.35,127.88l0,.05.09,0,.27-.09a1.6,1.6,0,0,1,.57-.05,1.26,1.26,0,0,1,.21-.31.83.83,0,0,0,.19-.56l-.32-.06H1.25a1.33,1.33,0,0,1-.63-.25,1.56,1.56,0,0,0-.4.47c-.13.27-.11.45,0,.53A.81.81,0,0,1,.35,127.88Z"/><path class="cls-13" d="M.95,135.62a.4.4,0,0,1,0,.13.42.42,0,0,1,0,.08,1.09,1.09,0,0,1,.77.48l0-.06c.61,0,1.91-.55,2-1.08.1-.33-.47-.6-.92-.76a2.65,2.65,0,0,0-1.09.66,3,3,0,0,1-.71.51Z"/><path class="cls-13" d="M3.86,56.07a1.31,1.31,0,0,1,1,.44,2.9,2.9,0,0,1,.43.76,2.42,2.42,0,0,0,1.19-1,4.39,4.39,0,0,1,.71-.78l-.2,0A1.26,1.26,0,0,1,6.2,55a6,6,0,0,1-.3-.53,1.5,1.5,0,0,0-.65.6,3.1,3.1,0,0,1-.62.66,1.51,1.51,0,0,1-1.3.19.67.67,0,0,1-.09.26l0,0A1.49,1.49,0,0,1,3.86,56.07Z"/><path class="cls-13" d="M4.06,68.88l.29.15a2.87,2.87,0,0,1,1.09-.62c.46-.17.56-.2.52-.56S5.25,67,4.42,67A1.86,1.86,0,0,0,2.65,68,5.1,5.1,0,0,0,4.06,68.88Z"/><path class="cls-13" d="M2.88,80.93a1.61,1.61,0,0,1,.54-.1,1.31,1.31,0,0,1,1,.41.37.37,0,0,0,.26.17A2.29,2.29,0,0,0,5,81.17a1.47,1.47,0,0,1,1.12-.26,1.37,1.37,0,0,0,.41-1.58,1.49,1.49,0,0,0-1.51-.82,7.13,7.13,0,0,0-1.57,1.37A11.13,11.13,0,0,1,2.31,81a.89.89,0,0,1,.1.18A2.75,2.75,0,0,1,2.88,80.93Z"/><path class="cls-13" d="M7.25,62.36h.94a1.28,1.28,0,0,0,.08-.62,1.64,1.64,0,0,1-.44-.13,1.47,1.47,0,0,1-1.08-.27H6.68a5.27,5.27,0,0,0,.32.57Z"/><path class="cls-13" d="M9.91,74.72a.62.62,0,0,1,.06-.15,6,6,0,0,1,.56-.83c.52-.69.82-1.14.55-1.82a1.73,1.73,0,0,0-.89-1,1.13,1.13,0,0,1-.35-.22,1.45,1.45,0,0,1-.45.14c-1.28.2-2.67,1.47-2.71,2.48,0,.83.84,1.3,2.58,1.39a1.52,1.52,0,0,1,.61.16C9.88,74.82,9.9,74.77,9.91,74.72Z"/><path class="cls-13" d="M9.32,165.56a1.94,1.94,0,0,0-.68.74.84.84,0,0,0,0,.61l.1,0a1.86,1.86,0,0,1,.31,0,.68.68,0,0,1-.11-.26,1.26,1.26,0,0,1,.35-.93Z"/><path class="cls-13" d="M9.36,124.22a1,1,0,0,1-.76-.67.58.58,0,0,1,0-.28,2.44,2.44,0,0,0-1.05.06c-.18,0-.36.09-.57.12a1.64,1.64,0,0,0,0,1.6,2.32,2.32,0,0,0,1.27.81,6.48,6.48,0,0,1,.46-.53,1.89,1.89,0,0,0,.68-1.12Z"/><path class="cls-13" d="M9.83,69.27a1.27,1.27,0,0,1,.24.16,1.49,1.49,0,0,1,.69-.16h.67c.69-.52.44-1.69-.09-2.44a9.66,9.66,0,0,1-1.6-.08l-.22,0a2.64,2.64,0,0,1,0,1.29C9.47,68.72,9.49,69.09,9.83,69.27Z"/><path class="cls-13" d="M9.13,6.81a.85.85,0,0,1-.55.71.51.51,0,0,0-.23.28.74.74,0,0,1,.38,1,.25.25,0,0,0,0,.24,1.84,1.84,0,0,0,1.43.5,1.61,1.61,0,0,0,1.18-.4,1.73,1.73,0,0,0-.13-.44,1.46,1.46,0,0,1-.14-.79,1.25,1.25,0,0,1-.72-.4.69.69,0,0,1-.15-.56,1.93,1.93,0,0,1,.41-1.3A3.54,3.54,0,0,0,11,4.71a1.46,1.46,0,0,0-2.17-.13,1.61,1.61,0,0,0-.62,1.28l.39.22A.81.81,0,0,1,9.13,6.81Z"/><path class="cls-13" d="M11,14.22c.07.07.14.16.21.25a1.84,1.84,0,0,0,.67-.18l.21-.09a2.14,2.14,0,0,0-1.23-.12Z"/><path class="cls-13" d="M8.52,13.15a1.34,1.34,0,0,1-.28,0c0,.09,0,.16-.07.24a.6.6,0,0,0,0,.18h.35A1.62,1.62,0,0,0,8.52,13.15Z"/><path class="cls-13" d="M8.48,54.19a3.27,3.27,0,0,1,.43-.69L9,53.38a2.45,2.45,0,0,0-.43-.25l-.15-.08a2.25,2.25,0,0,0,0,1S8.47,54.14,8.48,54.19Z"/><path class="cls-13" d="M12.52,160.52a1.05,1.05,0,0,0,.15-1.2,1.17,1.17,0,0,0-1.31-.47,1.15,1.15,0,0,0-.28.85,1.25,1.25,0,0,0,.25.82Z"/><path class="cls-13" d="M7.7,37.42a.72.72,0,0,1,.07-.16,1.16,1.16,0,0,1,.75-.49l.22-.05-.06-.07a1.08,1.08,0,0,1-.12-.21,2.18,2.18,0,0,1-.4,0A2.71,2.71,0,0,1,6.65,36a2.2,2.2,0,0,0-.92-.38A1.1,1.1,0,0,1,5.5,36a.55.55,0,0,0-.08.12A9.83,9.83,0,0,1,7.68,37.4Z"/><path class="cls-13" d="M10.93,20.41a1.51,1.51,0,0,0,.62,1.32,1.52,1.52,0,0,1,1.14.27.7.7,0,0,1,.21,1,.75.75,0,0,0-.11.58c.11.17.21.2.49.2H14a2.7,2.7,0,0,1,.08-1,1.08,1.08,0,0,1,1-.73l.12,0a1.68,1.68,0,0,1,.53-.18.68.68,0,0,0-.13-.65,1.34,1.34,0,0,0-1.24-.21,1.36,1.36,0,0,1-1.53-.49,2.88,2.88,0,0,0-1.18-1.26A1.67,1.67,0,0,0,10.93,20.41Z"/><path class="cls-13" d="M28.18,183.34a1.23,1.23,0,0,1,.82-.43.8.8,0,0,1-.37-.53.87.87,0,0,0-1-.82,3.41,3.41,0,0,0-1.92.71,1.5,1.5,0,0,1-1.54.15,15.35,15.35,0,0,0-1.95-.76L21,181.23c-.19.63.5,1.22,1.9,2.12l.6.39a5.24,5.24,0,0,1,1.29-.83,1.47,1.47,0,0,1,1.47.17l-.79.65.87-.58a2.17,2.17,0,0,0,1.66.65A.7.7,0,0,1,28.18,183.34Z"/><path class="cls-13" d="M27.11,30.89l-.27,0a2,2,0,0,1-.54-.08l-.07.08a.7.7,0,0,1,.15.44,1.82,1.82,0,0,0,.55,0A.74.74,0,0,1,27.11,30.89Z"/><path class="cls-13" d="M32.48,22c0-.11-.06-.33-.44-.41a.66.66,0,0,0,0,.93A.57.57,0,0,0,32.48,22Z"/><path class="cls-13" d="M24.47,200.73l.29.15a2.86,2.86,0,0,1,1.09-.62c.46-.17.56-.21.52-.56s-.7-.82-1.55-.82a1.86,1.86,0,0,0-1.77.92A5.2,5.2,0,0,0,24.47,200.73Z"/><path class="cls-13" d="M30.82,50h-.14c0,.07,0,.16,0,.22s0,.14,0,.21a.74.74,0,0,1-.19.53l.07.1A4,4,0,0,0,30.82,50Z"/><path class="cls-13" d="M29.53,118.79c0,.55.47.88,1.81,1.21a3.49,3.49,0,0,1,.34-.54,1.31,1.31,0,0,0,.36-.9c-.14-.19-.23-.19-.32-.19a2.21,2.21,0,0,0-.36,0l-.22,0a1.56,1.56,0,0,1-.76-.1,3,3,0,0,1-.48.21C29.67,118.66,29.57,118.7,29.53,118.79Z"/><path class="cls-13" d="M23.82,192.59h0l-.07-.06a.53.53,0,0,0-.27-.14.75.75,0,0,1-.21.21.22.22,0,0,0,0,.13.86.86,0,0,0,.39.05A1.43,1.43,0,0,1,23.82,192.59Z"/><path class="cls-13" d="M24.08,164.74c0-.11-.14-.12-.5-.13h-.16a.93.93,0,0,1-.15.2h.5A.67.67,0,0,0,24.08,164.74Z"/><path class="cls-13" d="M26.56,179.71l.63,0a1.7,1.7,0,0,0,.2-1.43l-.19,0H27a4.3,4.3,0,0,1-.79,0l-.39,0c-.17.53-.75.83-1.16,1s-.61.31-.52.51A6.72,6.72,0,0,1,26.56,179.71Z"/><path class="cls-13" d="M29.84,174.27a1,1,0,0,1-.51-.44l-.07-.13a1.31,1.31,0,0,0-.08-.15,9.48,9.48,0,0,0-1.19.26,9.17,9.17,0,0,1-1.72.32,1.92,1.92,0,0,0,.05.2,4.82,4.82,0,0,0,1,2.17l.19.06a1.28,1.28,0,0,1,.35.15l.2,0a1.4,1.4,0,0,1,.4,0,1.28,1.28,0,0,0,.83-.33A2.33,2.33,0,0,0,29.84,174.27Z"/><path class="cls-13" d="M22.41,148a.72.72,0,0,1,.25-.5.13.13,0,0,0,0,0h-.27l-.1.07,0,.17A2.61,2.61,0,0,0,22.41,148Z"/><path class="cls-13" d="M21.44,150a1.79,1.79,0,0,1,.19,1,1,1,0,0,1,.42.37h0a2.8,2.8,0,0,1,1.11,0,1.12,1.12,0,0,1,.27-.21,5.07,5.07,0,0,1-.1-1.05c0-.58,0-.9-.39-1.21a.56.56,0,0,1,0,.16.91.91,0,0,1-.66.7c-.28.1-.57.18-.89.27Z"/><path class="cls-13" d="M48.86,14.21l0-.07a2.3,2.3,0,0,0-.17-.32l0,0a1.14,1.14,0,0,1,0,.37Z"/><path class="cls-13" d="M50.37,78.7a1.9,1.9,0,0,0,1,.22,3.33,3.33,0,0,0,.52-.67,6.32,6.32,0,0,1,.49-.66,1.43,1.43,0,0,1,1.33-.34l.36,0,.37,0a3.49,3.49,0,0,1,1.09-.9.67.67,0,0,1,0-.61,2.43,2.43,0,0,1,.18-.3,1.54,1.54,0,0,0,.2-.36,3.18,3.18,0,0,1-.85-.51,1.48,1.48,0,0,0-1-.42h-.25c-.16,0-.27.18-.44.41s-.15.2-.22.27a1.33,1.33,0,0,1-1,.39h0a.83.83,0,0,1,.15.36c.2,1.09-.67,1.53-1.31,1.85s-1,.49-.76,1.21Z"/><path class="cls-13" d="M32.07,27.17a4.31,4.31,0,0,0,.85,0,2.68,2.68,0,0,0,.46-1h0a1,1,0,0,0-1,0A1.17,1.17,0,0,0,32.07,27.17Z"/><path class="cls-13" d="M50,18.58l0-.07-.22-.18a2.73,2.73,0,0,0-1.24-.68l-.11.14h0a4.32,4.32,0,0,1,.68.38A2.51,2.51,0,0,0,50,18.58Z"/><path class="cls-13" d="M51.07,75.21A.34.34,0,0,0,51,75a.64.64,0,0,0-.53-.24,2.85,2.85,0,0,1,.53,0h0a.5.5,0,0,0-.15-.18l0,0h0l-.64.19v.08h0Z"/><path class="cls-13" d="M3.54,173.45a1.18,1.18,0,0,1,.57.35l0,0,0-.05a.67.67,0,0,1-.14-.43,4.87,4.87,0,0,1-.5.15Z"/><path class="cls-13" d="M50.42,19.49l0-.87h0v.87Z"/><path class="cls-13" d="M46.55,88.93c1.15-.06,1.6-.6,2.09-1.67a1.17,1.17,0,0,1,1.16-.59h0c1,0,1.45-.28,1.45-.75a1,1,0,0,0-1-.89,2.39,2.39,0,0,0-1.3.47,1.5,1.5,0,0,1-1.2.17,3.25,3.25,0,0,0-.67-.05h-.6C45.21,86.38,45.24,87.39,46.55,88.93Z"/><path class="cls-13" d="M43.46,13.37h.4a.67.67,0,0,0,0-.64c-.08-.09-.2-.19-.54-.17a.79.79,0,0,0,.08.48A1.54,1.54,0,0,1,43.46,13.37Z"/><path class="cls-13" d="M36.55,99.25a1.7,1.7,0,0,1,.48-.07,1.77,1.77,0,0,1,.64.12l.08-.14.14-.24a1,1,0,0,1,.33-.31,1.59,1.59,0,0,1-.64-.27l-.45.15a1.83,1.83,0,0,0-.93.45,1,1,0,0,1,.33.28Z"/><path class="cls-13" d="M39,195.64a1,1,0,0,1-.67-.55v0a2.28,2.28,0,0,0-2.17,1.24,8.1,8.1,0,0,1,2.64-.27A4.28,4.28,0,0,0,39,195.64Z"/><path class="cls-13" d="M39.31,27.87a.69.69,0,0,0-.16.44,1.08,1.08,0,0,0,.25.8h.16c.32,0,.43-.08.7-.35.08-.08.17-.17.27-.26s-.11-.18-.26-.31l-.16-.14a.71.71,0,0,1-.21-.8,1.08,1.08,0,0,1,.77-.58,3.58,3.58,0,0,0,2.57-1.78,1.31,1.31,0,0,1,1.36-.52A3,3,0,0,0,46.53,24a2.09,2.09,0,0,0-.29-1.19A4.72,4.72,0,0,1,46,22.3a5.2,5.2,0,0,0-1.68,0l-.12,0A3.65,3.65,0,0,1,42,25a1.55,1.55,0,0,1-1.15,0l-.15-.06a1.87,1.87,0,0,0-1.09-.22,1.14,1.14,0,0,0-.76.68,1.71,1.71,0,0,0,.51,1.51A.69.69,0,0,1,39.31,27.87Z"/><path class="cls-13" d="M50.59,15.49a1.37,1.37,0,0,1,.45-.2,2.35,2.35,0,0,0,0-.62,4.08,4.08,0,0,0-.77,0l-.09,0a.67.67,0,0,1,.11.56A.83.83,0,0,0,50.59,15.49Z"/><path class="cls-13" d="M14.48,12h0l-.29-.66,0,0c0-.05,0-.11,0-.16l-.18,0a.52.52,0,0,0,.09.2Z"/><path class="cls-13" d="M16.19,11.85a.15.15,0,0,0,0,.05.32.32,0,0,0,.2-.22.36.36,0,0,0,0-.22l-.06.05a1.09,1.09,0,0,1-.19.16A.64.64,0,0,1,16.19,11.85Z"/><path class="cls-13" d="M16.25,191.21a.37.37,0,0,0,0,.13,1.1,1.1,0,0,1,.4.41.65.65,0,0,1,.06.19.53.53,0,0,0,.37-.12.49.49,0,0,0-.1-.57.57.57,0,0,0-.4-.23s0,0,0,0A1.13,1.13,0,0,1,16.25,191.21Z"/><path class="cls-13" d="M16,2.91h.75a.88.88,0,0,1,.35-.36h0a.69.69,0,0,1,.07-.66,1,1,0,0,1-.37-.4H16l-.18.21a1.1,1.1,0,0,0-.17.21A.8.8,0,0,1,16,2.91Z"/><path class="cls-13" d="M17.45,165a.71.71,0,0,1-.06-.28,1.16,1.16,0,0,0-.07-.54c-.54.31-.57.46-.57.46a2.31,2.31,0,0,0,.54.29Z"/><path class="cls-13" d="M17.12,152.7a1.07,1.07,0,0,1-.36.13l0,0a.67.67,0,0,0,.31.1A.25.25,0,0,0,17.12,152.7Z"/><path class="cls-13" d="M51.31,73a1.56,1.56,0,0,0,1.06-.75.34.34,0,0,0-.15-.41,1.31,1.31,0,0,1-.68-.34,1,1,0,0,0-.6.33C50.78,72,50.92,72.47,51.31,73Z"/><path class="cls-13" d="M2.34,151.34a1.63,1.63,0,0,1-.39,0H1.76a.75.75,0,0,0,.27.52.89.89,0,0,0,.28-.41A.7.7,0,0,0,2.34,151.34Z"/><path class="cls-13" d="M3.38,143.07a1.26,1.26,0,0,1,.84-.43h.1c.4-.67.51-1.43,0-1.73a1.85,1.85,0,0,0-.51-.23,1.2,1.2,0,0,1-.62-.38,1.69,1.69,0,0,0-1,1.53,1.17,1.17,0,0,0,.46,1A1.52,1.52,0,0,0,3.38,143.07Z"/><path class="cls-13" d="M4.29,189.09l.27.08,0,0,.07-.05.16-.09a1.42,1.42,0,0,1-.55-.09S4.29,189,4.29,189.09Z"/><path class="cls-13" d="M23.4,161.46l.53.43c.86.72,1.39,1.11,2.26,1a2.12,2.12,0,0,0-.27-1.77c-.1-.21-.2-.43-.3-.68A1.76,1.76,0,0,0,23.4,161.46Z"/><path class="cls-13" d="M28.55,7.23h.08a1.47,1.47,0,0,1,.75.2A.88.88,0,0,1,29.8,8l.23,0c-.19-.5-.51-.64-1-.85a6.46,6.46,0,0,1-.62-.31.67.67,0,0,1,.13.38A.62.62,0,0,1,28.55,7.23Z"/><path class="cls-13" d="M27.77,20.64a.63.63,0,0,0,.21,0c1.19-1.2,2.63-2.67,2.1-4.15a1.71,1.71,0,0,0-1.75-1.09,2,2,0,0,0-1.93,1.08c-.13.47.09,3.14,1,4A.58.58,0,0,0,27.77,20.64Z"/><path class="cls-13" d="M30.72,131.68c.06-.22.12-.4.18-.57.23-.7.26-.78-.25-1.31a1.39,1.39,0,0,1-.52,0,1.23,1.23,0,0,0-.6,1.29C29.59,131.38,29.8,131.74,30.72,131.68Z"/><path class="cls-13" d="M29.59,101.79l.15,0,0-.26,0-.11a1.89,1.89,0,0,1-.36,0s0,0,0,.06a1.19,1.19,0,0,1,0,.27Z"/><path class="cls-13" d="M31.49,169.53a1.14,1.14,0,0,0-.07-1.49,2.44,2.44,0,0,0-2.06.56,1.24,1.24,0,0,0-.16,1.24.71.71,0,0,1-.26.79A3.23,3.23,0,0,0,31.49,169.53Z"/><path class="cls-13" d="M30.07,159.63a1.72,1.72,0,0,0,1.24-.38.62.62,0,0,0,0-.74,1.71,1.71,0,0,0-2.24,1A3.38,3.38,0,0,0,30.07,159.63Z"/><path class="cls-13" d="M26.08,27.26a.81.81,0,0,1,.38-.64c.39-.28.75-.56.8-.79a5,5,0,0,1-.59-.32,2.06,2.06,0,0,0-.8-.35.88.88,0,0,0-.73,1.08A1.39,1.39,0,0,0,26.08,27.26Z"/><path class="cls-13" d="M18.94,165.43l-1-.15.11.1.93.05Z"/><path class="cls-13" d="M18.22,89.35A9.08,9.08,0,0,1,19.9,90a1.13,1.13,0,0,1,.2.14,2.66,2.66,0,0,1,.41.53c.08.11.18.28.26.36a3.17,3.17,0,0,0,.5,0,5.45,5.45,0,0,1,.65,0,1.59,1.59,0,0,1,.44.06,5.36,5.36,0,0,1,1.14.52c.37.2.68.4.93.28l.12-.38c.28-.83.42-1.24-1.14-1.87a1.08,1.08,0,0,1-.48-.37,5.78,5.78,0,0,1-.53-1.08c-.22-.56-.47-1.17-.85-1.33a4,4,0,0,0-3.74.61,1.35,1.35,0,0,0-.49,1.43C17.39,89.06,17.53,89.13,18.22,89.35Z"/><path class="cls-13" d="M28.19,128.37a2.59,2.59,0,0,0-.25-.83l0,0-.22.05c0,.14,0,.31.07.52,0,.06,0,.11,0,.17A1.75,1.75,0,0,1,28.19,128.37Z"/><path class="cls-13" d="M21,30.7a3.08,3.08,0,0,0,.7-.08c.9-1.14.67-1.8.45-2.11a2.22,2.22,0,0,0-2.82-.2A1.29,1.29,0,0,0,19,29.65C19.17,30.22,20.09,30.7,21,30.7Z"/><path class="cls-13" d="M21.17,15.22l.16-.08c.47-.25.69-.39.77-.63a.65.65,0,0,1,0-.44l-.29-.34c-.42-.48-1-1.1-.4-1.8l-.27-.08a3.94,3.94,0,0,0-1-.22.63.63,0,0,0-.39.12,3.86,3.86,0,0,1,.56,1.73C20.48,14.53,20.64,15,21.17,15.22Z"/><path class="cls-13" d="M175,202.55c-.11.29-.14.41-.09.49a1.74,1.74,0,0,0,.28,0c.53,0,.75-.14,1-1.05l-.44,0h-.57A2.43,2.43,0,0,1,175,202.55Z"/><path class="cls-13" d="M202.6,100.46a1,1,0,0,0,.51-.12.47.47,0,0,0,.12-.39,1.38,1.38,0,0,0-.51-.27l-.14-.05A1.16,1.16,0,0,0,202.6,100.46Z"/><path class="cls-13" d="M198.15,201.14a.9.9,0,0,0-.27.63.62.62,0,0,0,.35.59.84.84,0,0,1,.17-.16.44.44,0,0,0,0-.09,1.19,1.19,0,0,1,.22-.42,3.39,3.39,0,0,1-.38-.65Z"/><path class="cls-13" d="M198.75,152.28a2,2,0,0,0,1.94-1.65,3.94,3.94,0,0,0-.31-.93,5.56,5.56,0,0,1-.54-1.95c0-.15,0-.31,0-.48,0-.4.1-.92-.11-1.08h0c-.18.65-.34,1.33-.49,2a20.49,20.49,0,0,1-1.22,4A2.36,2.36,0,0,0,198.75,152.28Z"/><path class="cls-13" d="M201.55,90.21c0-.05,0-.1,0-.16a2.8,2.8,0,0,0-.63-.19,1.21,1.21,0,0,1-.75-.42,1.83,1.83,0,0,0-.92.52,2.07,2.07,0,0,0-.56,1.39,1.48,1.48,0,0,0,1.38,1.53,1.22,1.22,0,0,1,.8-.43C201.6,92.35,201.67,91.58,201.55,90.21Z"/><path class="cls-13" d="M204.15,80.32a2.16,2.16,0,0,0-1.12-.43c-.15,0-.2,0-.22.06a.9.9,0,0,0-.15.75A2,2,0,0,0,204.15,80.32Z"/><path class="cls-13" d="M206.83,151.87a1.1,1.1,0,0,0-.37-.48,1.78,1.78,0,0,0-2,.06,2,2,0,0,0,.07.3.64.64,0,0,1,0,.18h2.35Z"/><path class="cls-13" d="M204.35,183.31a2.63,2.63,0,0,0,1.86-1.3,1.37,1.37,0,0,0-.5-1.46,2.66,2.66,0,0,0-.92-.19,1.49,1.49,0,0,0-1.47,1.37A1.38,1.38,0,0,0,204.35,183.31Z"/><path class="cls-13" d="M204.37,157.78a.57.57,0,0,0-.2.37.21.21,0,0,0,.19.26A2.23,2.23,0,0,0,204.37,157.78Z"/><path class="cls-13" d="M203,132a.87.87,0,0,0,.37-.44,1.57,1.57,0,0,1-.4,0A.63.63,0,0,0,203,132Z"/><path class="cls-13" d="M199.4,51.42a.82.82,0,0,0-.12-.13,1,1,0,0,0-.89.31.82.82,0,0,1,.25.41.63.63,0,0,1,0,.37,1.21,1.21,0,0,0,1-.07,2.1,2.1,0,0,0,0-.45.62.62,0,0,1,0-.25A1.06,1.06,0,0,1,199.4,51.42Z"/><path class="cls-13" d="M208,149.09a1.27,1.27,0,0,1,.76-.41,1.75,1.75,0,0,1,.5,0,3.9,3.9,0,0,0,.21-.64c0-.14.08-.27.12-.4a1,1,0,0,1,.69-.59l-.18-.09a.8.8,0,0,1-.53-.93,6.75,6.75,0,0,0-1-.4l-.42-.15a.72.72,0,0,0-.34.12,2.23,2.23,0,0,1-1.09.29h-.17a1.78,1.78,0,0,1-1.36-.72A2.24,2.24,0,0,0,205,145c-.31.58-.67,1.27-.4,1.69a.72.72,0,0,1-.28,1,.81.81,0,0,0-.37.82c0,.2.15.46.73.52a.21.21,0,0,0,.1,0s.11-.12.1-.45.38-.77.93-.86l.25,0a1.27,1.27,0,0,1,1.07.51A2.18,2.18,0,0,0,208,149.09Z"/><path class="cls-13" d="M212.35,77.8l.38-.36c1.24-1.11,1.68-1.75,1-2.52a1.84,1.84,0,0,0-.87.2,1.76,1.76,0,0,1-1.46,0,2.66,2.66,0,0,0-1.24-.52c-.16,0-.18.27-.19.36A3.28,3.28,0,0,0,212.35,77.8Z"/><path class="cls-13" d="M147.47,192.94a1.26,1.26,0,0,0,.7-.19.45.45,0,0,0,.11-.39A.82.82,0,0,1,148,192a1.29,1.29,0,0,0-.47-.06l-.1.13a1,1,0,0,0-.29.62l.06,0A1,1,0,0,1,147.47,192.94Z"/><path class="cls-13" d="M148.52,96.1a2.06,2.06,0,0,0-.56,1h.11a27.21,27.21,0,0,1,3,.29l.73.1a7.08,7.08,0,0,1,0-.95,2.35,2.35,0,0,0-.41-1.84A5,5,0,0,0,148.52,96.1Z"/><path class="cls-13" d="M146.26,22.9a.64.64,0,0,1,0-.18l-.13-.15a.35.35,0,0,0-.31-.16,1.57,1.57,0,0,1-.67,0,3,3,0,0,0,1.06.52A.3.3,0,0,0,146.26,22.9Z"/><path class="cls-13" d="M149.55,9.21a1,1,0,0,0,.59-1c0-.17-.14-.36-.58-.39-.36.18-.71.39-1,.58l-.15.09a2.26,2.26,0,0,1,.47.43C149.14,9.22,149.12,9.26,149.55,9.21Z"/><path class="cls-13" d="M149.33,92.52a1,1,0,0,1,.22-.21l0-.12a3.41,3.41,0,0,0,.4-2,2.21,2.21,0,0,0-.83-.44,1.16,1.16,0,0,1-.65-.39,1.72,1.72,0,0,0-1.08,1.59,1.39,1.39,0,0,0,.57,1.15A2.7,2.7,0,0,0,149.33,92.52Z"/><path class="cls-13" d="M149.13,22.44a.62.62,0,0,1,0-.35,1.7,1.7,0,0,1-.45-.23s0,.07,0,.11a.7.7,0,0,1-.2.5A1.81,1.81,0,0,0,149.13,22.44Z"/><path class="cls-13" d="M144.19,74.38l.29,0h.09V73.9a.78.78,0,0,0-.4.12.4.4,0,0,0-.13.29l.16.08Z"/><path class="cls-13" d="M143.83,49.65a1,1,0,0,1-.36-.37,1.69,1.69,0,0,1-.15.74l.18,0A.87.87,0,0,1,143.83,49.65Z"/><path class="cls-13" d="M143.72,63.35a1,1,0,0,0,.55.25.84.84,0,0,0,.49-.5,1.13,1.13,0,0,0-.18-1.12h-.66l0,.09C143.7,62.52,143.49,63.06,143.72,63.35Z"/><path class="cls-13" d="M144.07,144.51a1.32,1.32,0,0,0-.58,1.55.79.79,0,0,0,.74.55,1.86,1.86,0,0,0,.87-.28A2.13,2.13,0,0,0,144.07,144.51Z"/><path class="cls-13" d="M155.35,118.78a.83.83,0,0,0-.06-.31c-.26,0-.32.09-.36.13a.5.5,0,0,0,0,.48h.39A.88.88,0,0,0,155.35,118.78Z"/><path class="cls-13" d="M157.82,57.66a1.63,1.63,0,0,0-.3-1.81,3.76,3.76,0,0,0-.5,0c-.71,0-1.12.24-1.25.73a1.44,1.44,0,0,0,.83,1.62A1.55,1.55,0,0,0,157.82,57.66Z"/><path class="cls-13" d="M152.8,64.4c.28-.05.7-.1,1.11-.14a1.38,1.38,0,0,1,.2-.44.53.53,0,0,0,.12-.4,1.6,1.6,0,0,0-1.86,0,1.82,1.82,0,0,0-.67,1.14,2.89,2.89,0,0,1,.43.1A1.3,1.3,0,0,1,152.8,64.4Z"/><path class="cls-13" d="M151.4,189.25a0,0,0,0,1,0,0v0a.54.54,0,0,0,0-.17.49.49,0,0,0,0-.12,1.48,1.48,0,0,1-.31.09v.49A.46.46,0,0,0,151.4,189.25Z"/><path class="cls-13" d="M154.26,184.81a1.06,1.06,0,0,0-.25-1.21,2.2,2.2,0,0,0-1.51-.6,1.42,1.42,0,0,0-1.26.63.72.72,0,0,1,.31.94.26.26,0,0,0,0,.26,1.85,1.85,0,0,0,1.41.48A1.56,1.56,0,0,0,154.26,184.81Z"/><path class="cls-13" d="M151.32,114.23a4,4,0,0,1-1.3,0c-.21.48-.28.81-.09,1.14l.25-.08a1.63,1.63,0,0,1,.45-.07,1.47,1.47,0,0,1,.77.21,1.57,1.57,0,0,1,.33-.11,1.31,1.31,0,0,0-.25-.82Z"/><path class="cls-13" d="M153.76,189.9l.11.13a2.64,2.64,0,0,1,.21.24,2.45,2.45,0,0,0,.74-.11l.33-.07A2.19,2.19,0,0,0,153.76,189.9Z"/><path class="cls-13" d="M156,49.18l.06,0c1.63-1,2.95-1.91,2.5-3.22a2.13,2.13,0,0,0-.76-.16c-.83,0-1.33.85-1.94,2.05a10.6,10.6,0,0,1-.59,1.07A1.09,1.09,0,0,0,156,49.18Z"/><path class="cls-13" d="M156.51,42.65a1.25,1.25,0,0,1,.4-.18h0c0-.05,0-.12-.06-.19a1.63,1.63,0,0,1-.54,0l-.14.14a1.93,1.93,0,0,1,.26.19Z"/><path class="cls-13" d="M152.68,34.63a.89.89,0,0,1,.51.62,3.48,3.48,0,0,1,0,1.13,2.05,2.05,0,0,0,.46,0,4,4,0,0,0,2-.64c.2-.67-.13-1-.55-1.38a1.66,1.66,0,0,1-.7-1.86l-.05,0a2.54,2.54,0,0,0-.88-.61c-1,.66-.92,1.23-.65,2.06A.68.68,0,0,1,152.68,34.63Z"/><path class="cls-13" d="M156.53,99.76c0,.06,0,.11,0,.18a.91.91,0,0,1,0,.12,1.24,1.24,0,0,1,.7.39h.16c0-.44-.09-.59-.16-.65S156.95,99.71,156.53,99.76Z"/><path class="cls-13" d="M159,137.09a1.58,1.58,0,0,1-.55-.2h-.06a.89.89,0,0,0-.49.1.25.25,0,0,0-.09.2.77.77,0,0,0,.54.65.88.88,0,0,1,.37-.51A2.33,2.33,0,0,0,159,137.09Z"/><path class="cls-13" d="M156.78,24.83a1.05,1.05,0,0,1,.4-.3,2.83,2.83,0,0,0-.44-1.06l-.06-.11a.63.63,0,0,0-.39.6,1.07,1.07,0,0,0,.31.72A1.09,1.09,0,0,0,156.78,24.83Z"/><path class="cls-13" d="M121.47,86a1.08,1.08,0,0,0,.41-.84,3.26,3.26,0,0,0-2-.72,2,2,0,0,0-1.9,1.3A3.56,3.56,0,0,0,121.47,86Z"/><path class="cls-13" d="M114.58,183.73a.64.64,0,0,0,0,.41.4.4,0,0,0,.2-.33c0-.14-.05-.2-.12-.22A.61.61,0,0,0,114.58,183.73Z"/><path class="cls-13" d="M112.51,104.37a2,2,0,0,0,1.62-.81.72.72,0,0,0,0-.81c-.43.22-.92.44-1.36.65s-.87.4-1.17.55A1.13,1.13,0,0,0,112.51,104.37Z"/><path class="cls-13" d="M109.46,202.24a5,5,0,0,0,1.92,1l0-.08c.43-.76.61-1.06.19-1.66h-.24a3.89,3.89,0,0,0-1.72.07A.83.83,0,0,0,109.46,202.24Z"/><path class="cls-13" d="M110.72,195.49c.1-.08.15-.12.16-.17a.87.87,0,0,1-.35-.39.42.42,0,0,1,0-.07h-.3a.74.74,0,0,0,.31.79Z"/><path class="cls-13" d="M124.46,83.93l.28,0v0a1.26,1.26,0,0,0-.06-.41h-.17A1.34,1.34,0,0,0,124.46,83.93Z"/><path class="cls-13" d="M117.63,186.65a.33.33,0,0,0-.11-.23.42.42,0,0,0-.22-.09l-.21.09a.49.49,0,0,0,.14.36.3.3,0,0,0,.1.06A1.33,1.33,0,0,1,117.63,186.65Z"/><path class="cls-13" d="M124.81,58.41a.72.72,0,0,0-.07.3h.06c.06,0,.07,0,.08,0a.42.42,0,0,0,.11-.22h0Z"/><path class="cls-13" d="M122.15,162.85a3.37,3.37,0,0,1,.67,0,2.12,2.12,0,0,0-.78-.35A.8.8,0,0,1,122.15,162.85Z"/><path class="cls-13" d="M124.54,43.14a1.1,1.1,0,0,0-.3.08,1.55,1.55,0,0,1-.55.11.63.63,0,0,1-.18.49,2.39,2.39,0,0,1-1.94,1h0a2.22,2.22,0,0,0,0,.3,1.51,1.51,0,0,1,.71.15,1.36,1.36,0,0,1,.84-.26h.07a1.26,1.26,0,0,1,.93.43c.09-.14.19-.27.29-.41.39-.53.62-.89.44-1.29A.67.67,0,0,1,125,43l0,0A1.41,1.41,0,0,1,124.54,43.14Z"/><path class="cls-13" d="M120.62,78.17l.09-.16c-.28,0-.52-.1-.73-.15l-.36-.08a3.09,3.09,0,0,0,0,.84,1.24,1.24,0,0,1,.38.27v0A1.56,1.56,0,0,0,120.62,78.17Z"/><path class="cls-13" d="M136,141.3a.54.54,0,0,1,.07-.17,3.3,3.3,0,0,0,.2-.43.49.49,0,0,0-.17,0,1.06,1.06,0,0,0-.32.61Z"/><path class="cls-13" d="M132.93,57.77a1.45,1.45,0,0,0-.32.62,1.48,1.48,0,0,1,.76-.14l.42,0a.27.27,0,0,0,0-.23A1,1,0,0,0,132.93,57.77Z"/><path class="cls-13" d="M151.38,145.07a.64.64,0,0,0-.4.13,1.55,1.55,0,0,0-.43,1.24.9.9,0,0,1-.67.78,1.63,1.63,0,0,1,.33,0h.17a1.28,1.28,0,0,1,.83.4s.16,0,.37,0l.52,0h.15a1.22,1.22,0,0,0,.49-1.61A1.75,1.75,0,0,0,151.38,145.07Z"/><path class="cls-13" d="M135.1,137.31l.12,0-.41-.81Z"/><path class="cls-13" d="M133.92,116.66l.11.09a1.3,1.3,0,0,0,.25.18,1,1,0,0,1,.25-.2l0,0-.13-.13a.88.88,0,0,1-.2-.37A1.13,1.13,0,0,0,133.92,116.66Z"/><path class="cls-13" d="M136.89,142.58a4.63,4.63,0,0,0,.14.63,1.55,1.55,0,0,1,.69-.06.66.66,0,0,1,.07-.23,6.05,6.05,0,0,1-.59-.35l-.36-.22Z"/><path class="cls-13" d="M137.48,62.7a1.22,1.22,0,0,0-.29,1.07,2.93,2.93,0,0,0,1.23.29h.21c.3-.23.65-.6.44-1A1.29,1.29,0,0,0,137.48,62.7Z"/><path class="cls-13" d="M137.09,10.38a1.38,1.38,0,0,1,.9-.32h.13A2.71,2.71,0,0,0,136,8.68c-.34.67-1.27.89-2,1a4.38,4.38,0,0,0,1.12,1.7A5,5,0,0,0,137.09,10.38Z"/><path class="cls-13" d="M134,36.13a2.14,2.14,0,0,0-.1-1.12,1.45,1.45,0,0,1-.05-.19,2.27,2.27,0,0,0-.67-.1,1.77,1.77,0,0,0-1.51.66c-.14.3.07.57.33.77A6.27,6.27,0,0,1,134,36.13Z"/><path class="cls-13" d="M127.49,129.81a1.48,1.48,0,0,1-.13-.24,3.92,3.92,0,0,0-.45,0,1.35,1.35,0,0,0,.61.28Z"/><path class="cls-13" d="M128,38.28a1.12,1.12,0,0,0,.86-.37,1.53,1.53,0,0,0,.38-.89,2,2,0,0,0-.59-.21,1.44,1.44,0,0,1-1.16.3,1.68,1.68,0,0,1,.18,1.15Z"/><path class="cls-13" d="M126,84.84a4,4,0,0,1,.43,1.11,3.34,3.34,0,0,0,.34.93.9.9,0,0,0,.59-.18l.09-.05C127.28,85.63,126.94,85,126,84.84Z"/><path class="cls-13" d="M129.2,199.52a1.54,1.54,0,0,0,.17-1.67,2,2,0,0,0-1-.24,1.37,1.37,0,0,0-.94.32,1.2,1.2,0,0,0-.23,1.27A3.23,3.23,0,0,0,129.2,199.52Z"/><path class="cls-13" d="M128.48,79.11l-.2-.05a.63.63,0,0,0-.18.59c.09.25.44.47,1,.64l.09-.11a1.05,1.05,0,0,1,.43-.31A2.44,2.44,0,0,0,128.48,79.11Z"/><path class="cls-13" d="M158.73,197.19l-.08,0a1,1,0,0,1-.42-.43,2.41,2.41,0,0,0-.57.1,4.47,4.47,0,0,1-.53.11,1.3,1.3,0,0,1-1.32-.55,3.73,3.73,0,0,0-1.3-1.38,1.87,1.87,0,0,0-.76,1.48,1.19,1.19,0,0,0,.68,1.08,1.4,1.4,0,0,1,1.15.28.69.69,0,0,1,.15.93.57.57,0,0,0-.08.37,3,3,0,0,0,.22.29l.18.24a1.78,1.78,0,0,0,.46-.09,2.19,2.19,0,0,1,.35-.07,2,2,0,0,1,.06-.3.54.54,0,0,0,0-.23.81.81,0,0,1,.61-1l.32-.12C158.62,197.64,158.75,197.53,158.73,197.19Z"/><path class="cls-13" d="M174.74,198a.83.83,0,0,0,.05.32,1.14,1.14,0,0,0,.24.07c.38-.29.41-.55.32-.77a4.74,4.74,0,0,0-.65,0A3.41,3.41,0,0,1,174.74,198Z"/><path class="cls-13" d="M175.47,160.86h0a2.63,2.63,0,0,0-.25.38l.1-.07.44-.27Z"/><path class="cls-13" d="M182.53,90.69a1,1,0,0,1,.18-.13.71.71,0,0,1-.14-.19,1.43,1.43,0,0,0-.27-.34,5.6,5.6,0,0,1-1.05,0l-.06.15a7.2,7.2,0,0,0-.47,1.38c.27-.13.55-.24.83-.35A3.89,3.89,0,0,0,182.53,90.69Z"/><path class="cls-13" d="M175.91,150.93a.61.61,0,0,0,.12-.32.28.28,0,0,0,0-.12.47.47,0,0,0-.23.16l0,0,.14.18Z"/><path class="cls-13" d="M173.08,99.57a.92.92,0,0,1,.16.23,2.48,2.48,0,0,0,1.21-.34.52.52,0,0,0,.23-.43c0-.39-.5-1-1.22-1.15a1.13,1.13,0,0,1-.68.42l-.26.09a3.39,3.39,0,0,1,.35.73A1.69,1.69,0,0,0,173.08,99.57Z"/><path class="cls-13" d="M174.39,29.56a1.59,1.59,0,0,1,1,0,.59.59,0,0,0,.21-.13,1.52,1.52,0,0,1,.56-.26c.31-1.19-.16-1.52-1-2.08-.22-.15-.45-.32-.69-.52a2.29,2.29,0,0,0-.42,2A3.07,3.07,0,0,0,174.39,29.56Z"/><path class="cls-13" d="M175.23,13.72a.4.4,0,0,0,.08-.3H175a.72.72,0,0,1,.14.4Z"/><path class="cls-13" d="M175.52,44.26a1.52,1.52,0,0,0,.83-.19,1.31,1.31,0,0,0-.75.09A.21.21,0,0,0,175.52,44.26Z"/><path class="cls-13" d="M176.3,52a2.3,2.3,0,0,0-1.68-.47,4.94,4.94,0,0,0-1,1.63l.52.21a4.23,4.23,0,0,0,1.8.44C176.48,53.05,176.61,52.37,176.3,52Z"/><path class="cls-13" d="M186.13,189.22c.24,0,.47-.05.65-.09a1,1,0,0,0-.23-.68s-.1-.07-.36-.08c-.1.08-.12.19-.08.5A2.89,2.89,0,0,1,186.13,189.22Z"/><path class="cls-13" d="M201.62,50.82v.1a.7.7,0,0,1,0,.24,1.07,1.07,0,0,1,.18.2.72.72,0,0,0,.81.31,3.32,3.32,0,0,1,0-.68c.06-.5,0-.78-.14-.94h-.14A.7.7,0,0,0,201.62,50.82Z"/><path class="cls-13" d="M202.41,66.66l.07.1.1,0h.16c.15,0,.21,0,.43-.28a2.24,2.24,0,0,1,.27-.29,1.05,1.05,0,0,0-.86-.66C201.91,66,201.95,66,202.41,66.66Z"/><path class="cls-13" d="M201.29,34c.31.06.6.07.72-.06a2,2,0,0,1-.74-.68c-.24-.32-.33-.39-.51-.41a1.84,1.84,0,0,0-.05.54,1,1,0,0,1,.45.35A.92.92,0,0,1,201.29,34Z"/><path class="cls-13" d="M205.83,2.85a4.7,4.7,0,0,1,1-.15A2.5,2.5,0,0,0,206.39.2c-1.07-.18-1.84.11-2.13.79a1.61,1.61,0,0,0,.64,1.95A2.48,2.48,0,0,0,205.83,2.85Z"/><path class="cls-13" d="M210.26,135.17c.12-.16.24-.31.34-.47A2.23,2.23,0,0,0,209,132.4a1.07,1.07,0,0,1-.87-.65.75.75,0,0,1,.39-.86,2.1,2.1,0,0,0,.54-.48,2,2,0,0,0,0-2.51,1.29,1.29,0,0,0-1.05-.52,3.6,3.6,0,0,0-2.87,2.06,1.17,1.17,0,0,0,0,1,.7.7,0,0,1,.07.28,1.26,1.26,0,0,1,.32.17,2.45,2.45,0,0,0,.39.23,5.38,5.38,0,0,0,.81.16,1.11,1.11,0,0,1,1,.66.78.78,0,0,1-.45.91l-.45.27a9.76,9.76,0,0,0,.35,1.23,4,4,0,0,1,.35,2,3,3,0,0,0,2.18-.52,1.42,1.42,0,0,1,.5-.22A.66.66,0,0,1,210.26,135.17Z"/><path class="cls-13" d="M206.34,21a1.41,1.41,0,0,1,.15.41.45.45,0,0,0,0,.1,3.41,3.41,0,0,1,.55,0c.24,0,.54,0,.89,0a12.8,12.8,0,0,0,1.55.07c.26-.27.19-.52,0-1.1a5.51,5.51,0,0,1-.23-.65,3.46,3.46,0,0,0-2.7,1Z"/><path class="cls-13" d="M183.56,1.79a1.25,1.25,0,0,0,1.09-.46,1.5,1.5,0,0,0-.43-1.75,1.63,1.63,0,0,0-1.71.66,1.18,1.18,0,0,0,.36,1.47A3.74,3.74,0,0,0,183.56,1.79Z"/><path class="cls-13" d="M198.93,40.5c0-.86.79-1.17,1.35-1.39s.66-.28.7-.47l-.29-.06c-1.59-.34-3-.56-3.83,0l.23.5C197.63,40.36,198,40.64,198.93,40.5Z"/><path class="cls-13" d="M189.7,122c.2.37.64.57,1.3.85l.44.2a3.26,3.26,0,0,1,1-.6c.48-.19.59-.24.54-.61s-.79-.75-1.48-.75C191.3,121.1,190.09,121.14,189.7,122Z"/><path class="cls-13" d="M184.65,90.94a.56.56,0,0,1-.06-.2l-.15.07a.8.8,0,0,1,.17.4l.18.08a1.23,1.23,0,0,0,0-.12Z"/><path class="cls-13" d="M184.14,23.28c-.69.4-.73.87-.63,1.09s.59.41.84.41a2.59,2.59,0,0,0,.4,0,.92.92,0,0,0,.14-1A1,1,0,0,0,184.14,23.28Z"/><path class="cls-13" d="M189.52,66.68a.82.82,0,0,0-.14.84c.13.5.69.73,1.7.7.38-.32.71-.74.49-1.13a1.65,1.65,0,0,0-1.38-.61A1.05,1.05,0,0,0,189.52,66.68Z"/><path class="cls-13" d="M189.44,33.37a.8.8,0,0,1,.33-.62,1.42,1.42,0,0,1,.62-.27c0-.14,0-.34-.21-.69-.07-.14-.14-.27-.2-.41h-.16a1.5,1.5,0,0,0-1.42.68,1,1,0,0,0,.38,1.26A3.71,3.71,0,0,0,189.44,33.37Z"/><path class="cls-13" d="M205.08,111.79a1.31,1.31,0,0,1,.84-.25h0a2,2,0,0,0,2.25-1.36.69.69,0,0,1,.09-.16c-.2-.38-.55-.93-1-.93-.94,0-2.49,1.92-2.81,3.71a1.69,1.69,0,0,0,.14-.29A1.46,1.46,0,0,1,205.08,111.79Z"/><path class="cls-13" d="M158.93,69.14a2.51,2.51,0,0,0,1.9.59,1.32,1.32,0,0,1,1.16.45,3.6,3.6,0,0,0,.36.41,4.39,4.39,0,0,1,.48.55h1.83l.09-.09a1.2,1.2,0,0,0,.24-.27,1.2,1.2,0,0,1,1.09-.58,2.24,2.24,0,0,1-.73-1.48,3.14,3.14,0,0,0-.2-.73,5.13,5.13,0,0,1-1.34-.38,2.39,2.39,0,0,1-1.9.78,7.37,7.37,0,0,1-1.06-.1l-.24,0a8.12,8.12,0,0,0-1-.1.9.9,0,0,0-1,.72Z"/><path class="cls-13" d="M159.67,183.8a.4.4,0,0,0,.19.11.27.27,0,0,0,.14-.13c0-.1-.05-.27-.22-.46C159.68,183.52,159.61,183.72,159.67,183.8Z"/><path class="cls-13" d="M149.68,147.28h0a3.94,3.94,0,0,0-.65.2.7.7,0,0,1,.11.18,2.47,2.47,0,0,1,.33-.27A1.23,1.23,0,0,1,149.68,147.28Z"/><path class="cls-13" d="M152.85,149.26h0a1,1,0,0,0-1,.81.83.83,0,0,0,.45.9,1.42,1.42,0,0,1,.83-.33c0-.13.08-.26.12-.37a1.66,1.66,0,0,0,.14-.75A2.64,2.64,0,0,1,152.85,149.26Z"/><path class="cls-13" d="M161.49,31.5a.85.85,0,0,0,.55-.44,1.34,1.34,0,0,1-.41.15l-.21,0-.14,0,.05.06A1.33,1.33,0,0,1,161.49,31.5Z"/><path class="cls-13" d="M172.44,187.08v0h.15a.61.61,0,0,1-.07-.32l-.07-.07-.11,0a.65.65,0,0,1,.1.26Z"/><path class="cls-13" d="M153,162.09c-.4.46-.29.64-.09.83a.89.89,0,0,1,.13.16.74.74,0,0,0,.26-.56.75.75,0,0,0-.24-.54A.48.48,0,0,1,153,162.09Z"/><path class="cls-13" d="M165.07,204.33a1.91,1.91,0,0,0-1.54-.62,2,2,0,0,0-1.31.42,1.27,1.27,0,0,0-.34,1.32c.11.48,1.13,1.08,2.12,1.08a1.76,1.76,0,0,0,.57-.08C165.52,205.3,165.3,204.63,165.07,204.33Z"/><path class="cls-13" d="M167.27,162l.07,0a1.17,1.17,0,0,1,.21.1.91.91,0,0,1,.21-.24l.16-.13a1,1,0,0,1-.32-.37h-.3A2.61,2.61,0,0,0,167.27,162Z"/><path class="cls-13" d="M172.87,177.67l-.29-.83.13.87Z"/><path class="cls-13" d="M168.1,77.7a.69.69,0,0,1,0-.94,1.77,1.77,0,0,0,.53-1,.88.88,0,0,0-.42-.14.57.57,0,0,0-.41.21,1,1,0,0,0-.13,1,.76.76,0,0,1-.39.91,2.09,2.09,0,0,1-1.37.39,2.19,2.19,0,0,0,0,2.32,2.51,2.51,0,0,0,2.14.56C169.56,79.85,168.73,78.45,168.1,77.7Z"/><path class="cls-13" d="M163.52,57.31a1.73,1.73,0,0,0,.31-.18,2.49,2.49,0,0,1,.56-.3v-.09a.63.63,0,0,1,.06-.27,2.54,2.54,0,0,1-.63-.3,1.08,1.08,0,0,1-.36.34l-.32.17-.17.09,0,0A1,1,0,0,1,163.52,57.31Z"/><path class="cls-13" d="M167.31,42.56l0-.09a1,1,0,0,1,.58-.54,1.57,1.57,0,0,1,.83-.08c.23,0,.33,0,.51-.56a3.17,3.17,0,0,1,.12-.32,1.42,1.42,0,0,1-.34-.12,2.29,2.29,0,0,0-1.48.54,1.1,1.1,0,0,1-.72.5,1.68,1.68,0,0,1-.32,0,.67.67,0,0,1-.1.28,1.47,1.47,0,0,1,.61.15A1.1,1.1,0,0,1,167.31,42.56Z"/><path class="cls-13" d="M162.77,109.7a.85.85,0,0,0-.29.45l.29.09a1.28,1.28,0,0,0,.4.09.72.72,0,0,0,0-.18.88.88,0,0,1,.12-.6A.69.69,0,0,0,162.77,109.7Z"/><path class="cls-13" d="M160.86,114.18a.29.29,0,0,0,0,.31c.79,0,1-.14,1-.33A.7.7,0,0,0,160.86,114.18Z"/><path class="cls-13" d="M166.06,55.51s0,.06,0,.1c.47-.15.56-.21.59-.32a.65.65,0,0,1,0-.37,1.58,1.58,0,0,1-.72,0c0,.12,0,.26.06.42Z"/><path class="cls-13" d="M165.87,179.59l-.43.13a35.41,35.41,0,0,0-5.38,1.89,1,1,0,0,1,.08.34,3.3,3.3,0,0,1,1.38-.27,8.69,8.69,0,0,1,1.81.25,6.9,6.9,0,0,0,1.78.2,5.25,5.25,0,0,0,.36-1.29A4.25,4.25,0,0,1,165.87,179.59Z"/><path class="cls-13" d="M163.45,187.41c-.15,0-.4,0-.55.42a3.23,3.23,0,0,0,1.24,3.13l0,0c.48-.25.71-.39.78-.66a.6.6,0,0,1,0-.22,2.88,2.88,0,0,0-.48-.7c-.47-.56-.81-1.11-.15-1.75A2.6,2.6,0,0,0,163.45,187.41Z"/></g></g></svg>